<svg width="268" height="56" viewBox="0 0 268 56" fill="none" xmlns="http://www.w3.org/2000/svg">
<rect width="268" height="56" rx="6" fill="#AA81F3"/>
<rect width="268" height="56" rx="6" fill="#AA81F3"/>
<path d="M41.5622 16H36.0001C33.4859 16 32.2288 16 31.4478 16.781C30.6667 17.5621 30.6667 18.8192 30.6667 21.3333V34.6667C30.6667 37.1808 30.6667 38.4379 31.4478 39.219C32.2288 40 33.4859 40 36.0001 40H44.0001C46.5142 40 47.7713 40 48.5524 39.219C49.3334 38.4379 49.3334 37.1808 49.3334 34.6667V23.7712C49.3334 23.2262 49.3334 22.9537 49.2319 22.7087C49.1304 22.4637 48.9377 22.271 48.5524 21.8856L43.4478 16.781C43.0624 16.3957 42.8697 16.203 42.6247 16.1015C42.3797 16 42.1072 16 41.5622 16Z" fill="white" stroke="white"/>
<path d="M36 29.3333L44 29.3333" stroke="#AA81F3" stroke-linecap="round"/>
<path d="M36 34.6667L41.3333 34.6667" stroke="#AA81F3" stroke-linecap="round"/>
<path d="M41.3333 16V21.3333C41.3333 22.5904 41.3333 23.219 41.7238 23.6095C42.1143 24 42.7428 24 43.9999 24H49.3333" stroke="#AA81F3"/>
<path d="M69.2784 34V22.3636H76.5739V23.875H71.0341V27.4205H76.1932V28.9261H71.0341V32.4886H76.642V34H69.2784ZM86.0726 25.2727L82.9078 34H81.0896L77.9192 25.2727H79.743L81.9533 31.9886H82.0442L84.2487 25.2727H86.0726ZM89.7829 34.1932C89.2299 34.1932 88.7299 34.0909 88.2829 33.8864C87.836 33.678 87.4818 33.3769 87.2204 32.983C86.9629 32.589 86.8341 32.1061 86.8341 31.5341C86.8341 31.0417 86.9288 30.6364 87.1182 30.3182C87.3076 30 87.5632 29.7481 87.8852 29.5625C88.2072 29.3769 88.567 29.2367 88.9648 29.142C89.3625 29.0473 89.7678 28.9754 90.1807 28.9261C90.7034 28.8655 91.1276 28.8163 91.4534 28.7784C91.7792 28.7367 92.0159 28.6705 92.1636 28.5795C92.3114 28.4886 92.3852 28.3409 92.3852 28.1364V28.0966C92.3852 27.6004 92.2451 27.2159 91.9648 26.9432C91.6882 26.6705 91.2754 26.5341 90.7261 26.5341C90.1542 26.5341 89.7034 26.661 89.3739 26.9148C89.0481 27.1648 88.8227 27.4432 88.6977 27.75L87.1011 27.3864C87.2905 26.8561 87.567 26.428 87.9307 26.1023C88.2981 25.7727 88.7204 25.5341 89.1977 25.3864C89.675 25.2348 90.1769 25.1591 90.7034 25.1591C91.0519 25.1591 91.4212 25.2008 91.8114 25.2841C92.2053 25.3636 92.5727 25.5114 92.9136 25.7273C93.2583 25.9432 93.5405 26.2519 93.7602 26.6534C93.9799 27.0511 94.0898 27.5682 94.0898 28.2045V34H92.4307V32.8068H92.3625C92.2526 33.0265 92.0879 33.2424 91.8682 33.4545C91.6485 33.6667 91.3663 33.8428 91.0216 33.983C90.6769 34.1231 90.264 34.1932 89.7829 34.1932ZM90.1523 32.8295C90.622 32.8295 91.0235 32.7367 91.3568 32.5511C91.6939 32.3655 91.9496 32.1231 92.1239 31.8239C92.3019 31.5208 92.3909 31.197 92.3909 30.8523V29.7273C92.3303 29.7879 92.2129 29.8447 92.0386 29.8977C91.8682 29.947 91.6731 29.9905 91.4534 30.0284C91.2337 30.0625 91.0197 30.0947 90.8114 30.125C90.603 30.1515 90.4288 30.1742 90.2886 30.1932C89.9591 30.2348 89.6579 30.3049 89.3852 30.4034C89.1163 30.5019 88.9004 30.6439 88.7375 30.8295C88.5784 31.0114 88.4989 31.2538 88.4989 31.5568C88.4989 31.9773 88.6542 32.2955 88.9648 32.5114C89.2754 32.7235 89.6712 32.8295 90.1523 32.8295ZM97.8754 22.3636V34H96.1765V22.3636H97.8754ZM105.513 30.3807V25.2727H107.218V34H105.547V32.4886H105.457C105.256 32.9545 104.934 33.3428 104.491 33.6534C104.051 33.9602 103.504 34.1136 102.849 34.1136C102.288 34.1136 101.792 33.9905 101.36 33.7443C100.932 33.4943 100.595 33.125 100.349 32.6364C100.106 32.1477 99.9849 31.5436 99.9849 30.8239V25.2727H101.684V30.6193C101.684 31.214 101.849 31.6875 102.178 32.0398C102.508 32.392 102.936 32.5682 103.462 32.5682C103.78 32.5682 104.097 32.4886 104.411 32.3295C104.729 32.1705 104.992 31.9299 105.201 31.608C105.413 31.286 105.517 30.8769 105.513 30.3807ZM111.864 34.1932C111.311 34.1932 110.811 34.0909 110.364 33.8864C109.917 33.678 109.563 33.3769 109.302 32.983C109.044 32.589 108.915 32.1061 108.915 31.5341C108.915 31.0417 109.01 30.6364 109.2 30.3182C109.389 30 109.645 29.7481 109.967 29.5625C110.289 29.3769 110.648 29.2367 111.046 29.142C111.444 29.0473 111.849 28.9754 112.262 28.9261C112.785 28.8655 113.209 28.8163 113.535 28.7784C113.861 28.7367 114.097 28.6705 114.245 28.5795C114.393 28.4886 114.467 28.3409 114.467 28.1364V28.0966C114.467 27.6004 114.326 27.2159 114.046 26.9432C113.77 26.6705 113.357 26.5341 112.807 26.5341C112.236 26.5341 111.785 26.661 111.455 26.9148C111.129 27.1648 110.904 27.4432 110.779 27.75L109.182 27.3864C109.372 26.8561 109.648 26.428 110.012 26.1023C110.379 25.7727 110.802 25.5341 111.279 25.3864C111.756 25.2348 112.258 25.1591 112.785 25.1591C113.133 25.1591 113.503 25.2008 113.893 25.2841C114.287 25.3636 114.654 25.5114 114.995 25.7273C115.34 25.9432 115.622 26.2519 115.842 26.6534C116.061 27.0511 116.171 27.5682 116.171 28.2045V34H114.512V32.8068H114.444C114.334 33.0265 114.169 33.2424 113.95 33.4545C113.73 33.6667 113.448 33.8428 113.103 33.983C112.758 34.1231 112.345 34.1932 111.864 34.1932ZM112.234 32.8295C112.703 32.8295 113.105 32.7367 113.438 32.5511C113.775 32.3655 114.031 32.1231 114.205 31.8239C114.383 31.5208 114.472 31.197 114.472 30.8523V29.7273C114.412 29.7879 114.294 29.8447 114.12 29.8977C113.95 29.947 113.754 29.9905 113.535 30.0284C113.315 30.0625 113.101 30.0947 112.893 30.125C112.684 30.1515 112.51 30.1742 112.37 30.1932C112.04 30.2348 111.739 30.3049 111.467 30.4034C111.198 30.5019 110.982 30.6439 110.819 30.8295C110.66 31.0114 110.58 31.2538 110.58 31.5568C110.58 31.9773 110.736 32.2955 111.046 32.5114C111.357 32.7235 111.753 32.8295 112.234 32.8295ZM122.332 25.2727V26.6364H117.565V25.2727H122.332ZM118.843 23.1818H120.542V31.4375C120.542 31.767 120.591 32.0152 120.69 32.1818C120.788 32.3447 120.915 32.4564 121.07 32.517C121.23 32.5739 121.402 32.6023 121.587 32.6023C121.724 32.6023 121.843 32.5928 121.945 32.5739C122.048 32.5549 122.127 32.5398 122.184 32.5284L122.491 33.9318C122.392 33.9697 122.252 34.0076 122.07 34.0455C121.889 34.0871 121.661 34.1098 121.389 34.1136C120.942 34.1212 120.525 34.0417 120.139 33.875C119.752 33.7083 119.44 33.4508 119.201 33.1023C118.962 32.7538 118.843 32.3163 118.843 31.7898V23.1818ZM124.035 34V25.2727H125.734V34H124.035ZM124.893 23.9261C124.598 23.9261 124.344 23.8277 124.132 23.6307C123.923 23.4299 123.819 23.1913 123.819 22.9148C123.819 22.6345 123.923 22.3958 124.132 22.1989C124.344 21.9981 124.598 21.8977 124.893 21.8977C125.188 21.8977 125.44 21.9981 125.649 22.1989C125.861 22.3958 125.967 22.6345 125.967 22.9148C125.967 23.1913 125.861 23.4299 125.649 23.6307C125.44 23.8277 125.188 23.9261 124.893 23.9261ZM131.52 34.1761C130.701 34.1761 129.987 33.9886 129.378 33.6136C128.768 33.2386 128.294 32.714 127.957 32.0398C127.62 31.3655 127.451 30.5777 127.451 29.6761C127.451 28.7708 127.62 27.9792 127.957 27.3011C128.294 26.6231 128.768 26.0966 129.378 25.7216C129.987 25.3466 130.701 25.1591 131.52 25.1591C132.338 25.1591 133.052 25.3466 133.662 25.7216C134.271 26.0966 134.745 26.6231 135.082 27.3011C135.419 27.9792 135.588 28.7708 135.588 29.6761C135.588 30.5777 135.419 31.3655 135.082 32.0398C134.745 32.714 134.271 33.2386 133.662 33.6136C133.052 33.9886 132.338 34.1761 131.52 34.1761ZM131.525 32.75C132.056 32.75 132.495 32.6098 132.843 32.3295C133.192 32.0492 133.449 31.6761 133.616 31.2102C133.787 30.7443 133.872 30.2311 133.872 29.6705C133.872 29.1136 133.787 28.6023 133.616 28.1364C133.449 27.6667 133.192 27.2898 132.843 27.0057C132.495 26.7216 132.056 26.5795 131.525 26.5795C130.991 26.5795 130.548 26.7216 130.196 27.0057C129.847 27.2898 129.588 27.6667 129.417 28.1364C129.251 28.6023 129.167 29.1136 129.167 29.6705C129.167 30.2311 129.251 30.7443 129.417 31.2102C129.588 31.6761 129.847 32.0492 130.196 32.3295C130.548 32.6098 130.991 32.75 131.525 32.75ZM139.007 28.8182V34H137.308V25.2727H138.939V26.6932H139.047C139.247 26.2311 139.562 25.8598 139.99 25.5795C140.422 25.2992 140.965 25.1591 141.621 25.1591C142.215 25.1591 142.736 25.2841 143.183 25.5341C143.63 25.7803 143.977 26.1477 144.223 26.6364C144.469 27.125 144.592 27.7292 144.592 28.4489V34H142.893V28.6534C142.893 28.0208 142.729 27.5265 142.399 27.1705C142.069 26.8106 141.617 26.6307 141.041 26.6307C140.647 26.6307 140.297 26.7159 139.99 26.8864C139.687 27.0568 139.446 27.3068 139.268 27.6364C139.094 27.9621 139.007 28.3561 139.007 28.8182Z" fill="white"/>
</svg>
