<svg width="268" height="56" viewBox="0 0 268 56" fill="none" xmlns="http://www.w3.org/2000/svg">
<rect x="30.6667" y="17.3333" width="18.6667" height="22.6667" rx="2" stroke="#9E9E9E" stroke-width="1.3"/>
<path d="M36 24H44" stroke="#9E9E9E" stroke-width="1.3" stroke-linecap="round"/>
<path d="M36 29.3333H44" stroke="#9E9E9E" stroke-width="1.3" stroke-linecap="round"/>
<path d="M36 34.6667H41.3333" stroke="#9E9E9E" stroke-width="1.3" stroke-linecap="round"/>
<path d="M69.2784 34V22.3636H76.5739V23.875H71.0341V27.4205H76.1932V28.9261H71.0341V32.4886H76.642V34H69.2784ZM86.0726 25.2727L82.9078 34H81.0896L77.9192 25.2727H79.743L81.9533 31.9886H82.0442L84.2487 25.2727H86.0726ZM89.7829 34.1932C89.2299 34.1932 88.7299 34.0909 88.2829 33.8864C87.836 33.678 87.4818 33.3769 87.2204 32.983C86.9629 32.589 86.8341 32.1061 86.8341 31.5341C86.8341 31.0417 86.9288 30.6364 87.1182 30.3182C87.3076 30 87.5632 29.7481 87.8852 29.5625C88.2072 29.3769 88.567 29.2367 88.9648 29.142C89.3625 29.0473 89.7678 28.9754 90.1807 28.9261C90.7034 28.8655 91.1276 28.8163 91.4534 28.7784C91.7792 28.7367 92.0159 28.6705 92.1636 28.5795C92.3114 28.4886 92.3852 28.3409 92.3852 28.1364V28.0966C92.3852 27.6004 92.2451 27.2159 91.9648 26.9432C91.6882 26.6705 91.2754 26.5341 90.7261 26.5341C90.1542 26.5341 89.7034 26.661 89.3739 26.9148C89.0481 27.1648 88.8227 27.4432 88.6977 27.75L87.1011 27.3864C87.2905 26.8561 87.567 26.428 87.9307 26.1023C88.2981 25.7727 88.7204 25.5341 89.1977 25.3864C89.675 25.2348 90.1769 25.1591 90.7034 25.1591C91.0519 25.1591 91.4212 25.2008 91.8114 25.2841C92.2053 25.3636 92.5727 25.5114 92.9136 25.7273C93.2583 25.9432 93.5405 26.2519 93.7602 26.6534C93.9799 27.0511 94.0898 27.5682 94.0898 28.2045V34H92.4307V32.8068H92.3625C92.2526 33.0265 92.0879 33.2424 91.8682 33.4545C91.6485 33.6667 91.3663 33.8428 91.0216 33.983C90.6769 34.1231 90.264 34.1932 89.7829 34.1932ZM90.1523 32.8295C90.622 32.8295 91.0235 32.7367 91.3568 32.5511C91.6939 32.3655 91.9496 32.1231 92.1239 31.8239C92.3019 31.5208 92.3909 31.197 92.3909 30.8523V29.7273C92.3303 29.7879 92.2129 29.8447 92.0386 29.8977C91.8682 29.947 91.6731 29.9905 91.4534 30.0284C91.2337 30.0625 91.0197 30.0947 90.8114 30.125C90.603 30.1515 90.4288 30.1742 90.2886 30.1932C89.9591 30.2348 89.6579 30.3049 89.3852 30.4034C89.1163 30.5019 88.9004 30.6439 88.7375 30.8295C88.5784 31.0114 88.4989 31.2538 88.4989 31.5568C88.4989 31.9773 88.6542 32.2955 88.9648 32.5114C89.2754 32.7235 89.6712 32.8295 90.1523 32.8295ZM97.8754 22.3636V34H96.1765V22.3636H97.8754ZM105.513 30.3807V25.2727H107.218V34H105.547V32.4886H105.457C105.256 32.9545 104.934 33.3428 104.491 33.6534C104.051 33.9602 103.504 34.1136 102.849 34.1136C102.288 34.1136 101.792 33.9905 101.36 33.7443C100.932 33.4943 100.595 33.125 100.349 32.6364C100.106 32.1477 99.9849 31.5436 99.9849 30.8239V25.2727H101.684V30.6193C101.684 31.214 101.849 31.6875 102.178 32.0398C102.508 32.392 102.936 32.5682 103.462 32.5682C103.78 32.5682 104.097 32.4886 104.411 32.3295C104.729 32.1705 104.992 31.9299 105.201 31.608C105.413 31.286 105.517 30.8769 105.513 30.3807ZM111.864 34.1932C111.311 34.1932 110.811 34.0909 110.364 33.8864C109.917 33.678 109.563 33.3769 109.302 32.983C109.044 32.589 108.915 32.1061 108.915 31.5341C108.915 31.0417 109.01 30.6364 109.2 30.3182C109.389 30 109.645 29.7481 109.967 29.5625C110.289 29.3769 110.648 29.2367 111.046 29.142C111.444 29.0473 111.849 28.9754 112.262 28.9261C112.785 28.8655 113.209 28.8163 113.535 28.7784C113.861 28.7367 114.097 28.6705 114.245 28.5795C114.393 28.4886 114.467 28.3409 114.467 28.1364V28.0966C114.467 27.6004 114.326 27.2159 114.046 26.9432C113.77 26.6705 113.357 26.5341 112.807 26.5341C112.236 26.5341 111.785 26.661 111.455 26.9148C111.129 27.1648 110.904 27.4432 110.779 27.75L109.182 27.3864C109.372 26.8561 109.648 26.428 110.012 26.1023C110.379 25.7727 110.802 25.5341 111.279 25.3864C111.756 25.2348 112.258 25.1591 112.785 25.1591C113.133 25.1591 113.503 25.2008 113.893 25.2841C114.287 25.3636 114.654 25.5114 114.995 25.7273C115.34 25.9432 115.622 26.2519 115.842 26.6534C116.061 27.0511 116.171 27.5682 116.171 28.2045V34H114.512V32.8068H114.444C114.334 33.0265 114.169 33.2424 113.95 33.4545C113.73 33.6667 113.448 33.8428 113.103 33.983C112.758 34.1231 112.345 34.1932 111.864 34.1932ZM112.234 32.8295C112.703 32.8295 113.105 32.7367 113.438 32.5511C113.775 32.3655 114.031 32.1231 114.205 31.8239C114.383 31.5208 114.472 31.197 114.472 30.8523V29.7273C114.412 29.7879 114.294 29.8447 114.12 29.8977C113.95 29.947 113.754 29.9905 113.535 30.0284C113.315 30.0625 113.101 30.0947 112.893 30.125C112.684 30.1515 112.51 30.1742 112.37 30.1932C112.04 30.2348 111.739 30.3049 111.467 30.4034C111.198 30.5019 110.982 30.6439 110.819 30.8295C110.66 31.0114 110.58 31.2538 110.58 31.5568C110.58 31.9773 110.736 32.2955 111.046 32.5114C111.357 32.7235 111.753 32.8295 112.234 32.8295ZM122.332 25.2727V26.6364H117.565V25.2727H122.332ZM118.843 23.1818H120.542V31.4375C120.542 31.767 120.591 32.0152 120.69 32.1818C120.788 32.3447 120.915 32.4564 121.07 32.517C121.23 32.5739 121.402 32.6023 121.587 32.6023C121.724 32.6023 121.843 32.5928 121.945 32.5739C122.048 32.5549 122.127 32.5398 122.184 32.5284L122.491 33.9318C122.392 33.9697 122.252 34.0076 122.07 34.0455C121.889 34.0871 121.661 34.1098 121.389 34.1136C120.942 34.1212 120.525 34.0417 120.139 33.875C119.752 33.7083 119.44 33.4508 119.201 33.1023C118.962 32.7538 118.843 32.3163 118.843 31.7898V23.1818ZM124.035 34V25.2727H125.734V34H124.035ZM124.893 23.9261C124.598 23.9261 124.344 23.8277 124.132 23.6307C123.923 23.4299 123.819 23.1913 123.819 22.9148C123.819 22.6345 123.923 22.3958 124.132 22.1989C124.344 21.9981 124.598 21.8977 124.893 21.8977C125.188 21.8977 125.44 21.9981 125.649 22.1989C125.861 22.3958 125.967 22.6345 125.967 22.9148C125.967 23.1913 125.861 23.4299 125.649 23.6307C125.44 23.8277 125.188 23.9261 124.893 23.9261ZM131.52 34.1761C130.701 34.1761 129.987 33.9886 129.378 33.6136C128.768 33.2386 128.294 32.714 127.957 32.0398C127.62 31.3655 127.451 30.5777 127.451 29.6761C127.451 28.7708 127.62 27.9792 127.957 27.3011C128.294 26.6231 128.768 26.0966 129.378 25.7216C129.987 25.3466 130.701 25.1591 131.52 25.1591C132.338 25.1591 133.052 25.3466 133.662 25.7216C134.271 26.0966 134.745 26.6231 135.082 27.3011C135.419 27.9792 135.588 28.7708 135.588 29.6761C135.588 30.5777 135.419 31.3655 135.082 32.0398C134.745 32.714 134.271 33.2386 133.662 33.6136C133.052 33.9886 132.338 34.1761 131.52 34.1761ZM131.525 32.75C132.056 32.75 132.495 32.6098 132.843 32.3295C133.192 32.0492 133.449 31.6761 133.616 31.2102C133.787 30.7443 133.872 30.2311 133.872 29.6705C133.872 29.1136 133.787 28.6023 133.616 28.1364C133.449 27.6667 133.192 27.2898 132.843 27.0057C132.495 26.7216 132.056 26.5795 131.525 26.5795C130.991 26.5795 130.548 26.7216 130.196 27.0057C129.847 27.2898 129.588 27.6667 129.417 28.1364C129.251 28.6023 129.167 29.1136 129.167 29.6705C129.167 30.2311 129.251 30.7443 129.417 31.2102C129.588 31.6761 129.847 32.0492 130.196 32.3295C130.548 32.6098 130.991 32.75 131.525 32.75ZM139.007 28.8182V34H137.308V25.2727H138.939V26.6932H139.047C139.247 26.2311 139.562 25.8598 139.99 25.5795C140.422 25.2992 140.965 25.1591 141.621 25.1591C142.215 25.1591 142.736 25.2841 143.183 25.5341C143.63 25.7803 143.977 26.1477 144.223 26.6364C144.469 27.125 144.592 27.7292 144.592 28.4489V34H142.893V28.6534C142.893 28.0208 142.729 27.5265 142.399 27.1705C142.069 26.8106 141.617 26.6307 141.041 26.6307C140.647 26.6307 140.297 26.7159 139.99 26.8864C139.687 27.0568 139.446 27.3068 139.268 27.6364C139.094 27.9621 139.007 28.3561 139.007 28.8182ZM157.236 25.4205C157.175 24.8826 156.925 24.4659 156.486 24.1705C156.046 23.8712 155.493 23.7216 154.827 23.7216C154.35 23.7216 153.937 23.7973 153.588 23.9489C153.24 24.0966 152.969 24.3011 152.776 24.5625C152.586 24.8201 152.492 25.1136 152.492 25.4432C152.492 25.7197 152.556 25.9583 152.685 26.1591C152.817 26.3598 152.99 26.5284 153.202 26.6648C153.418 26.7973 153.649 26.9091 153.895 27C154.141 27.0871 154.378 27.1591 154.605 27.2159L155.742 27.5114C156.113 27.6023 156.493 27.7254 156.884 27.8807C157.274 28.036 157.635 28.2405 157.969 28.4943C158.302 28.7481 158.571 29.0625 158.776 29.4375C158.984 29.8125 159.088 30.2614 159.088 30.7841C159.088 31.4432 158.918 32.0284 158.577 32.5398C158.24 33.0511 157.749 33.4545 157.105 33.75C156.465 34.0455 155.69 34.1932 154.781 34.1932C153.91 34.1932 153.156 34.0549 152.52 33.7784C151.884 33.5019 151.385 33.1098 151.026 32.6023C150.666 32.0909 150.467 31.4848 150.429 30.7841H152.19C152.225 31.2045 152.361 31.5549 152.6 31.8352C152.842 32.1117 153.151 32.3182 153.526 32.4545C153.904 32.5871 154.319 32.6534 154.77 32.6534C155.266 32.6534 155.707 32.5758 156.094 32.4205C156.484 32.2614 156.791 32.0417 157.014 31.7614C157.238 31.4773 157.35 31.1458 157.35 30.767C157.35 30.4223 157.251 30.1402 157.054 29.9205C156.861 29.7008 156.598 29.5189 156.264 29.375C155.935 29.2311 155.562 29.1042 155.145 28.9943L153.77 28.6193C152.838 28.3655 152.1 27.9924 151.554 27.5C151.012 27.0076 150.742 26.3561 150.742 25.5455C150.742 24.875 150.923 24.2898 151.287 23.7898C151.651 23.2898 152.143 22.9015 152.764 22.625C153.385 22.3447 154.086 22.2045 154.867 22.2045C155.654 22.2045 156.35 22.3428 156.952 22.6193C157.558 22.8958 158.035 23.2765 158.384 23.7614C158.732 24.2424 158.914 24.7955 158.929 25.4205H157.236ZM164.55 34.1761C163.705 34.1761 162.978 33.9848 162.368 33.6023C161.762 33.2159 161.296 32.6837 160.97 32.0057C160.645 31.3277 160.482 30.5511 160.482 29.6761C160.482 28.7898 160.648 28.0076 160.982 27.3295C161.315 26.6477 161.785 26.1155 162.391 25.733C162.997 25.3504 163.711 25.1591 164.533 25.1591C165.196 25.1591 165.787 25.2822 166.306 25.5284C166.825 25.7708 167.243 26.1117 167.561 26.5511C167.883 26.9905 168.075 27.5038 168.135 28.0909H166.482C166.391 27.6818 166.183 27.3295 165.857 27.0341C165.535 26.7386 165.103 26.5909 164.561 26.5909C164.088 26.5909 163.673 26.7159 163.317 26.9659C162.965 27.2121 162.69 27.5644 162.493 28.0227C162.296 28.4773 162.198 29.0152 162.198 29.6364C162.198 30.2727 162.294 30.822 162.487 31.2841C162.681 31.7462 162.953 32.1042 163.306 32.358C163.662 32.6117 164.08 32.7386 164.561 32.7386C164.883 32.7386 165.175 32.6799 165.436 32.5625C165.701 32.4413 165.923 32.2689 166.101 32.0455C166.283 31.822 166.41 31.553 166.482 31.2386H168.135C168.075 31.803 167.891 32.3068 167.584 32.75C167.277 33.1932 166.866 33.5417 166.351 33.7955C165.84 34.0492 165.239 34.1761 164.55 34.1761ZM173.452 34.1761C172.634 34.1761 171.92 33.9886 171.31 33.6136C170.7 33.2386 170.227 32.714 169.89 32.0398C169.552 31.3655 169.384 30.5777 169.384 29.6761C169.384 28.7708 169.552 27.9792 169.89 27.3011C170.227 26.6231 170.7 26.0966 171.31 25.7216C171.92 25.3466 172.634 25.1591 173.452 25.1591C174.27 25.1591 174.984 25.3466 175.594 25.7216C176.204 26.0966 176.677 26.6231 177.015 27.3011C177.352 27.9792 177.52 28.7708 177.52 29.6761C177.52 30.5777 177.352 31.3655 177.015 32.0398C176.677 32.714 176.204 33.2386 175.594 33.6136C174.984 33.9886 174.27 34.1761 173.452 34.1761ZM173.458 32.75C173.988 32.75 174.427 32.6098 174.776 32.3295C175.124 32.0492 175.382 31.6761 175.549 31.2102C175.719 30.7443 175.804 30.2311 175.804 29.6705C175.804 29.1136 175.719 28.6023 175.549 28.1364C175.382 27.6667 175.124 27.2898 174.776 27.0057C174.427 26.7216 173.988 26.5795 173.458 26.5795C172.924 26.5795 172.48 26.7216 172.128 27.0057C171.78 27.2898 171.52 27.6667 171.35 28.1364C171.183 28.6023 171.1 29.1136 171.1 29.6705C171.1 30.2311 171.183 30.7443 171.35 31.2102C171.52 31.6761 171.78 32.0492 172.128 32.3295C172.48 32.6098 172.924 32.75 173.458 32.75ZM179.241 34V25.2727H180.883V26.6591H180.974C181.133 26.1894 181.413 25.8201 181.814 25.5511C182.22 25.2784 182.678 25.142 183.189 25.142C183.295 25.142 183.42 25.1458 183.564 25.1534C183.712 25.161 183.828 25.1705 183.911 25.1818V26.8068C183.843 26.7879 183.722 26.767 183.547 26.7443C183.373 26.7178 183.199 26.7045 183.025 26.7045C182.623 26.7045 182.265 26.7898 181.951 26.9602C181.64 27.1269 181.394 27.3598 181.212 27.6591C181.03 27.9545 180.939 28.2917 180.939 28.6705V34H179.241ZM185.205 34V25.2727H186.904V34H185.205ZM186.063 23.9261C185.768 23.9261 185.514 23.8277 185.302 23.6307C185.093 23.4299 184.989 23.1913 184.989 22.9148C184.989 22.6345 185.093 22.3958 185.302 22.1989C185.514 21.9981 185.768 21.8977 186.063 21.8977C186.359 21.8977 186.61 21.9981 186.819 22.1989C187.031 22.3958 187.137 22.6345 187.137 22.9148C187.137 23.1913 187.031 23.4299 186.819 23.6307C186.61 23.8277 186.359 23.9261 186.063 23.9261ZM190.712 28.8182V34H189.014V25.2727H190.644V26.6932H190.752C190.953 26.2311 191.267 25.8598 191.695 25.5795C192.127 25.2992 192.671 25.1591 193.326 25.1591C193.921 25.1591 194.442 25.2841 194.889 25.5341C195.336 25.7803 195.682 26.1477 195.928 26.6364C196.175 27.125 196.298 27.7292 196.298 28.4489V34H194.599V28.6534C194.599 28.0208 194.434 27.5265 194.104 27.1705C193.775 26.8106 193.322 26.6307 192.746 26.6307C192.353 26.6307 192.002 26.7159 191.695 26.8864C191.392 27.0568 191.152 27.3068 190.974 27.6364C190.8 27.9621 190.712 28.3561 190.712 28.8182ZM202.059 37.4545C201.366 37.4545 200.769 37.3636 200.269 37.1818C199.773 37 199.368 36.7595 199.053 36.4602C198.739 36.161 198.504 35.8333 198.349 35.4773L199.809 34.875C199.911 35.0417 200.048 35.2178 200.218 35.4034C200.392 35.5928 200.627 35.7538 200.923 35.8864C201.222 36.0189 201.606 36.0852 202.076 36.0852C202.72 36.0852 203.252 35.928 203.673 35.6136C204.093 35.303 204.303 34.8068 204.303 34.125V32.4091H204.195C204.093 32.5947 203.945 32.8011 203.752 33.0284C203.563 33.2557 203.302 33.4527 202.968 33.6193C202.635 33.786 202.201 33.8693 201.667 33.8693C200.978 33.8693 200.356 33.7083 199.803 33.3864C199.254 33.0606 198.819 32.5814 198.497 31.9489C198.178 31.3125 198.019 30.5303 198.019 29.6023C198.019 28.6742 198.177 27.8788 198.491 27.2159C198.809 26.553 199.245 26.0455 199.798 25.6932C200.351 25.3371 200.978 25.1591 201.678 25.1591C202.22 25.1591 202.658 25.25 202.991 25.4318C203.324 25.6098 203.584 25.8182 203.769 26.0568C203.959 26.2955 204.105 26.5057 204.207 26.6875H204.332V25.2727H205.997V34.1932C205.997 34.9432 205.822 35.5587 205.474 36.0398C205.125 36.5208 204.654 36.8769 204.059 37.108C203.468 37.339 202.802 37.4545 202.059 37.4545ZM202.042 32.4602C202.531 32.4602 202.944 32.3466 203.281 32.1193C203.622 31.8883 203.879 31.5587 204.053 31.1307C204.231 30.6989 204.32 30.1818 204.32 29.5795C204.32 28.9924 204.233 28.4754 204.059 28.0284C203.885 27.5814 203.629 27.233 203.292 26.983C202.955 26.7292 202.538 26.6023 202.042 26.6023C201.531 26.6023 201.105 26.7348 200.764 27C200.423 27.2614 200.165 27.6174 199.991 28.0682C199.82 28.5189 199.735 29.0227 199.735 29.5795C199.735 30.1515 199.822 30.6534 199.997 31.0852C200.171 31.517 200.428 31.8542 200.769 32.0966C201.114 32.339 201.538 32.4602 202.042 32.4602Z" fill="#9E9E9E"/>
</svg>
