<svg width="32" height="32" viewBox="0 0 32 32" fill="none" xmlns="http://www.w3.org/2000/svg">
<g clip-path="url(#clip0_125_1486)">
<path d="M5 28C4.44772 28 3.99463 27.5511 4.05174 27.0018C4.2797 24.809 5.25363 22.7489 6.82665 21.1759C8.63653 19.366 11.0912 18.3492 13.6508 18.3492C16.2103 18.3492 18.6651 19.366 20.4749 21.1759C22.048 22.7489 23.0219 24.809 23.2499 27.0018C23.307 27.5511 22.8539 28 22.3016 28H21.8889C21.3366 28 20.896 27.5502 20.8199 27.0031C20.6042 25.4518 19.8891 24.0021 18.7689 22.8819C17.4115 21.5245 15.5705 20.7619 13.6508 20.7619C11.7311 20.7619 9.89009 21.5245 8.53269 22.8819C7.41246 24.0021 6.69734 25.4518 6.48165 27.0031C6.40559 27.5502 5.96498 28 5.4127 28H5ZM13.6508 17.1429C9.65175 17.1429 6.4127 13.9038 6.4127 9.90478C6.4127 5.90574 9.65175 2.66669 13.6508 2.66669C17.6498 2.66669 20.8889 5.90574 20.8889 9.90478C20.8889 13.9038 17.6498 17.1429 13.6508 17.1429ZM13.6508 14.7302C16.3168 14.7302 18.4762 12.5708 18.4762 9.90478C18.4762 7.23875 16.3168 5.07939 13.6508 5.07939C10.9848 5.07939 8.8254 7.23875 8.8254 9.90478C8.8254 12.5708 10.9848 14.7302 13.6508 14.7302ZM23.2337 20.1094C23.4604 19.6057 24.0558 19.3768 24.5333 19.6545C25.8433 20.4164 26.9598 21.4787 27.7875 22.7593C28.6152 24.04 29.1252 25.4944 29.2817 27.0019C29.3387 27.5512 28.8857 28 28.3334 28H27.9208C27.3685 28 26.9278 27.5501 26.8518 27.003C26.7072 25.9612 26.3367 24.9593 25.7614 24.0692C25.1862 23.1791 24.4248 22.4296 23.5343 21.8698C23.0668 21.5759 22.8375 20.9895 23.0642 20.4859L23.2337 20.1094ZM22.5067 6.65416C22.6706 6.08027 23.3028 5.7725 23.8085 6.0894C24.5976 6.58381 25.2775 7.24113 25.8 8.02195C26.5311 9.11453 26.9211 10.3997 26.9206 11.7143C26.9211 13.3698 26.3026 14.9657 25.1866 16.1884C24.3183 17.1397 23.1977 17.8117 21.9665 18.1339C21.3976 18.2828 20.8889 17.8155 20.8889 17.2274V16.7613C20.8889 16.2638 21.2608 15.8539 21.7285 15.6844C22.2977 15.4782 22.8191 15.1509 23.2549 14.7211C23.8978 14.0871 24.3206 13.2636 24.4611 12.3717C24.6016 11.4797 24.4524 10.5662 24.0355 9.76527C23.7483 9.21351 23.3445 8.73519 22.8558 8.36132C22.4709 8.06689 22.2416 7.58223 22.3747 7.11631L22.5067 6.65416Z" fill="#A298AB"/>
</g>
<defs>
<clipPath id="clip0_125_1486">
<rect width="32" height="32" fill="white"/>
</clipPath>
</defs>
</svg>
