<svg width="32" height="32" viewBox="0 0 32 32" fill="none" xmlns="http://www.w3.org/2000/svg">
<path fill-rule="evenodd" clip-rule="evenodd" d="M15.9999 20.476C18.472 20.476 20.4759 18.472 20.4759 16C20.4759 13.528 18.472 11.524 15.9999 11.524C13.5279 11.524 11.5239 13.528 11.5239 16C11.5239 18.472 13.5279 20.476 15.9999 20.476ZM15.9999 18.7975C17.5449 18.7975 18.7974 17.545 18.7974 16C18.7974 14.455 17.5449 13.2025 15.9999 13.2025C14.4549 13.2025 13.2024 14.455 13.2024 16C13.2024 17.545 14.4549 18.7975 15.9999 18.7975Z" fill="#A298AB"/>
<path fill-rule="evenodd" clip-rule="evenodd" d="M19.489 4.65885L19.9389 7.95897C20.3051 8.13866 20.6571 8.34261 20.993 8.56873L24.0772 7.3079C24.5952 7.09615 25.19 7.29959 25.4698 7.78419L27.85 11.9069C28.1298 12.3915 28.0086 13.0083 27.5663 13.351L24.9317 15.392C24.9451 15.5929 24.9519 15.7957 24.9519 16C24.9519 16.2044 24.9451 16.4071 24.9317 16.6081L27.5663 18.649C28.0086 18.9918 28.1298 19.6086 27.85 20.0932L25.4698 24.2158C25.19 24.7005 24.5952 24.9039 24.0772 24.6922L20.993 23.4313C20.6571 23.6574 20.3051 23.8614 19.9389 24.041L19.489 27.3412C19.4133 27.8957 18.9398 28.309 18.3802 28.309H13.6198C13.0602 28.309 12.5866 27.8957 12.511 27.3412L12.061 24.041C11.6949 23.8614 11.3428 23.6574 11.007 23.4313L7.92274 24.6922C7.40478 24.9039 6.81002 24.7005 6.53023 24.2158L4.15 20.0932C3.87021 19.6086 3.99141 18.9918 4.43377 18.649L7.06834 16.6081C7.05486 16.4071 7.04802 16.2044 7.04802 16C7.04802 15.7957 7.05486 15.5929 7.06834 15.392L4.43377 13.351C3.99141 13.0083 3.87021 12.3915 4.14999 11.9069L6.53023 7.78419C6.81001 7.29959 7.40477 7.09615 7.92274 7.3079L11.007 8.56873C11.3428 8.34261 11.6949 8.13866 12.061 7.95897L12.511 4.65885C12.5866 4.1044 13.0602 3.69104 13.6198 3.69104H18.3802C18.9398 3.69104 19.4133 4.1044 19.489 4.65885ZM18.3967 9.07179L19.1995 9.46578C19.4967 9.61164 19.7826 9.7773 20.0557 9.9611L20.7989 10.4615L24.2604 9.04639L26.1522 12.3232L23.1971 14.6125L23.2569 15.5043C23.2678 15.6679 23.2734 15.8332 23.2734 16C23.2734 16.1669 23.2678 16.3321 23.2569 16.4957L23.1971 17.3876L26.1522 19.6768L24.2604 22.9537L20.7989 21.5386L20.0557 22.0389C19.7826 22.2228 19.4967 22.3884 19.1995 22.5343L18.3967 22.9283L17.8918 26.6305H14.1082L13.6033 22.9283L12.8005 22.5343C12.5033 22.3884 12.2174 22.2228 11.9443 22.0389L11.2011 21.5386L7.73966 22.9537L5.84782 19.6768L8.80289 17.3876L8.74308 16.4957C8.7321 16.3321 8.72651 16.1669 8.72651 16C8.72651 15.8332 8.7321 15.6679 8.74308 15.5043L8.80289 14.6125L5.8478 12.3232L7.73966 9.04639L11.2011 10.4615L11.9443 9.9611C12.2174 9.7773 12.5033 9.61164 12.8005 9.46578L13.6033 9.07179L14.1082 5.36954H17.8918L18.3967 9.07179Z" fill="#A298AB"/>
</svg>
