<svg width="432" height="314" viewBox="0 0 432 314" fill="none" xmlns="http://www.w3.org/2000/svg">
<mask id="mask0_144_1345" style="mask-type:luminance" maskUnits="userSpaceOnUse" x="93" y="30" width="109" height="206">
<path d="M93.4583 30.375H201.517V235.687H93.4583V30.375Z" fill="white"/>
</mask>
<g mask="url(#mask0_144_1345)">
<mask id="mask1_144_1345" style="mask-type:luminance" maskUnits="userSpaceOnUse" x="93" y="31" width="108" height="203">
<path d="M166.913 202.062C156.09 182.907 153.515 160.73 159.67 139.616C166.001 117.903 180.682 100.411 200.015 90.4069C186.651 86.6924 176.098 76.2073 173.008 62.4297C172.645 60.8173 172.172 59.1964 171.598 57.5924C164.735 38.4372 144.136 27.454 124.365 32.3673C102.204 37.8716 89.2709 60.5978 95.594 82.294C98.2617 91.4284 103.901 98.8912 111.17 103.923C123.546 112.5 128.907 127.907 124.711 142.36C121.055 154.93 120.811 168.64 124.711 182.139C134.259 215.19 166.103 236.312 199.356 233.72C185.84 226.553 174.621 215.713 166.913 202.062Z" fill="white"/>
</mask>
<g mask="url(#mask1_144_1345)">
<path d="M89.2709 27.454V236.312H200.015V27.454H89.2709Z" fill="white"/>
</g>
</g>
<mask id="mask2_144_1345" style="mask-type:luminance" maskUnits="userSpaceOnUse" x="164" y="30" width="174" height="206">
<path d="M164.777 30.375H337.672V235.687H164.777V30.375Z" fill="white"/>
</mask>
<g mask="url(#mask2_144_1345)">
<mask id="mask3_144_1345" style="mask-type:luminance" maskUnits="userSpaceOnUse" x="165" y="31" width="173" height="203">
<path d="M258.198 62.4297C258.561 60.8173 259.025 59.1964 259.599 57.5924C266.471 38.4372 287.07 27.454 306.841 32.3673C328.993 37.8716 341.935 60.5978 335.612 82.294C332.944 91.4284 327.297 98.8912 320.036 103.923C307.66 112.5 302.291 127.907 306.495 142.36C310.142 154.93 310.395 168.64 306.495 182.139C295.731 219.394 256.636 241.529 219.119 231.568C180.024 221.192 157.34 180.788 168.593 142.208C176.503 115.083 199.052 96.1898 225.155 91.6141C225.375 91.5719 225.594 91.5382 225.831 91.5044C241.668 89.377 254.703 78.0054 258.198 62.4297Z" fill="white"/>
</mask>
<g mask="url(#mask3_144_1345)">
<path d="M157.34 27.454V241.512H341.935V27.454H157.34Z" fill="white"/>
</g>
</g>
<mask id="mask4_144_1345" style="mask-type:luminance" maskUnits="userSpaceOnUse" x="184" y="19" width="63" height="64">
<path d="M184.228 19.569H246.902V82.2433H184.228V19.569Z" fill="white"/>
</mask>
<g mask="url(#mask4_144_1345)">
<mask id="mask5_144_1345" style="mask-type:luminance" maskUnits="userSpaceOnUse" x="184" y="19" width="63" height="64">
<path d="M246.835 50.8638C246.835 52.9068 246.641 54.9414 246.235 56.9506C245.839 58.9598 245.248 60.9099 244.462 62.801C243.677 64.692 242.715 66.4902 241.575 68.1955C240.436 69.9008 239.144 71.471 237.692 72.9231C236.24 74.3667 234.661 75.6668 232.956 76.798C231.251 77.9377 229.452 78.9001 227.553 79.6852C225.662 80.4703 223.703 81.0613 221.694 81.4581C219.685 81.8548 217.65 82.0575 215.599 82.0575C213.547 82.0575 211.521 81.8548 209.504 81.4581C207.494 81.0613 205.544 80.4703 203.645 79.6852C201.754 78.9001 199.956 77.9377 198.25 76.798C196.545 75.6668 194.966 74.3667 193.514 72.9231C192.062 71.471 190.771 69.9008 189.631 68.1955C188.491 66.4902 187.529 64.692 186.744 62.801C185.959 60.9099 185.368 58.9598 184.962 56.9506C184.566 54.9414 184.363 52.9068 184.363 50.8638C184.363 48.8124 184.566 46.7863 184.962 44.7771C185.368 42.7678 185.959 40.8177 186.744 38.9182C187.529 37.0272 188.491 35.229 189.631 33.5237C190.771 31.8268 192.062 30.2482 193.514 28.7961C194.966 27.3525 196.545 26.0609 198.25 24.9212C199.956 23.7815 201.754 22.8191 203.645 22.034C205.544 21.2489 207.494 20.6579 209.504 20.2611C211.521 19.8644 213.547 19.6617 215.599 19.6617C217.65 19.6617 219.685 19.8644 221.694 20.2611C223.703 20.6579 225.662 21.2489 227.553 22.034C229.452 22.8191 231.251 23.7815 232.956 24.9212C234.661 26.0609 236.24 27.3525 237.692 28.7961C239.144 30.2482 240.436 31.8268 241.575 33.5237C242.715 35.229 243.677 37.0272 244.462 38.9182C245.248 40.8177 245.839 42.7678 246.235 44.7771C246.641 46.7863 246.835 48.8124 246.835 50.8638Z" fill="white"/>
</mask>
<g mask="url(#mask5_144_1345)">
<path d="M184.363 19.6617V82.0575H246.835V19.6617H184.363Z" fill="white"/>
</g>
</g>
<mask id="mask6_144_1345" style="mask-type:luminance" maskUnits="userSpaceOnUse" x="151" y="0" width="36" height="33">
<path d="M151.81 0H186.389V32.5359H151.81V0Z" fill="white"/>
</mask>
<g mask="url(#mask6_144_1345)">
<mask id="mask7_144_1345" style="mask-type:luminance" maskUnits="userSpaceOnUse" x="153" y="0" width="32" height="32">
<path d="M184.363 15.5926C184.363 16.6225 184.262 17.6356 184.068 18.6402C183.865 19.6448 183.569 20.6157 183.173 21.5696C182.784 22.5151 182.303 23.41 181.729 24.2627C181.163 25.1153 180.513 25.9004 179.787 26.6264C179.061 27.3525 178.276 27.9941 177.424 28.5681C176.571 29.1338 175.668 29.615 174.722 30.0117C173.777 30.4001 172.797 30.6956 171.793 30.8982C170.788 31.0923 169.775 31.1936 168.745 31.1936C167.724 31.1936 166.702 31.0923 165.697 30.8982C164.693 30.6956 163.714 30.4001 162.768 30.0117C161.823 29.615 160.919 29.1338 160.067 28.5681C159.214 27.9941 158.429 27.3525 157.703 26.6264C156.977 25.9004 156.327 25.1153 155.761 24.2627C155.187 23.41 154.706 22.5151 154.317 21.5696C153.921 20.6157 153.625 19.6448 153.431 18.6402C153.228 17.6356 153.127 16.6225 153.127 15.5926C153.127 14.5711 153.228 13.558 153.431 12.5534C153.625 11.5488 153.921 10.5695 154.317 9.62402C154.706 8.6785 155.187 7.78363 155.761 6.93098C156.327 6.07833 156.977 5.29321 157.703 4.56719C158.429 3.84116 159.214 3.19112 160.067 2.6255C160.919 2.05988 161.823 1.57867 162.768 1.1819C163.714 0.793558 164.693 0.498085 165.697 0.295474C166.702 0.0928633 167.724 0 168.745 0C169.775 0 170.788 0.0928633 171.793 0.295474C172.797 0.498085 173.777 0.793558 174.722 1.1819C175.668 1.57867 176.571 2.05988 177.424 2.6255C178.276 3.19112 179.061 3.84116 179.787 4.56719C180.513 5.29321 181.163 6.07833 181.729 6.93098C182.303 7.78363 182.784 8.6785 183.173 9.62402C183.569 10.5695 183.865 11.5488 184.068 12.5534C184.262 13.558 184.363 14.5711 184.363 15.5926Z" fill="white"/>
</mask>
<g mask="url(#mask7_144_1345)">
<path d="M153.127 0V31.1936H184.363V0H153.127Z" fill="white"/>
</g>
</g>
<mask id="mask8_144_1345" style="mask-type:luminance" maskUnits="userSpaceOnUse" x="244" y="0" width="36" height="33">
<path d="M244.741 0H279.32V32.5359H244.741V0Z" fill="white"/>
</mask>
<g mask="url(#mask8_144_1345)">
<mask id="mask9_144_1345" style="mask-type:luminance" maskUnits="userSpaceOnUse" x="246" y="0" width="33" height="32">
<path d="M278.079 15.5926C278.079 16.6225 277.978 17.6356 277.775 18.6402C277.572 19.6448 277.277 20.6157 276.889 21.5696C276.492 22.5151 276.011 23.41 275.445 24.2627C274.871 25.1153 274.229 25.9004 273.503 26.6264C272.777 27.3525 271.984 27.9941 271.131 28.5681C270.278 29.1338 269.384 29.615 268.43 30.0117C267.484 30.4001 266.513 30.6956 265.5 30.8982C264.496 31.0923 263.483 31.1936 262.461 31.1936C261.431 31.1936 260.418 31.0923 259.413 30.8982C258.4 30.6956 257.43 30.4001 256.484 30.0117C255.53 29.615 254.635 29.1338 253.783 28.5681C252.93 27.9941 252.136 27.3525 251.41 26.6264C250.684 25.9004 250.043 25.1153 249.469 24.2627C248.903 23.41 248.422 22.5151 248.025 21.5696C247.637 20.6157 247.341 19.6448 247.139 18.6402C246.936 17.6356 246.835 16.6225 246.835 15.5926C246.835 14.5711 246.936 13.558 247.139 12.5534C247.341 11.5488 247.637 10.5695 248.025 9.62402C248.422 8.6785 248.903 7.78363 249.469 6.93098C250.043 6.07833 250.684 5.29321 251.41 4.56719C252.136 3.84116 252.93 3.19112 253.783 2.6255C254.635 2.05988 255.53 1.57867 256.484 1.1819C257.43 0.793558 258.4 0.498085 259.413 0.295474C260.418 0.0928633 261.431 0 262.461 0C263.483 0 264.496 0.0928633 265.5 0.295474C266.513 0.498085 267.484 0.793558 268.43 1.1819C269.384 1.57867 270.278 2.05988 271.131 2.6255C271.984 3.19112 272.777 3.84116 273.503 4.56719C274.229 5.29321 274.871 6.07833 275.445 6.93098C276.011 7.78363 276.492 8.6785 276.889 9.62402C277.277 10.5695 277.572 11.5488 277.775 12.5534C277.978 13.558 278.079 14.5711 278.079 15.5926Z" fill="white"/>
</mask>
<g mask="url(#mask9_144_1345)">
<path d="M246.835 0V31.1936H278.079V0H246.835Z" fill="white"/>
</g>
</g>
<path d="M14.2165 312.372C14.7315 312.372 15.027 312.094 15.027 311.562V288.945H21.1222C21.654 288.945 21.9326 288.667 21.9326 288.135V282.884C21.9326 282.352 21.654 282.082 21.1222 282.082H0.810444C0.270148 282.082 0 282.352 0 282.884V288.135C0 288.667 0.270148 288.945 0.810444 288.945H6.89721V311.562C6.89721 312.094 7.20113 312.372 7.70766 312.372H14.2165Z" fill="white"/>
<path d="M44.1739 282.082C43.566 280.832 42.6036 280.832 41.9874 282.082L28.1001 311.41C27.8468 311.975 28.1001 312.372 28.6995 312.372H35.8162C36.2467 312.372 36.5844 312.136 36.7448 311.722L37.7325 309.181H48.4372L49.4249 311.722C49.5853 312.136 49.9145 312.372 50.3535 312.372H57.4702C58.0612 312.372 58.3229 311.975 58.0612 311.41L44.1739 282.082ZM43.0933 295.513L46.0734 303.12H40.0963L43.0933 295.513Z" fill="white"/>
<path d="M83.6169 312.372C84.1488 312.372 84.4274 312.094 84.4274 311.562V306.319C84.4274 305.787 84.1488 305.509 83.6169 305.509H74.491V282.884C74.491 282.352 74.2124 282.082 73.6806 282.082H67.2308C66.6989 282.082 66.4203 282.352 66.4203 282.884V311.562C66.4203 312.094 66.6989 312.372 67.2308 312.372H83.6169Z" fill="white"/>
<path d="M112.65 312.372C113.182 312.372 113.461 312.094 113.461 311.562V306.319C113.461 305.787 113.182 305.509 112.65 305.509H101.059V301.955H111.072C111.612 301.955 111.882 301.659 111.882 301.153V296.298C111.882 295.766 111.612 295.488 111.072 295.488H101.059V288.945H112.65C113.182 288.945 113.461 288.667 113.461 288.135V282.884C113.461 282.352 113.182 282.082 112.65 282.082H93.799C93.2671 282.082 92.9885 282.352 92.9885 282.884V311.562C92.9885 312.094 93.2671 312.372 93.799 312.372H112.65Z" fill="white"/>
<path d="M130.503 312.372C131.035 312.372 131.313 312.093 131.313 311.561V297.109L148.071 312.372C149.337 313.537 150.241 313.022 150.241 311.646V282.884C150.241 282.352 149.971 282.082 149.439 282.082H143.259C142.727 282.082 142.457 282.352 142.457 282.884V296.83L125.488 281.879C124.366 280.891 123.521 281.389 123.521 282.765V311.561C123.521 312.093 123.792 312.372 124.332 312.372H130.503Z" fill="white"/>
<path d="M173.017 312.372C173.532 312.372 173.828 312.094 173.828 311.562V288.945H179.923C180.455 288.945 180.733 288.667 180.733 288.135V282.884C180.733 282.352 180.455 282.082 179.923 282.082H159.611C159.071 282.082 158.801 282.352 158.801 282.884V288.135C158.801 288.667 159.071 288.945 159.611 288.945H165.698V311.562C165.698 312.094 166.002 312.372 166.508 312.372H173.017Z" fill="white"/>
<path d="M204.46 313.183C210.276 313.183 214.953 310.988 217.815 307.366C218.111 307.011 217.992 306.674 217.537 306.353L212.21 302.807C211.796 302.512 211.441 302.588 211.129 303.001C209.626 304.816 207.322 305.905 204.46 305.905C199.454 305.905 196.136 302.588 196.136 297.227C196.136 291.858 199.454 288.548 204.46 288.548C207.322 288.548 209.626 289.629 211.129 291.444C211.441 291.858 211.796 291.942 212.21 291.647L217.537 288.093C217.992 287.78 218.068 287.4 217.731 287.012C214.835 283.416 210.183 281.271 204.46 281.271C194.599 281.271 188.048 287.485 188.048 297.227C188.048 306.969 194.599 313.183 204.46 313.183Z" fill="white"/>
<path d="M242.165 313.183C252.042 313.183 258.636 306.969 258.636 297.227C258.636 287.485 252.042 281.271 242.165 281.271C232.305 281.271 225.754 287.485 225.754 297.227C225.754 306.969 232.305 313.183 242.165 313.183ZM242.165 305.905C237.159 305.905 233.841 302.588 233.841 297.227C233.841 291.858 237.159 288.548 242.165 288.548C247.214 288.548 250.565 291.858 250.565 297.227C250.565 302.588 247.214 305.905 242.165 305.905Z" fill="white"/>
<path d="M275.176 312.372C275.708 312.372 275.987 312.093 275.987 311.561V297.109L292.744 312.372C294.01 313.537 294.914 313.022 294.914 311.646V282.884C294.914 282.352 294.644 282.082 294.112 282.082H287.932C287.4 282.082 287.13 282.352 287.13 282.884V296.83L270.161 281.879C269.039 280.891 268.194 281.389 268.194 282.765V311.561C268.194 312.093 268.465 312.372 269.005 312.372H275.176Z" fill="white"/>
<path d="M312.684 312.372C313.216 312.372 313.495 312.093 313.495 311.561V297.109L330.252 312.372C331.519 313.537 332.422 313.022 332.422 311.646V282.884C332.422 282.352 332.152 282.082 331.62 282.082H325.44C324.908 282.082 324.638 282.352 324.638 282.884V296.83L307.67 281.879C306.547 280.891 305.703 281.389 305.703 282.765V311.561C305.703 312.093 305.973 312.372 306.513 312.372H312.684Z" fill="white"/>
<path d="M362.83 312.372C363.362 312.372 363.641 312.094 363.641 311.562V306.319C363.641 305.787 363.362 305.509 362.83 305.509H351.239V301.955H361.252C361.792 301.955 362.062 301.659 362.062 301.153V296.298C362.062 295.766 361.792 295.488 361.252 295.488H351.239V288.945H362.83C363.362 288.945 363.641 288.667 363.641 288.135V282.884C363.641 282.352 363.362 282.082 362.83 282.082H343.979C343.447 282.082 343.169 282.352 343.169 282.884V311.562C343.169 312.094 343.447 312.372 343.979 312.372H362.83Z" fill="white"/>
<path d="M388.847 313.183C394.663 313.183 399.34 310.988 402.202 307.366C402.498 307.011 402.379 306.674 401.924 306.353L396.597 302.807C396.183 302.512 395.828 302.588 395.516 303.001C394.013 304.816 391.709 305.905 388.847 305.905C383.84 305.905 380.523 302.588 380.523 297.227C380.523 291.858 383.84 288.548 388.847 288.548C391.709 288.548 394.013 289.629 395.516 291.444C395.828 291.858 396.183 291.942 396.597 291.647L401.924 288.093C402.379 287.78 402.455 287.4 402.118 287.012C399.222 283.416 394.57 281.271 388.847 281.271C378.986 281.271 372.435 287.485 372.435 297.227C372.435 306.969 378.986 313.183 388.847 313.183Z" fill="white"/>
<path d="M423.395 312.372C423.91 312.372 424.205 312.094 424.205 311.562V288.945H430.3C430.832 288.945 431.111 288.667 431.111 288.135V282.884C431.111 282.352 430.832 282.082 430.3 282.082H409.989C409.448 282.082 409.178 282.352 409.178 282.884V288.135C409.178 288.667 409.448 288.945 409.989 288.945H416.075V311.562C416.075 312.094 416.379 312.372 416.886 312.372H423.395Z" fill="white"/>
</svg>
