<svg width="268" height="56" viewBox="0 0 268 56" fill="none" xmlns="http://www.w3.org/2000/svg">
<path d="M33.6667 25.3333L30.6667 28.6667M30.6667 28.6667L33.6667 32M30.6667 28.6667H42.6667" stroke="#9E9E9E" stroke-width="1.3" stroke-linecap="round"/>
<path d="M37.3333 24.6222V24C37.3333 22.1144 37.3333 21.1716 37.919 20.5858C38.5048 20 39.4476 20 41.3333 20H43.9999C45.8855 20 46.8283 20 47.4141 20.5858C47.9999 21.1716 47.9999 22.1144 47.9999 24V33.3333C47.9999 35.219 47.9999 36.1618 47.4141 36.7475C46.8283 37.3333 45.8855 37.3333 43.9999 37.3333H41.3333C39.4476 37.3333 38.5048 37.3333 37.919 36.7475C37.3333 36.1618 37.3333 35.219 37.3333 33.3333V32.7873" stroke="#9E9E9E" stroke-width="1.3"/>
<path d="M69.2784 34V22.3636H71.0341V32.4886H76.3068V34H69.2784ZM81.6734 34.1761C80.8553 34.1761 80.1412 33.9886 79.5314 33.6136C78.9215 33.2386 78.4481 32.714 78.1109 32.0398C77.7738 31.3655 77.6053 30.5777 77.6053 29.6761C77.6053 28.7708 77.7738 27.9792 78.1109 27.3011C78.4481 26.6231 78.9215 26.0966 79.5314 25.7216C80.1412 25.3466 80.8553 25.1591 81.6734 25.1591C82.4916 25.1591 83.2056 25.3466 83.8155 25.7216C84.4253 26.0966 84.8988 26.6231 85.2359 27.3011C85.5731 27.9792 85.7416 28.7708 85.7416 29.6761C85.7416 30.5777 85.5731 31.3655 85.2359 32.0398C84.8988 32.714 84.4253 33.2386 83.8155 33.6136C83.2056 33.9886 82.4916 34.1761 81.6734 34.1761ZM81.6791 32.75C82.2094 32.75 82.6488 32.6098 82.9973 32.3295C83.3458 32.0492 83.6034 31.6761 83.77 31.2102C83.9405 30.7443 84.0257 30.2311 84.0257 29.6705C84.0257 29.1136 83.9405 28.6023 83.77 28.1364C83.6034 27.6667 83.3458 27.2898 82.9973 27.0057C82.6488 26.7216 82.2094 26.5795 81.6791 26.5795C81.145 26.5795 80.7018 26.7216 80.3496 27.0057C80.0011 27.2898 79.7416 27.6667 79.5712 28.1364C79.4045 28.6023 79.3212 29.1136 79.3212 29.6705C79.3212 30.2311 79.4045 30.7443 79.5712 31.2102C79.7416 31.6761 80.0011 32.0492 80.3496 32.3295C80.7018 32.6098 81.145 32.75 81.6791 32.75ZM91.121 37.4545C90.4278 37.4545 89.8312 37.3636 89.3312 37.1818C88.835 37 88.4297 36.7595 88.1153 36.4602C87.8009 36.161 87.5661 35.8333 87.4108 35.4773L88.871 34.875C88.9733 35.0417 89.1096 35.2178 89.2801 35.4034C89.4543 35.5928 89.6892 35.7538 89.9846 35.8864C90.2839 36.0189 90.6684 36.0852 91.1381 36.0852C91.782 36.0852 92.3142 35.928 92.7346 35.6136C93.1551 35.303 93.3653 34.8068 93.3653 34.125V32.4091H93.2574C93.1551 32.5947 93.0074 32.8011 92.8142 33.0284C92.6248 33.2557 92.3634 33.4527 92.0301 33.6193C91.6968 33.786 91.2631 33.8693 90.729 33.8693C90.0396 33.8693 89.4184 33.7083 88.8653 33.3864C88.3161 33.0606 87.8805 32.5814 87.5585 31.9489C87.2403 31.3125 87.0812 30.5303 87.0812 29.6023C87.0812 28.6742 87.2384 27.8788 87.5528 27.2159C87.871 26.553 88.3066 26.0455 88.8596 25.6932C89.4127 25.3371 90.0396 25.1591 90.7403 25.1591C91.282 25.1591 91.7195 25.25 92.0528 25.4318C92.3862 25.6098 92.6456 25.8182 92.8312 26.0568C93.0206 26.2955 93.1665 26.5057 93.2687 26.6875H93.3937V25.2727H95.0585V34.1932C95.0585 34.9432 94.8843 35.5587 94.5358 36.0398C94.1873 36.5208 93.7157 36.8769 93.121 37.108C92.5301 37.339 91.8634 37.4545 91.121 37.4545ZM91.104 32.4602C91.5926 32.4602 92.0055 32.3466 92.3426 32.1193C92.6835 31.8883 92.9411 31.5587 93.1153 31.1307C93.2934 30.6989 93.3824 30.1818 93.3824 29.5795C93.3824 28.9924 93.2953 28.4754 93.121 28.0284C92.9468 27.5814 92.6911 27.233 92.354 26.983C92.0168 26.7292 91.6002 26.6023 91.104 26.6023C90.5926 26.6023 90.1665 26.7348 89.8256 27C89.4846 27.2614 89.2271 27.6174 89.0528 28.0682C88.8824 28.5189 88.7971 29.0227 88.7971 29.5795C88.7971 30.1515 88.8843 30.6534 89.0585 31.0852C89.2328 31.517 89.4903 31.8542 89.8312 32.0966C90.1759 32.339 90.6002 32.4602 91.104 32.4602ZM100.837 34.1761C100.019 34.1761 99.3049 33.9886 98.695 33.6136C98.0852 33.2386 97.6117 32.714 97.2746 32.0398C96.9374 31.3655 96.7689 30.5777 96.7689 29.6761C96.7689 28.7708 96.9374 27.9792 97.2746 27.3011C97.6117 26.6231 98.0852 26.0966 98.695 25.7216C99.3049 25.3466 100.019 25.1591 100.837 25.1591C101.655 25.1591 102.369 25.3466 102.979 25.7216C103.589 26.0966 104.062 26.6231 104.4 27.3011C104.737 27.9792 104.905 28.7708 104.905 29.6761C104.905 30.5777 104.737 31.3655 104.4 32.0398C104.062 32.714 103.589 33.2386 102.979 33.6136C102.369 33.9886 101.655 34.1761 100.837 34.1761ZM100.843 32.75C101.373 32.75 101.812 32.6098 102.161 32.3295C102.509 32.0492 102.767 31.6761 102.934 31.2102C103.104 30.7443 103.189 30.2311 103.189 29.6705C103.189 29.1136 103.104 28.6023 102.934 28.1364C102.767 27.6667 102.509 27.2898 102.161 27.0057C101.812 26.7216 101.373 26.5795 100.843 26.5795C100.309 26.5795 99.8655 26.7216 99.5132 27.0057C99.1647 27.2898 98.9052 27.6667 98.7348 28.1364C98.5681 28.6023 98.4848 29.1136 98.4848 29.6705C98.4848 30.2311 98.5681 30.7443 98.7348 31.2102C98.9052 31.6761 99.1647 32.0492 99.5132 32.3295C99.8655 32.6098 100.309 32.75 100.843 32.75ZM112.154 30.3807V25.2727H113.859V34H112.188V32.4886H112.097C111.896 32.9545 111.574 33.3428 111.131 33.6534C110.692 33.9602 110.144 34.1136 109.489 34.1136C108.929 34.1136 108.432 33.9905 108.001 33.7443C107.573 33.4943 107.235 33.125 106.989 32.6364C106.747 32.1477 106.626 31.5436 106.626 30.8239V25.2727H108.324V30.6193C108.324 31.214 108.489 31.6875 108.819 32.0398C109.148 32.392 109.576 32.5682 110.103 32.5682C110.421 32.5682 110.737 32.4886 111.052 32.3295C111.37 32.1705 111.633 31.9299 111.841 31.608C112.054 31.286 112.158 30.8769 112.154 30.3807ZM120.039 25.2727V26.6364H115.272V25.2727H120.039ZM116.55 23.1818H118.249V31.4375C118.249 31.767 118.299 32.0152 118.397 32.1818C118.495 32.3447 118.622 32.4564 118.778 32.517C118.937 32.5739 119.109 32.6023 119.295 32.6023C119.431 32.6023 119.55 32.5928 119.653 32.5739C119.755 32.5549 119.834 32.5398 119.891 32.5284L120.198 33.9318C120.1 33.9697 119.959 34.0076 119.778 34.0455C119.596 34.0871 119.369 34.1098 119.096 34.1136C118.649 34.1212 118.232 34.0417 117.846 33.875C117.459 33.7083 117.147 33.4508 116.908 33.1023C116.67 32.7538 116.55 32.3163 116.55 31.7898V23.1818Z" fill="#9E9E9E"/>
</svg>
