<svg width="268" height="56" viewBox="0 0 268 56" fill="none" xmlns="http://www.w3.org/2000/svg">
<path d="M42.2787 18.7855H41.7787V18.8104L41.7812 18.8352L42.2787 18.7855ZM42.2787 18.7854H42.7787V18.7605L42.7762 18.7357L42.2787 18.7854ZM42.6628 20.5116L42.3005 20.8562V20.8562L42.6628 20.5116ZM43.4124 20.8221L43.3999 20.3222L43.4124 20.8221ZM44.9046 19.8731L44.5879 19.4861L44.9046 19.8731ZM45.734 19.3235L45.8505 19.8097L45.8505 19.8097L45.734 19.3235ZM46.2955 19.3515L46.4597 18.8792L46.4597 18.8792L46.2955 19.3515ZM47.0661 19.9809L46.7125 20.3345V20.3345L47.0661 19.9809ZM48.0191 20.934L48.3727 20.5804V20.5804L48.0191 20.934ZM48.6486 21.7046L48.1763 21.8689L48.1763 21.8689L48.6486 21.7046ZM48.6766 22.266L48.1903 22.1496V22.1496L48.6766 22.266ZM48.1269 23.0955L47.7399 22.7789V22.7789L48.1269 23.0955ZM47.178 24.5877L46.6781 24.5752L47.178 24.5877ZM47.4884 25.3372L47.833 24.975L47.4884 25.3372ZM49.2146 25.7214L49.1649 26.2189L49.2146 25.7214ZM50.1898 25.9192L50.4513 25.4931L50.1898 25.9192ZM50.567 26.336L50.1169 26.5538L50.567 26.336ZM50.567 29.6637L51.0171 29.8815V29.8815L50.567 29.6637ZM50.1897 30.0807L49.9283 29.6545L49.9283 29.6545L50.1897 30.0807ZM49.2147 30.2785L49.1649 29.7809L49.2147 30.2785ZM47.489 30.6624L47.8335 31.0248L47.8335 31.0248L47.489 30.6624ZM47.1784 31.4123L46.6785 31.425V31.425L47.1784 31.4123ZM48.1271 32.904L48.5175 32.5916L48.514 32.5874L48.1271 32.904ZM48.1271 32.904L47.7366 33.2164L47.7401 33.2206L48.1271 32.904ZM48.6766 33.7332L49.1628 33.6166L48.6766 33.7332ZM48.6486 34.2949L49.1208 34.4592L49.1208 34.4592L48.6486 34.2949ZM48.0193 35.0652L48.3729 35.4188V35.4188L48.0193 35.0652ZM48.0193 35.0653L48.3728 35.4188L48.0193 35.0653ZM47.0661 36.0184L46.7126 35.6649V35.6649L47.0661 36.0184ZM46.2955 36.6479L46.1312 36.1756H46.1312L46.2955 36.6479ZM45.734 36.6759L45.6176 37.1621H45.6176L45.734 36.6759ZM44.9046 36.1262L44.588 36.5132L44.9046 36.1262ZM43.4125 35.1773L43.4 35.6771H43.4L43.4125 35.1773ZM42.6629 35.4878L42.3006 35.1432L42.3006 35.1432L42.6629 35.4878ZM42.2787 37.2141L42.7763 37.2639L42.2787 37.2141ZM42.0808 38.1897L42.5069 38.4512L42.0808 38.1897ZM41.6642 38.5667L41.4463 38.1166L41.4463 38.1166L41.6642 38.5667ZM38.3363 38.5667L38.1185 39.0168H38.1185L38.3363 38.5667ZM37.9195 38.1896L37.4933 38.451L37.4933 38.451L37.9195 38.1896ZM37.7216 37.2144L38.2191 37.1646L37.7216 37.2144ZM37.3375 35.4882L36.9752 35.8328L36.9752 35.8328L37.3375 35.4882ZM36.5879 35.1777L36.5754 34.6779H36.5754L36.5879 35.1777ZM35.0957 36.1267L35.4123 36.5137L35.0957 36.1267ZM34.2662 36.6764L34.1498 36.1901H34.1498L34.2662 36.6764ZM33.7048 36.6484L33.8691 36.1761H33.8691L33.7048 36.6484ZM32.9341 36.0189L33.2877 35.6653H33.2877L32.9341 36.0189ZM31.9811 35.0659L31.6276 35.4194H31.6276L31.9811 35.0659ZM31.3517 34.2952L31.8239 34.131L31.3517 34.2952ZM31.3237 33.7338L30.8374 33.6174L30.8374 33.6174L31.3237 33.7338ZM31.8733 32.9043L32.2603 33.221L32.267 33.2128L32.2733 33.2043L31.8733 32.9043ZM31.8733 32.9043L31.4864 32.5877L31.4797 32.5959L31.4733 32.6043L31.8733 32.9043ZM32.8223 31.4122L32.3225 31.3997L32.8223 31.4122ZM32.5118 30.6626L32.1672 31.0249L32.1672 31.0249L32.5118 30.6626ZM30.7857 30.2785L30.8355 29.781L30.8106 29.7785H30.7857V30.2785ZM30.7857 30.2785L30.7359 30.776L30.7608 30.7785H30.7857V30.2785ZM29.8105 30.0806L30.072 29.6544L30.072 29.6544L29.8105 30.0806ZM29.4333 29.6638L28.9832 29.8816L28.9833 29.8816L29.4333 29.6638ZM29.4334 26.3359L28.9833 26.1181L28.9833 26.1181L29.4334 26.3359ZM29.8104 25.9193L29.5489 25.4931L29.5489 25.4931L29.8104 25.9193ZM30.7858 25.7214L30.7361 25.2238H30.7361L30.7858 25.7214ZM32.5123 25.3371L32.857 25.6993L32.857 25.6993L32.5123 25.3371ZM32.8227 24.5878L33.3226 24.5754V24.5754L32.8227 24.5878ZM31.8735 23.0952L32.2605 22.7786L31.8735 23.0952ZM31.3237 22.2654L31.81 22.149H31.81L31.3237 22.2654ZM31.3517 21.7043L31.824 21.8685L31.3517 21.7043ZM31.9813 20.9333L31.6278 20.5798V20.5798L31.9813 20.9333ZM32.9342 19.9805L33.2877 20.334L33.2877 20.334L32.9342 19.9805ZM33.7049 19.351L33.5406 18.8788L33.5406 18.8788L33.7049 19.351ZM34.2663 19.323L34.3827 18.8368L34.2663 19.323ZM35.0958 19.8727L34.7792 20.2597L35.0958 19.8727ZM36.5878 20.8216L36.5752 21.3215L36.5878 20.8216ZM37.3377 20.511L36.9753 20.1665L36.9753 20.1665L37.3377 20.511ZM37.7216 18.7853L38.2191 18.8351L38.2216 18.8103V18.7853H37.7216ZM37.7216 18.7853L37.2241 18.7356L37.2216 18.7604V18.7853H37.7216ZM37.9194 17.8104L37.4932 17.549L37.4932 17.549L37.9194 17.8104ZM38.3364 17.433L38.5541 17.8831V17.8831L38.3364 17.433ZM41.6641 17.4331L41.8818 16.983V16.983L41.6641 17.4331ZM42.0809 17.8103L42.507 17.5488V17.5488L42.0809 17.8103ZM42.7787 18.7855V18.7854H41.7787V18.7855H42.7787ZM43.0251 20.167C43.0086 20.1497 42.9594 20.0827 42.9098 19.8289C42.8612 19.58 42.8265 19.2383 42.7762 18.7357L41.7812 18.8352C41.8294 19.3177 41.8686 19.7149 41.9284 20.0206C41.9871 20.3215 42.0807 20.625 42.3005 20.8562L43.0251 20.167ZM43.3999 20.3222C43.2587 20.3258 43.1225 20.2694 43.0251 20.167L42.3005 20.8562C42.5927 21.1633 43.0012 21.3325 43.4249 21.3219L43.3999 20.3222ZM44.5879 19.4861C44.197 19.806 43.9309 20.0231 43.7205 20.1647C43.506 20.3091 43.4238 20.3216 43.3999 20.3222L43.4249 21.3219C43.7439 21.3139 44.0246 21.1654 44.2789 20.9942C44.5374 20.8203 44.8459 20.5671 45.2212 20.2601L44.5879 19.4861ZM45.6175 18.8372C45.4215 18.8842 45.2569 18.9763 45.1025 19.0833C44.9533 19.1867 44.7839 19.3258 44.5879 19.4861L45.2212 20.2601C45.4295 20.0896 45.5634 19.9806 45.6722 19.9052C45.7757 19.8334 45.8235 19.8162 45.8505 19.8097L45.6175 18.8372ZM46.4597 18.8792C46.1888 18.785 45.8965 18.7704 45.6175 18.8372L45.8505 19.8097C45.9434 19.7875 46.0409 19.7923 46.1312 19.8237L46.4597 18.8792ZM47.4196 19.6274C47.2406 19.4483 47.0858 19.2931 46.9477 19.1754C46.8048 19.0535 46.6501 18.9455 46.4597 18.8792L46.1312 19.8237C46.1573 19.8328 46.2032 19.8548 46.2991 19.9365C46.3998 20.0223 46.5222 20.1441 46.7125 20.3345L47.4196 19.6274ZM48.3727 20.5804L47.4196 19.6274L46.7125 20.3345L47.6656 21.2875L48.3727 20.5804ZM49.1208 21.5403C49.0546 21.35 48.9465 21.1953 48.8247 21.0523C48.707 20.9142 48.5517 20.7595 48.3727 20.5804L47.6656 21.2875C47.8559 21.4779 47.9777 21.6002 48.0636 21.7009C48.1453 21.7968 48.1672 21.8427 48.1763 21.8689L49.1208 21.5403ZM49.1628 22.3825C49.2296 22.1035 49.215 21.8113 49.1208 21.5403L48.1763 21.8689C48.2077 21.9592 48.2126 22.0566 48.1903 22.1496L49.1628 22.3825ZM48.5139 23.4121C48.6743 23.2161 48.8133 23.0467 48.9167 22.8976C49.0237 22.7432 49.1159 22.5785 49.1628 22.3825L48.1903 22.1496C48.1839 22.1765 48.1666 22.2244 48.0948 22.3279C48.0195 22.4367 47.9104 22.5705 47.7399 22.7789L48.5139 23.4121ZM47.6778 24.6002C47.6784 24.5763 47.6909 24.4941 47.8353 24.2796C47.977 24.0692 48.194 23.8031 48.5139 23.4121L47.7399 22.7789C47.4329 23.1541 47.1798 23.4627 47.0058 23.7211C46.8346 23.9754 46.6861 24.2562 46.6781 24.5752L47.6778 24.6002ZM47.833 24.975C47.7307 24.8776 47.6743 24.7414 47.6778 24.6002L46.6781 24.5752C46.6675 24.9989 46.8367 25.4074 47.1438 25.6995L47.833 24.975ZM49.2644 25.2238C48.7617 25.1736 48.4201 25.1389 48.1711 25.0903C47.9173 25.0407 47.8503 24.9914 47.833 24.975L47.1438 25.6995C47.375 25.9194 47.6786 26.013 47.9794 26.0717C48.2852 26.1314 48.6824 26.1706 49.1649 26.2189L49.2644 25.2238ZM50.4513 25.4931C50.2795 25.3876 50.0979 25.3363 49.9131 25.3028C49.7345 25.2705 49.5163 25.249 49.2644 25.2238L49.1649 26.2189C49.4327 26.2457 49.6045 26.2632 49.7347 26.2868C49.8587 26.3093 49.9047 26.3309 49.9283 26.3454L50.4513 25.4931ZM51.0171 26.1182C50.8921 25.86 50.6958 25.6431 50.4513 25.4931L49.9283 26.3454C50.0098 26.3954 50.0753 26.4677 50.1169 26.5538L51.0171 26.1182ZM51.1668 27.326C51.1668 27.0728 51.1672 26.8536 51.1528 26.6727C51.1378 26.4855 51.1049 26.2997 51.0171 26.1182L50.1169 26.5538C50.129 26.5787 50.1459 26.6267 50.1559 26.7522C50.1665 26.8842 50.1668 27.0568 50.1668 27.326H51.1668ZM51.1668 28.6739V27.326H50.1668V28.6739H51.1668ZM51.0171 29.8815C51.1049 29.7001 51.1378 29.5143 51.1528 29.3271C51.1672 29.1463 51.1668 28.9271 51.1668 28.6739H50.1668C50.1668 28.9431 50.1665 29.1157 50.1559 29.2476C50.1459 29.3731 50.129 29.4211 50.1169 29.446L51.0171 29.8815ZM50.4511 30.5069C50.6957 30.3568 50.8922 30.1398 51.0171 29.8815L50.1169 29.446C50.0753 29.5321 50.0098 29.6045 49.9283 29.6545L50.4511 30.5069ZM49.2645 30.776C49.5164 30.7508 49.7345 30.7294 49.913 30.697C50.0978 30.6635 50.2794 30.6122 50.4512 30.5069L49.9283 29.6545C49.9047 29.6689 49.8586 29.6906 49.7347 29.713C49.6045 29.7366 49.4328 29.7542 49.1649 29.7809L49.2645 30.776ZM47.8335 31.0248C47.8508 31.0083 47.9178 30.9591 48.1715 30.9095C48.4204 30.8609 48.7619 30.8262 49.2645 30.776L49.1649 29.7809C48.6826 29.8292 48.2855 29.8684 47.9799 29.9281C47.6791 29.9868 47.3756 30.0803 47.1445 30.3L47.8335 31.0248ZM47.6782 31.3997C47.6746 31.2584 47.7311 31.1222 47.8335 31.0248L47.1445 30.3C46.8371 30.5923 46.6678 31.001 46.6785 31.425L47.6782 31.3997ZM48.514 32.5874C48.1943 32.1965 47.9773 31.9305 47.8357 31.7202C47.6913 31.5058 47.6788 31.4236 47.6782 31.3997L46.6785 31.425C46.6866 31.7438 46.835 32.0245 47.0062 32.2787C47.1801 32.537 47.4332 32.8455 47.7401 33.2206L48.514 32.5874ZM48.5175 32.5917L48.5175 32.5917L47.7366 33.2163L47.7366 33.2164L48.5175 32.5917ZM49.1628 33.6166C49.1158 33.4207 49.0237 33.2561 48.9167 33.1018C48.8134 32.9527 48.6744 32.7833 48.5141 32.5874L47.7401 33.2206C47.9105 33.4289 48.0195 33.5627 48.0949 33.6715C48.1666 33.775 48.1839 33.8228 48.1903 33.8497L49.1628 33.6166ZM49.1208 34.4592C49.2151 34.1882 49.2297 33.8957 49.1628 33.6166L48.1903 33.8497C48.2126 33.9427 48.2078 34.0402 48.1763 34.1306L49.1208 34.4592ZM48.3729 35.4188C48.5519 35.2398 48.7071 35.0851 48.8247 34.9471C48.9465 34.8042 49.0546 34.6495 49.1208 34.4592L48.1763 34.1306C48.1672 34.1567 48.1453 34.2026 48.0636 34.2984C47.9778 34.3991 47.856 34.5214 47.6658 34.7117L48.3729 35.4188ZM48.3728 35.4188L48.3729 35.4188L47.6658 34.7117L47.6657 34.7117L48.3728 35.4188ZM47.4197 36.372L48.3728 35.4188L47.6657 34.7117L46.7126 35.6649L47.4197 36.372ZM46.4598 37.1201C46.6501 37.0539 46.8048 36.9458 46.9478 36.824C47.0859 36.7063 47.2406 36.551 47.4197 36.372L46.7126 35.6649C46.5222 35.8552 46.3999 35.9771 46.2991 36.0629C46.2033 36.1446 46.1574 36.1665 46.1312 36.1756L46.4598 37.1201ZM45.6176 37.1621C45.8965 37.2289 46.1888 37.2144 46.4598 37.1201L46.1312 36.1756C46.0409 36.207 45.9435 36.2119 45.8505 36.1896L45.6176 37.1621ZM44.588 36.5132C44.784 36.6736 44.9534 36.8127 45.1025 36.916C45.2569 37.023 45.4216 37.1152 45.6176 37.1621L45.8505 36.1896C45.8236 36.1832 45.7757 36.1659 45.6722 36.0942C45.5634 36.0188 45.4296 35.9097 45.2212 35.7393L44.588 36.5132ZM43.4 35.6771C43.4238 35.6777 43.506 35.6903 43.7205 35.8347C43.9309 35.9763 44.197 36.1933 44.588 36.5132L45.2212 35.7393C44.846 35.4322 44.5374 35.1791 44.279 35.0051C44.0247 34.8339 43.7439 34.6854 43.425 34.6775L43.4 35.6771ZM43.0252 35.8324C43.1225 35.73 43.2587 35.6736 43.4 35.6771L43.425 34.6775C43.0012 34.6668 42.5927 34.836 42.3006 35.1432L43.0252 35.8324ZM42.7763 37.2639C42.8265 36.7612 42.8612 36.4195 42.9099 36.1705C42.9594 35.9167 43.0087 35.8497 43.0252 35.8324L42.3006 35.1432C42.0807 35.3744 41.9872 35.6779 41.9284 35.9788C41.8687 36.2846 41.8295 36.6818 41.7812 37.1644L42.7763 37.2639ZM42.5069 38.4512C42.6124 38.2794 42.6637 38.0977 42.6972 37.9128C42.7296 37.7342 42.7511 37.516 42.7763 37.2639L41.7812 37.1644C41.7544 37.4324 41.7369 37.6042 41.7133 37.7345C41.6908 37.8585 41.6691 37.9045 41.6547 37.9281L42.5069 38.4512ZM41.882 39.0167C42.1401 38.8918 42.357 38.6956 42.5069 38.4512L41.6547 37.9281C41.6047 38.0096 41.5324 38.075 41.4463 38.1166L41.882 39.0167ZM40.6739 39.1666C40.9272 39.1666 41.1465 39.167 41.3274 39.1525C41.5147 39.1376 41.7005 39.1046 41.882 39.0167L41.4463 38.1166C41.4214 38.1287 41.3734 38.1457 41.2478 38.1557C41.1159 38.1662 40.9432 38.1666 40.6739 38.1666V39.1666ZM39.3263 39.1666H40.6739V38.1666H39.3263V39.1666ZM38.1185 39.0168C38.2999 39.1046 38.4857 39.1376 38.673 39.1525C38.8538 39.167 39.073 39.1666 39.3263 39.1666V38.1666C39.0571 38.1666 38.8844 38.1662 38.7525 38.1557C38.6269 38.1457 38.5789 38.1287 38.554 38.1167L38.1185 39.0168ZM37.4933 38.451C37.6433 38.6955 37.8603 38.8919 38.1185 39.0168L38.554 38.1167C38.468 38.075 38.3956 38.0096 38.3456 37.9281L37.4933 38.451ZM37.2241 37.2641C37.2493 37.5161 37.2707 37.7343 37.3031 37.9128C37.3366 38.0976 37.3879 38.2793 37.4933 38.451L38.3456 37.9281C38.3312 37.9045 38.3095 37.8584 38.2871 37.7345C38.2635 37.6043 38.2459 37.4325 38.2191 37.1646L37.2241 37.2641ZM36.9752 35.8328C36.9917 35.8501 37.0409 35.9171 37.0905 36.1709C37.1391 36.4198 37.1738 36.7615 37.2241 37.2641L38.2191 37.1646C38.1709 36.6821 38.1317 36.2849 38.072 35.9792C38.0132 35.6783 37.9197 35.3748 37.6998 35.1436L36.9752 35.8328ZM36.6004 35.6776C36.7417 35.674 36.8778 35.7304 36.9752 35.8328L37.6998 35.1436C37.4076 34.8365 36.9992 34.6673 36.5754 34.6779L36.6004 35.6776ZM35.4123 36.5137C35.8033 36.1938 36.0694 35.9767 36.2798 35.8351C36.4944 35.6907 36.5765 35.6782 36.6004 35.6776L36.5754 34.6779C36.2565 34.6858 35.9757 34.8344 35.7214 35.0055C35.463 35.1795 35.1544 35.4327 34.7791 35.7397L35.4123 36.5137ZM34.3827 37.1626C34.5787 37.1157 34.7434 37.0235 34.8978 36.9165C35.0469 36.8131 35.2163 36.674 35.4123 36.5137L34.7791 35.7397C34.5707 35.9102 34.4369 36.0192 34.3281 36.0946C34.2246 36.1664 34.1767 36.1837 34.1498 36.1901L34.3827 37.1626ZM33.5406 37.1206C33.8115 37.2148 34.1037 37.2294 34.3827 37.1626L34.1498 36.1901C34.0568 36.2124 33.9594 36.2075 33.8691 36.1761L33.5406 37.1206ZM32.5806 36.3724C32.7597 36.5515 32.9144 36.7068 33.0525 36.8245C33.1955 36.9463 33.3502 37.0544 33.5406 37.1206L33.8691 36.1761C33.8429 36.167 33.797 36.1451 33.7011 36.0634C33.6004 35.9775 33.4781 35.8557 33.2877 35.6653L32.5806 36.3724ZM31.6276 35.4194L32.5806 36.3724L33.2877 35.6653L32.3347 34.7123L31.6276 35.4194ZM30.8794 34.4595C30.9457 34.6499 31.0537 34.8046 31.1756 34.9475C31.2933 35.0856 31.4485 35.2404 31.6276 35.4194L32.3347 34.7123C32.1443 34.522 32.0225 34.3996 31.9367 34.2989C31.855 34.203 31.833 34.1571 31.8239 34.131L30.8794 34.4595ZM30.8374 33.6174C30.7706 33.8963 30.7852 34.1886 30.8794 34.4595L31.8239 34.131C31.7925 34.0407 31.7877 33.9433 31.8099 33.8503L30.8374 33.6174ZM31.4864 32.5877C31.326 32.7837 31.1869 32.9531 31.0835 33.1023C30.9765 33.2567 30.8844 33.4213 30.8374 33.6174L31.8099 33.8503C31.8164 33.8234 31.8336 33.7755 31.9054 33.672C31.9808 33.5632 32.0898 33.4293 32.2603 33.221L31.4864 32.5877ZM31.4733 32.6043L31.4733 32.6043L32.2733 33.2043L32.2733 33.2043L31.4733 32.6043ZM32.3225 31.3997C32.3219 31.4235 32.3093 31.5057 32.1649 31.7202C32.0233 31.9306 31.8063 32.1967 31.4864 32.5877L32.2603 33.221C32.5674 32.8457 32.8205 32.5371 32.9945 32.2787C33.1657 32.0244 33.3142 31.7436 33.3221 31.4247L32.3225 31.3997ZM32.1672 31.0249C32.2696 31.1222 32.326 31.2584 32.3225 31.3997L33.3221 31.4247C33.3328 31.0009 33.1636 30.5924 32.8564 30.3003L32.1672 31.0249ZM30.736 30.776C31.2386 30.8263 31.5802 30.8609 31.8291 30.9096C32.0829 30.9591 32.1499 31.0084 32.1672 31.0249L32.8564 30.3003C32.6253 30.0804 32.3217 29.9869 32.0208 29.9281C31.7151 29.8684 31.3179 29.8292 30.8355 29.781L30.736 30.776ZM30.7857 30.7785H30.7857V29.7785H30.7857V30.7785ZM29.5491 30.5068C29.7208 30.6122 29.9024 30.6635 30.0873 30.697C30.2658 30.7294 30.484 30.7508 30.7359 30.776L30.8354 29.781C30.5676 29.7542 30.3958 29.7366 30.2656 29.713C30.1417 29.6906 30.0956 29.6689 30.072 29.6544L29.5491 30.5068ZM28.9833 29.8816C29.1082 30.1398 29.3046 30.3568 29.5491 30.5068L30.072 29.6544C29.9905 29.6044 29.9251 29.5321 29.8834 29.446L28.9833 29.8816ZM28.8335 28.6738C28.8335 28.9271 28.8331 29.1462 28.8476 29.3271C28.8625 29.5144 28.8955 29.7002 28.9832 29.8816L29.8834 29.446C29.8714 29.4211 29.8544 29.3732 29.8444 29.2476C29.8339 29.1157 29.8335 28.943 29.8335 28.6738H28.8335ZM28.8335 27.3262V28.6738H29.8335V27.3262H28.8335ZM28.9833 26.1181C28.8955 26.2996 28.8625 26.4854 28.8476 26.6727C28.8331 26.8536 28.8335 27.0729 28.8335 27.3262H29.8335C29.8335 27.0569 29.8339 26.8842 29.8444 26.7522C29.8544 26.6266 29.8714 26.5787 29.8834 26.5537L28.9833 26.1181ZM29.5489 25.4931C29.3045 25.6431 29.1082 25.86 28.9833 26.1181L29.8834 26.5537C29.9251 26.4677 29.9905 26.3954 30.072 26.3454L29.5489 25.4931ZM30.7361 25.2238C30.484 25.249 30.2658 25.2705 30.0872 25.3029C29.9024 25.3364 29.7207 25.3877 29.5489 25.4931L30.072 26.3454C30.0956 26.3309 30.1416 26.3093 30.2656 26.2868C30.3958 26.2632 30.5676 26.2457 30.8356 26.2189L30.7361 25.2238ZM32.1677 24.9749C32.1504 24.9914 32.0834 25.0406 31.8295 25.0902C31.5806 25.1389 31.2388 25.1736 30.7361 25.2238L30.8356 26.2189C31.3181 26.1706 31.7154 26.1314 32.0213 26.0717C32.3222 26.0129 32.6258 25.9193 32.857 25.6993L32.1677 24.9749ZM32.3229 24.6002C32.3264 24.7414 32.27 24.8775 32.1677 24.9749L32.857 25.6993C33.164 25.4073 33.3331 24.999 33.3226 24.5754L32.3229 24.6002ZM31.4865 23.4118C31.8065 23.8029 32.0236 24.0691 32.1653 24.2795C32.3098 24.4941 32.3223 24.5763 32.3229 24.6002L33.3226 24.5754C33.3146 24.2563 33.1661 23.9755 32.9949 23.7211C32.8208 23.4626 32.5676 23.1539 32.2605 22.7786L31.4865 23.4118ZM30.8374 22.3818C30.8844 22.5779 30.9765 22.7426 31.0836 22.8971C31.187 23.0463 31.3261 23.2157 31.4865 23.4118L32.2605 22.7786C32.09 22.5701 31.9809 22.4362 31.9055 22.3274C31.8337 22.2238 31.8164 22.176 31.81 22.149L30.8374 22.3818ZM30.8794 21.5401C30.7853 21.8109 30.7707 22.103 30.8374 22.3818L31.81 22.149C31.7877 22.0561 31.7926 21.9587 31.824 21.8685L30.8794 21.5401ZM31.6278 20.5798C31.4486 20.7589 31.2933 20.9137 31.1756 21.0519C31.0537 21.1949 30.9456 21.3496 30.8794 21.5401L31.824 21.8685C31.8331 21.8423 31.855 21.7964 31.9367 21.7005C32.0226 21.5997 32.1444 21.4773 32.3349 21.2869L31.6278 20.5798ZM32.5806 19.6269L31.6278 20.5798L32.3349 21.2869L33.2877 20.334L32.5806 19.6269ZM33.5406 18.8788C33.3502 18.945 33.1955 19.053 33.0526 19.1749C32.9145 19.2926 32.7597 19.4478 32.5806 19.6269L33.2877 20.334C33.4781 20.1437 33.6005 20.0218 33.7012 19.936C33.7971 19.8543 33.843 19.8323 33.8691 19.8233L33.5406 18.8788ZM34.3827 18.8368C34.1038 18.7699 33.8115 18.7845 33.5406 18.8788L33.8691 19.8233C33.9594 19.7918 34.0568 19.787 34.1498 19.8093L34.3827 18.8368ZM35.4125 19.4858C35.2164 19.3254 35.047 19.1863 34.8978 19.0829C34.7434 18.9759 34.5787 18.8837 34.3827 18.8368L34.1498 19.8093C34.1767 19.8157 34.2246 19.833 34.3282 19.9047C34.4369 19.9801 34.5708 20.0892 34.7792 20.2597L35.4125 19.4858ZM36.6004 20.3218C36.5765 20.3212 36.4943 20.3087 36.2798 20.1643C36.0695 20.0226 35.8034 19.8056 35.4125 19.4858L34.7792 20.2597C35.1544 20.5667 35.463 20.8198 35.7214 20.9938C35.9756 21.165 36.2563 21.3135 36.5752 21.3215L36.6004 20.3218ZM36.9753 20.1665C36.8779 20.2689 36.7417 20.3254 36.6004 20.3218L36.5752 21.3215C36.9991 21.3322 37.4078 21.1629 37.7 20.8556L36.9753 20.1665ZM37.2241 18.7356C37.1739 19.2381 37.1392 19.5796 37.0906 19.8285C37.041 20.0822 36.9918 20.1492 36.9753 20.1665L37.7 20.8556C37.9198 20.6244 38.0133 20.321 38.072 20.0202C38.1317 19.7145 38.1709 19.3174 38.2191 18.8351L37.2241 18.7356ZM37.2216 18.7853V18.7853H38.2216V18.7853H37.2216ZM37.2216 18.7853V18.7853H38.2216V18.7853H37.2216ZM37.4932 17.549C37.3878 17.7207 37.3366 17.9023 37.3031 18.087C37.2707 18.2656 37.2493 18.4836 37.2241 18.7356L38.2191 18.8351C38.2459 18.5673 38.2635 18.3955 38.2871 18.2654C38.3095 18.1414 38.3311 18.0954 38.3456 18.0718L37.4932 17.549ZM38.1186 16.9829C37.8603 17.1079 37.6432 17.3043 37.4932 17.549L38.3456 18.0718C38.3956 17.9903 38.468 17.9248 38.5541 17.8831L38.1186 16.9829ZM39.3261 16.8333C39.073 16.8333 38.8538 16.8329 38.673 16.8473C38.4858 16.8622 38.3 16.8952 38.1186 16.9829L38.5541 17.8831C38.579 17.8711 38.627 17.8542 38.7525 17.8441C38.8844 17.8336 39.057 17.8333 39.3261 17.8333V16.8333ZM40.6741 16.8333H39.3261V17.8333H40.6741V16.8333ZM41.8818 16.983C41.7004 16.8952 41.5146 16.8623 41.3274 16.8473C41.1465 16.8329 40.9273 16.8333 40.6741 16.8333V17.8333C40.9433 17.8333 41.1159 17.8336 41.2478 17.8441C41.3734 17.8542 41.4214 17.8711 41.4463 17.8832L41.8818 16.983ZM42.507 17.5488C42.357 17.3043 42.1401 17.1079 41.8818 16.983L41.4463 17.8832C41.5324 17.9248 41.6047 17.9903 41.6547 18.0718L42.507 17.5488ZM42.7762 18.7357C42.751 18.4837 42.7296 18.2656 42.6972 18.087C42.6637 17.9022 42.6124 17.7206 42.507 17.5488L41.6547 18.0718C41.6692 18.0954 41.6908 18.1414 41.7133 18.2654C41.7369 18.3956 41.7544 18.5673 41.7812 18.8352L42.7762 18.7357ZM43.7668 27.9999C43.7668 30.0802 42.0804 31.7666 40.0002 31.7666V32.7666C42.6327 32.7666 44.7668 30.6325 44.7668 27.9999H43.7668ZM40.0002 24.2333C42.0804 24.2333 43.7668 25.9196 43.7668 27.9999H44.7668C44.7668 25.3674 42.6327 23.2333 40.0002 23.2333V24.2333ZM36.2335 27.9999C36.2335 25.9196 37.9199 24.2333 40.0002 24.2333V23.2333C37.3676 23.2333 35.2335 25.3674 35.2335 27.9999H36.2335ZM40.0002 31.7666C37.9199 31.7666 36.2335 30.0802 36.2335 27.9999H35.2335C35.2335 30.6325 37.3676 32.7666 40.0002 32.7666V31.7666Z" fill="#9E9E9E"/>
<path d="M69.2784 34V22.3636H73.4261C74.3314 22.3636 75.0814 22.5284 75.6761 22.858C76.2708 23.1875 76.7159 23.6383 77.0114 24.2102C77.3068 24.7784 77.4545 25.4186 77.4545 26.1307C77.4545 26.8466 77.3049 27.4905 77.0057 28.0625C76.7102 28.6307 76.2633 29.0814 75.6648 29.4148C75.0701 29.7443 74.322 29.9091 73.4205 29.9091H70.5682V28.4205H73.2614C73.8333 28.4205 74.2973 28.322 74.6534 28.125C75.0095 27.9242 75.2708 27.6515 75.4375 27.3068C75.6042 26.9621 75.6875 26.5701 75.6875 26.1307C75.6875 25.6913 75.6042 25.3011 75.4375 24.9602C75.2708 24.6193 75.0076 24.3523 74.6477 24.1591C74.2917 23.9659 73.822 23.8693 73.2386 23.8693H71.0341V34H69.2784ZM81.6621 34.1932C81.109 34.1932 80.609 34.0909 80.1621 33.8864C79.7151 33.678 79.3609 33.3769 79.0996 32.983C78.842 32.589 78.7132 32.1061 78.7132 31.5341C78.7132 31.0417 78.8079 30.6364 78.9973 30.3182C79.1867 30 79.4424 29.7481 79.7643 29.5625C80.0863 29.3769 80.4462 29.2367 80.8439 29.142C81.2416 29.0473 81.6469 28.9754 82.0598 28.9261C82.5825 28.8655 83.0068 28.8163 83.3325 28.7784C83.6583 28.7367 83.895 28.6705 84.0428 28.5795C84.1905 28.4886 84.2643 28.3409 84.2643 28.1364V28.0966C84.2643 27.6004 84.1242 27.2159 83.8439 26.9432C83.5674 26.6705 83.1545 26.5341 82.6053 26.5341C82.0333 26.5341 81.5825 26.661 81.253 26.9148C80.9272 27.1648 80.7018 27.4432 80.5768 27.75L78.9803 27.3864C79.1696 26.8561 79.4462 26.428 79.8098 26.1023C80.1772 25.7727 80.5996 25.5341 81.0768 25.3864C81.5541 25.2348 82.056 25.1591 82.5825 25.1591C82.931 25.1591 83.3003 25.2008 83.6905 25.2841C84.0844 25.3636 84.4518 25.5114 84.7928 25.7273C85.1374 25.9432 85.4196 26.2519 85.6393 26.6534C85.859 27.0511 85.9689 27.5682 85.9689 28.2045V34H84.3098V32.8068H84.2416C84.1318 33.0265 83.967 33.2424 83.7473 33.4545C83.5276 33.6667 83.2454 33.8428 82.9007 33.983C82.556 34.1231 82.1431 34.1932 81.6621 34.1932ZM82.0314 32.8295C82.5011 32.8295 82.9026 32.7367 83.2359 32.5511C83.5731 32.3655 83.8287 32.1231 84.003 31.8239C84.181 31.5208 84.27 31.197 84.27 30.8523V29.7273C84.2094 29.7879 84.092 29.8447 83.9178 29.8977C83.7473 29.947 83.5522 29.9905 83.3325 30.0284C83.1128 30.0625 82.8988 30.0947 82.6905 30.125C82.4821 30.1515 82.3079 30.1742 82.1678 30.1932C81.8382 30.2348 81.5371 30.3049 81.2643 30.4034C80.9954 30.5019 80.7795 30.6439 80.6166 30.8295C80.4575 31.0114 80.378 31.2538 80.378 31.5568C80.378 31.9773 80.5333 32.2955 80.8439 32.5114C81.1545 32.7235 81.5503 32.8295 82.0314 32.8295ZM94.5954 27.4034L93.0557 27.6761C92.9913 27.4792 92.889 27.2917 92.7489 27.1136C92.6125 26.9356 92.4269 26.7898 92.192 26.6761C91.9572 26.5625 91.6636 26.5057 91.3114 26.5057C90.8303 26.5057 90.4288 26.6136 90.1068 26.8295C89.7848 27.0417 89.6239 27.3163 89.6239 27.6534C89.6239 27.9451 89.7318 28.1799 89.9477 28.358C90.1636 28.536 90.5121 28.6818 90.9932 28.7955L92.3795 29.1136C93.1826 29.2992 93.7811 29.5852 94.175 29.9716C94.5689 30.358 94.7659 30.8598 94.7659 31.4773C94.7659 32 94.6144 32.4659 94.3114 32.875C94.0121 33.2803 93.5936 33.5985 93.0557 33.8295C92.5216 34.0606 91.9023 34.1761 91.1977 34.1761C90.2204 34.1761 89.4231 33.9678 88.8057 33.5511C88.1882 33.1307 87.8095 32.5341 87.6693 31.7614L89.3114 31.5114C89.4136 31.9394 89.6239 32.2633 89.942 32.483C90.2602 32.6989 90.675 32.8068 91.1864 32.8068C91.7432 32.8068 92.1882 32.6913 92.5216 32.4602C92.8549 32.2254 93.0216 31.9394 93.0216 31.6023C93.0216 31.3295 92.9193 31.1004 92.7148 30.9148C92.514 30.7292 92.2053 30.589 91.7886 30.4943L90.3114 30.1705C89.497 29.9848 88.8947 29.6894 88.5045 29.2841C88.1182 28.8788 87.925 28.3655 87.925 27.7443C87.925 27.2292 88.0689 26.7784 88.3568 26.392C88.6447 26.0057 89.0424 25.7045 89.55 25.4886C90.0576 25.2689 90.639 25.1591 91.2943 25.1591C92.2375 25.1591 92.9799 25.3636 93.5216 25.7727C94.0632 26.178 94.4212 26.7216 94.5954 27.4034ZM102.998 27.4034L101.458 27.6761C101.393 27.4792 101.291 27.2917 101.151 27.1136C101.015 26.9356 100.829 26.7898 100.594 26.6761C100.359 26.5625 100.066 26.5057 99.7135 26.5057C99.2324 26.5057 98.8309 26.6136 98.5089 26.8295C98.187 27.0417 98.026 27.3163 98.026 27.6534C98.026 27.9451 98.1339 28.1799 98.3498 28.358C98.5658 28.536 98.9142 28.6818 99.3953 28.7955L100.782 29.1136C101.585 29.2992 102.183 29.5852 102.577 29.9716C102.971 30.358 103.168 30.8598 103.168 31.4773C103.168 32 103.017 32.4659 102.713 32.875C102.414 33.2803 101.996 33.5985 101.458 33.8295C100.924 34.0606 100.304 34.1761 99.5998 34.1761C98.6226 34.1761 97.8252 33.9678 97.2078 33.5511C96.5904 33.1307 96.2116 32.5341 96.0714 31.7614L97.7135 31.5114C97.8158 31.9394 98.026 32.2633 98.3442 32.483C98.6623 32.6989 99.0771 32.8068 99.5885 32.8068C100.145 32.8068 100.59 32.6913 100.924 32.4602C101.257 32.2254 101.424 31.9394 101.424 31.6023C101.424 31.3295 101.321 31.1004 101.117 30.9148C100.916 30.7292 100.607 30.589 100.191 30.4943L98.7135 30.1705C97.8991 29.9848 97.2968 29.6894 96.9067 29.2841C96.5203 28.8788 96.3271 28.3655 96.3271 27.7443C96.3271 27.2292 96.4711 26.7784 96.7589 26.392C97.0468 26.0057 97.4445 25.7045 97.9521 25.4886C98.4597 25.2689 99.0411 25.1591 99.6964 25.1591C100.64 25.1591 101.382 25.3636 101.924 25.7727C102.465 26.178 102.823 26.7216 102.998 27.4034ZM106.752 34L104.184 25.2727H105.939L107.65 31.6818H107.735L109.451 25.2727H111.207L112.911 31.6534H112.996L114.695 25.2727H116.451L113.888 34H112.155L110.383 27.6989H110.252L108.479 34H106.752ZM121.298 34.1761C120.479 34.1761 119.765 33.9886 119.156 33.6136C118.546 33.2386 118.072 32.714 117.735 32.0398C117.398 31.3655 117.229 30.5777 117.229 29.6761C117.229 28.7708 117.398 27.9792 117.735 27.3011C118.072 26.6231 118.546 26.0966 119.156 25.7216C119.765 25.3466 120.479 25.1591 121.298 25.1591C122.116 25.1591 122.83 25.3466 123.44 25.7216C124.049 26.0966 124.523 26.6231 124.86 27.3011C125.197 27.9792 125.366 28.7708 125.366 29.6761C125.366 30.5777 125.197 31.3655 124.86 32.0398C124.523 32.714 124.049 33.2386 123.44 33.6136C122.83 33.9886 122.116 34.1761 121.298 34.1761ZM121.303 32.75C121.834 32.75 122.273 32.6098 122.621 32.3295C122.97 32.0492 123.227 31.6761 123.394 31.2102C123.565 30.7443 123.65 30.2311 123.65 29.6705C123.65 29.1136 123.565 28.6023 123.394 28.1364C123.227 27.6667 122.97 27.2898 122.621 27.0057C122.273 26.7216 121.834 26.5795 121.303 26.5795C120.769 26.5795 120.326 26.7216 119.974 27.0057C119.625 27.2898 119.366 27.6667 119.195 28.1364C119.029 28.6023 118.945 29.1136 118.945 29.6705C118.945 30.2311 119.029 30.7443 119.195 31.2102C119.366 31.6761 119.625 32.0492 119.974 32.3295C120.326 32.6098 120.769 32.75 121.303 32.75ZM127.086 34V25.2727H128.728V26.6591H128.819C128.978 26.1894 129.258 25.8201 129.66 25.5511C130.065 25.2784 130.524 25.142 131.035 25.142C131.141 25.142 131.266 25.1458 131.41 25.1534C131.558 25.161 131.673 25.1705 131.757 25.1818V26.8068C131.688 26.7879 131.567 26.767 131.393 26.7443C131.219 26.7178 131.044 26.7045 130.87 26.7045C130.469 26.7045 130.111 26.7898 129.796 26.9602C129.486 27.1269 129.239 27.3598 129.058 27.6591C128.876 27.9545 128.785 28.2917 128.785 28.6705V34H127.086ZM136.005 34.1705C135.301 34.1705 134.672 33.9905 134.119 33.6307C133.57 33.267 133.138 32.75 132.823 32.0795C132.513 31.4053 132.357 30.5966 132.357 29.6534C132.357 28.7102 132.515 27.9034 132.829 27.233C133.147 26.5625 133.583 26.0492 134.136 25.6932C134.689 25.3371 135.316 25.1591 136.017 25.1591C136.558 25.1591 136.994 25.25 137.323 25.4318C137.657 25.6098 137.914 25.8182 138.096 26.0568C138.282 26.2955 138.426 26.5057 138.528 26.6875H138.63V22.3636H140.329V34H138.67V32.642H138.528C138.426 32.8277 138.278 33.0398 138.085 33.2784C137.895 33.517 137.634 33.7254 137.301 33.9034C136.967 34.0814 136.536 34.1705 136.005 34.1705ZM136.38 32.7216C136.869 32.7216 137.282 32.5928 137.619 32.3352C137.96 32.0739 138.217 31.7121 138.392 31.25C138.57 30.7879 138.659 30.25 138.659 29.6364C138.659 29.0303 138.572 28.5 138.397 28.0455C138.223 27.5909 137.967 27.2367 137.63 26.983C137.293 26.7292 136.876 26.6023 136.38 26.6023C135.869 26.6023 135.443 26.7348 135.102 27C134.761 27.2652 134.503 27.6269 134.329 28.0852C134.159 28.5436 134.073 29.0606 134.073 29.6364C134.073 30.2197 134.161 30.7443 134.335 31.2102C134.509 31.6761 134.767 32.0455 135.107 32.3182C135.452 32.5871 135.876 32.7216 136.38 32.7216Z" fill="#9E9E9E"/>
</svg>
