<svg width="268" height="56" viewBox="0 0 268 56" fill="none" xmlns="http://www.w3.org/2000/svg">
<rect width="268" height="56" rx="6" fill="#AA81F3"/>
<rect width="268" height="56" rx="6" fill="#AA81F3"/>
<path fill-rule="evenodd" clip-rule="evenodd" d="M42.2787 18.7855C42.2267 18.2656 42.2007 18.0057 42.0809 17.8103C41.9809 17.6473 41.8362 17.5164 41.6641 17.4331C41.4577 17.3333 41.1965 17.3333 40.6741 17.3333H39.3261C38.8038 17.3333 38.5427 17.3333 38.3364 17.433C38.1641 17.5163 38.0194 17.6473 37.9194 17.8104C37.7996 18.0057 37.7736 18.2656 37.7216 18.7853C37.6231 19.7702 37.5739 20.2626 37.3377 20.511C37.1428 20.7159 36.8704 20.8288 36.5878 20.8216C36.2451 20.813 35.862 20.4996 35.0958 19.8727C34.6914 19.5418 34.4892 19.3764 34.2663 19.323C34.0803 19.2785 33.8855 19.2882 33.7049 19.351C33.4884 19.4263 33.3036 19.611 32.9342 19.9805L31.9813 20.9333C31.6118 21.3029 31.427 21.4877 31.3517 21.7043C31.2889 21.8848 31.2792 22.0795 31.3237 22.2654C31.3771 22.4884 31.5426 22.6907 31.8735 23.0952C32.5006 23.8617 32.8142 24.2449 32.8227 24.5878C32.8297 24.8702 32.717 25.1424 32.5123 25.3371C32.2638 25.5736 31.7712 25.6228 30.7858 25.7214C30.2658 25.7733 30.0059 25.7993 29.8104 25.9193C29.6475 26.0193 29.5167 26.1639 29.4334 26.3359C29.3335 26.5423 29.3335 26.8036 29.3335 27.3262L29.3335 28.6738C29.3335 29.1963 29.3335 29.4575 29.4333 29.6638C29.5166 29.836 29.6475 29.9806 29.8105 30.0806C30.0059 30.2005 30.2658 30.2265 30.7857 30.2785C31.7708 30.377 32.2633 30.4262 32.5118 30.6626C32.7166 30.8573 32.8294 31.1297 32.8223 31.4122C32.8137 31.755 32.5003 32.1381 31.8733 32.9043C31.5425 33.3087 31.3771 33.5109 31.3237 33.7338C31.2791 33.9198 31.2889 34.1146 31.3517 34.2952C31.427 34.5117 31.6117 34.6965 31.9811 35.0659L32.9341 36.0189C33.3036 36.3883 33.4883 36.5731 33.7048 36.6484C33.8854 36.7112 34.0803 36.7209 34.2662 36.6764C34.4892 36.623 34.6913 36.4576 35.0957 36.1267C35.862 35.4998 36.2451 35.1863 36.5879 35.1777C36.8704 35.1707 37.1427 35.2834 37.3375 35.4882C37.5738 35.7367 37.6231 36.2292 37.7216 37.2144C37.7736 37.7342 37.7996 37.9942 37.9195 38.1896C38.0195 38.3525 38.1641 38.4834 38.3363 38.5667C38.5426 38.6666 38.8038 38.6666 39.3263 38.6666H40.6739C41.1965 38.6666 41.4578 38.6666 41.6642 38.5667C41.8362 38.4834 41.9808 38.3526 42.0808 38.1897C42.2007 37.9942 42.2267 37.7342 42.2787 37.2141C42.3773 36.2289 42.4265 35.7363 42.6629 35.4878C42.8576 35.283 43.13 35.1702 43.4125 35.1773C43.7553 35.1859 44.1384 35.4993 44.9046 36.1262C45.309 36.4571 45.5111 36.6225 45.734 36.6759C45.92 36.7204 46.1149 36.7107 46.2955 36.6479C46.512 36.5726 46.6967 36.3879 47.0661 36.0184L48.0193 35.0653C48.3886 34.696 48.5732 34.5113 48.6486 34.2949C48.7114 34.1142 48.7212 33.9192 48.6766 33.7332C48.6232 33.5103 48.4578 33.3082 48.1271 32.904C47.5004 32.138 47.187 31.755 47.1784 31.4123C47.1712 31.1297 47.2841 30.8572 47.489 30.6624C47.7374 30.4262 48.2299 30.3769 49.2147 30.2785C49.7345 30.2265 49.9944 30.2005 50.1897 30.0807C50.3528 29.9806 50.4837 29.8359 50.567 29.6637C50.6668 29.4574 50.6668 29.1963 50.6668 28.6739V27.326C50.6668 26.8036 50.6668 26.5423 50.567 26.336C50.4837 26.1639 50.3528 26.0192 50.1898 25.9192C49.9944 25.7993 49.7345 25.7734 49.2146 25.7214C48.2295 25.6229 47.7369 25.5736 47.4884 25.3372C47.2837 25.1425 47.1709 24.8702 47.178 24.5877C47.1865 24.2449 47.5 23.8617 48.1269 23.0955C48.4578 22.6911 48.6232 22.489 48.6766 22.266C48.7211 22.0801 48.7114 21.8852 48.6486 21.7046C48.5732 21.4881 48.3885 21.3034 48.0191 20.934L47.0661 19.9809C46.6967 19.6115 46.5119 19.4268 46.2955 19.3515C46.1148 19.2887 45.92 19.2789 45.734 19.3235C45.5111 19.3769 45.3089 19.5423 44.9046 19.8731C44.1383 20.5 43.7552 20.8135 43.4124 20.8221C43.1299 20.8291 42.8576 20.7163 42.6628 20.5116C42.4265 20.2631 42.3772 19.7706 42.2787 18.7855Z" fill="white"/>
<path d="M43.4124 20.8221L43.4274 21.4219L43.4124 20.8221ZM42.6628 20.5116L42.2281 20.9251L42.6628 20.5116ZM47.0661 19.9809L47.4903 19.5567L47.0661 19.9809ZM46.2955 19.3515L46.4926 18.7848L46.2955 19.3515ZM45.734 19.3235L45.5942 18.74L45.734 19.3235ZM48.6766 22.266L49.2601 22.4058L48.6766 22.266ZM48.0191 20.934L47.5948 21.3582L48.0191 20.934ZM48.6486 21.7046L49.2153 21.5075L48.6486 21.7046ZM47.4884 25.3372L47.902 24.9025L47.4884 25.3372ZM47.178 24.5877L46.5781 24.5727L47.178 24.5877ZM50.567 26.336L51.1071 26.0747L50.567 26.336ZM50.1898 25.9192L50.5036 25.4078L50.1898 25.9192ZM50.1897 30.0807L50.5034 30.5921L50.1897 30.0807ZM50.567 29.6637L51.1072 29.925L50.567 29.6637ZM47.1784 31.4123L46.5786 31.4275L47.1784 31.4123ZM47.489 30.6624L47.9024 31.0972L47.489 30.6624ZM48.0193 35.0653L48.4435 35.4895L48.0193 35.0653ZM48.6486 34.2949L48.0819 34.0977L48.6486 34.2949ZM48.6766 33.7332L49.26 33.5933L48.6766 33.7332ZM45.734 36.6759L45.8738 36.0924L45.734 36.6759ZM47.0661 36.0184L46.6419 35.5942L47.0661 36.0184ZM46.2955 36.6479L46.0984 36.0812L46.2955 36.6479ZM42.6629 35.4878L42.2281 35.0743L42.6629 35.4878ZM43.4125 35.1773L43.3975 35.7771L43.4125 35.1773ZM41.6642 38.5667L41.4028 38.0266L41.6642 38.5667ZM42.0808 38.1897L42.5922 38.5035L42.0808 38.1897ZM37.9195 38.1896L38.4309 37.8758L37.9195 38.1896ZM38.3363 38.5667L38.0749 39.1068L38.3363 38.5667ZM36.5879 35.1777L36.5729 34.5779L36.5879 35.1777ZM37.3375 35.4882L37.7722 35.0747L37.3375 35.4882ZM32.9341 36.0189L32.5099 36.4432L32.9341 36.0189ZM33.7048 36.6484L33.5077 37.2151L33.7048 36.6484ZM34.2662 36.6764L34.1265 36.0929L34.2662 36.6764ZM31.3237 33.7338L30.7402 33.5941L31.3237 33.7338ZM31.9811 35.0659L32.4054 34.6416L31.9811 35.0659ZM31.3517 34.2952L30.785 34.4923L31.3517 34.2952ZM32.5118 30.6626L32.0983 31.0973L32.5118 30.6626ZM32.8223 31.4122L32.2225 31.3972L32.8223 31.4122ZM29.3335 28.6738H28.7335H29.3335ZM29.4333 29.6638L29.9734 29.4025L29.4333 29.6638ZM29.8105 30.0806L29.4968 30.592L29.8105 30.0806ZM29.8104 25.9193L30.1243 26.4307L29.8104 25.9193ZM29.3335 27.3262H29.9335H29.3335ZM29.4334 26.3359L29.9734 26.5973L29.4334 26.3359ZM32.8227 24.5878L33.4225 24.5729L32.8227 24.5878ZM32.5123 25.3371L32.0987 24.9024L32.5123 25.3371ZM31.9813 20.9333L32.4056 21.3576L31.9813 20.9333ZM31.3517 21.7043L30.785 21.5072L31.3517 21.7043ZM31.3237 22.2654L31.9072 22.1258L31.3237 22.2654ZM34.2663 19.323L34.406 18.7395L34.2663 19.323ZM32.9342 19.9805L32.5099 19.5562L32.9342 19.9805ZM33.7049 19.351L33.5078 18.7843L33.7049 19.351ZM37.3377 20.511L36.9028 20.0976L37.3377 20.511ZM36.5878 20.8216L36.5727 21.4215L36.5878 20.8216ZM41.6641 17.4331L41.9254 16.893L41.6641 17.4331ZM42.2787 18.7855L41.6817 18.8452L42.2787 18.7855ZM42.0809 17.8103L41.5695 18.1241L42.0809 17.8103ZM38.3364 17.433L38.5976 17.9732L38.3364 17.433ZM37.9194 17.8104L38.4309 18.1241L37.9194 17.8104ZM39.3261 17.9333H40.6741V16.7333H39.3261V17.9333ZM32.4056 21.3576L33.3585 20.4047L32.5099 19.5562L31.5571 20.5091L32.4056 21.3576ZM29.9335 28.6738L29.9335 27.3262H28.7335L28.7335 28.6738H29.9335ZM33.3584 35.5946L32.4054 34.6416L31.5569 35.4902L32.5099 36.4432L33.3584 35.5946ZM40.6739 38.0666H39.3263V39.2666H40.6739V38.0666ZM47.595 34.641L46.6419 35.5942L47.4904 36.4427L48.4435 35.4895L47.595 34.641ZM50.0668 27.326V28.6739H51.2668V27.326H50.0668ZM46.6418 20.4052L47.5948 21.3582L48.4434 20.5097L47.4903 19.5567L46.6418 20.4052ZM44.5246 19.4087C44.1321 19.7299 43.8702 19.9433 43.6646 20.0817C43.4541 20.2235 43.3918 20.2224 43.3974 20.2223L43.4274 21.4219C43.7759 21.4132 44.0765 21.2511 44.3348 21.0772C44.598 20.9 44.9108 20.6432 45.2845 20.3375L44.5246 19.4087ZM41.6817 18.8452C41.7297 19.3256 41.7694 19.7283 41.8302 20.0398C41.8899 20.3453 41.9879 20.6725 42.2281 20.9251L43.0976 20.0981C43.1014 20.1021 43.0566 20.0588 43.008 19.8097C42.9604 19.5665 42.9262 19.2304 42.8757 18.7258L41.6817 18.8452ZM43.3974 20.2223C43.2844 20.2251 43.1755 20.18 43.0976 20.0981L42.2281 20.9251C42.5397 21.2527 42.9754 21.4332 43.4274 21.4219L43.3974 20.2223ZM47.4903 19.5567C47.3124 19.3787 47.1544 19.2201 47.0126 19.0993C46.8649 18.9734 46.6993 18.8567 46.4926 18.7848L46.0983 19.9182C46.108 19.9216 46.1431 19.9349 46.2342 20.0126C46.3312 20.0952 46.4503 20.2137 46.6418 20.4052L47.4903 19.5567ZM45.2845 20.3375C45.4941 20.166 45.6244 20.06 45.7291 19.9874C45.8276 19.9192 45.8637 19.9094 45.8737 19.907L45.5942 18.74C45.3813 18.791 45.205 18.8906 45.0455 19.0011C44.8923 19.1073 44.7194 19.2494 44.5246 19.4087L45.2845 20.3375ZM46.4926 18.7848C46.2036 18.6843 45.8918 18.6687 45.5942 18.74L45.8737 19.907C45.9481 19.8892 46.0261 19.8931 46.0983 19.9182L46.4926 18.7848ZM48.5913 23.4754C48.7506 23.2807 48.8927 23.1077 48.9989 22.9545C49.1094 22.7951 49.2091 22.6187 49.2601 22.4058L48.0931 22.1263C48.0907 22.1363 48.0809 22.1725 48.0127 22.2709C47.9401 22.3757 47.834 22.506 47.6625 22.7156L48.5913 23.4754ZM47.5948 21.3582C47.7863 21.5497 47.9048 21.6688 47.9875 21.7658C48.0652 21.857 48.0785 21.892 48.0819 21.9017L49.2153 21.5075C49.1433 21.3007 49.0266 21.1351 48.9008 20.9875C48.7799 20.8456 48.6213 20.6876 48.4434 20.5097L47.5948 21.3582ZM49.2601 22.4058C49.3313 22.1082 49.3158 21.7965 49.2153 21.5075L48.0819 21.9017C48.107 21.974 48.1109 22.0519 48.0931 22.1263L49.2601 22.4058ZM49.2743 25.1243C48.7696 25.0739 48.4335 25.0396 48.1903 24.9921C47.9412 24.9435 47.8979 24.8986 47.902 24.9025L47.0749 25.772C47.3275 26.0122 47.6547 26.1102 47.9603 26.1699C48.2717 26.2307 48.6745 26.2703 49.1549 26.3184L49.2743 25.1243ZM47.6625 22.7156C47.3568 23.0892 47.1 23.4021 46.9228 23.6653C46.749 23.9236 46.5869 24.2242 46.5781 24.5727L47.7778 24.6027C47.7776 24.6083 47.7765 24.546 47.9183 24.3354C48.0567 24.1298 48.2701 23.868 48.5913 23.4754L47.6625 22.7156ZM47.902 24.9025C47.8201 24.8246 47.7749 24.7157 47.7778 24.6027L46.5781 24.5727C46.5668 25.0247 46.7473 25.4604 47.0749 25.772L47.902 24.9025ZM51.2668 27.326C51.2668 27.0744 51.2673 26.8505 51.2524 26.6648C51.237 26.4713 51.2024 26.2717 51.1071 26.0747L50.0269 26.5973C50.0314 26.6066 50.0467 26.6408 50.0562 26.7602C50.0664 26.8872 50.0668 27.0552 50.0668 27.326H51.2668ZM49.1549 26.3184C49.4244 26.3453 49.5915 26.3625 49.7169 26.3852C49.8348 26.4066 49.8673 26.4253 49.876 26.4306L50.5036 25.4078C50.317 25.2933 50.1218 25.2391 49.9309 25.2045C49.7475 25.1712 49.5247 25.1494 49.2743 25.1243L49.1549 26.3184ZM51.1071 26.0747C50.9738 25.7993 50.7644 25.5678 50.5036 25.4078L49.876 26.4306C49.9412 26.4706 49.9936 26.5285 50.0269 26.5973L51.1071 26.0747ZM49.2744 30.8755C49.5248 30.8505 49.7475 30.8286 49.9309 30.7954C50.1217 30.7608 50.3169 30.7066 50.5034 30.5921L49.876 29.5692C49.8672 29.5746 49.8347 29.5933 49.7169 29.6146C49.5915 29.6373 49.4244 29.6545 49.155 29.6814L49.2744 30.8755ZM50.0668 28.6739C50.0668 28.9447 50.0664 29.1126 50.0563 29.2396C50.0467 29.359 50.0314 29.3932 50.0269 29.4025L51.1072 29.925C51.2025 29.728 51.237 29.5284 51.2525 29.3351C51.2673 29.1493 51.2668 28.9255 51.2668 28.6739H50.0668ZM50.5034 30.5921C50.7643 30.4321 50.9739 30.2006 51.1072 29.925L50.0269 29.4025C49.9936 29.4713 49.9412 29.5292 49.876 29.5692L50.5034 30.5921ZM48.5915 32.5241C48.2704 32.1317 48.057 31.8699 47.9187 31.6644C47.777 31.4539 47.778 31.3916 47.7782 31.3972L46.5786 31.4275C46.5873 31.7758 46.7494 32.0763 46.9232 32.3345C47.1004 32.5977 47.3571 32.9104 47.6627 33.284L48.5915 32.5241ZM49.155 29.6814C48.6747 29.7295 48.272 29.7691 47.9607 29.8299C47.6552 29.8896 47.3281 29.9875 47.0756 30.2276L47.9024 31.0972C47.8983 31.1011 47.9416 31.0563 48.1907 31.0077C48.4339 30.9602 48.7699 30.9259 49.2744 30.8755L49.155 29.6814ZM47.7782 31.3972C47.7753 31.2841 47.8205 31.1752 47.9024 31.0972L47.0756 30.2276C46.7477 30.5393 46.5671 30.9752 46.5786 31.4275L47.7782 31.3972ZM48.4435 35.4895C48.6214 35.3117 48.78 35.1537 48.9008 35.0119C49.0266 34.8643 49.1433 34.6988 49.2152 34.4921L48.0819 34.0977C48.0785 34.1074 48.0652 34.1424 47.9875 34.2336C47.9049 34.3305 47.7864 34.4496 47.595 34.641L48.4435 35.4895ZM47.6627 33.284C47.8341 33.4935 47.9401 33.6237 48.0127 33.7284C48.0809 33.8268 48.0907 33.863 48.0931 33.873L49.26 33.5933C49.209 33.3805 49.1094 33.2042 48.9989 33.0448C48.8928 32.8917 48.7507 32.7188 48.5915 32.5241L47.6627 33.284ZM49.2152 34.4921C49.3158 34.203 49.3314 33.891 49.26 33.5933L48.0931 33.873C48.1109 33.9474 48.107 34.0254 48.0819 34.0977L49.2152 34.4921ZM44.5247 36.5906C44.7194 36.75 44.8924 36.892 45.0456 36.9982C45.205 37.1087 45.3814 37.2084 45.5943 37.2594L45.8738 36.0924C45.8638 36.09 45.8276 36.0802 45.7292 36.012C45.6244 35.9394 45.4941 35.8333 45.2846 35.6619L44.5247 36.5906ZM46.6419 35.5942C46.4504 35.7857 46.3313 35.9041 46.2343 35.9868C46.1431 36.0645 46.1081 36.0778 46.0984 36.0812L46.4926 37.2146C46.6994 37.1426 46.865 37.026 47.0126 36.9001C47.1545 36.7792 47.3125 36.6206 47.4904 36.4427L46.6419 35.5942ZM45.5943 37.2594C45.8919 37.3306 46.2036 37.3151 46.4926 37.2146L46.0984 36.0812C46.0261 36.1063 45.9482 36.1102 45.8738 36.0924L45.5943 37.2594ZM42.8758 37.2738C42.9262 36.7691 42.9605 36.433 43.008 36.1897C43.0567 35.9405 43.1015 35.8972 43.0976 35.9013L42.2281 35.0743C41.9879 35.3268 41.8899 35.6541 41.8303 35.9597C41.7694 36.2711 41.7298 36.6739 41.6817 37.1544L42.8758 37.2738ZM45.2846 35.6619C44.9109 35.3561 44.5981 35.0994 44.3348 34.9222C44.0766 34.7483 43.7759 34.5862 43.4275 34.5775L43.3975 35.7771C43.3918 35.777 43.4542 35.7759 43.6647 35.9176C43.8703 36.056 44.1321 36.2694 44.5247 36.5906L45.2846 35.6619ZM43.0976 35.9013C43.1755 35.8194 43.2844 35.7743 43.3975 35.7771L43.4275 34.5775C42.9755 34.5662 42.5397 34.7466 42.2281 35.0743L43.0976 35.9013ZM40.6739 39.2666C40.9256 39.2666 41.1495 39.267 41.3354 39.2522C41.5288 39.2368 41.7285 39.2022 41.9256 39.1068L41.4028 38.0266C41.3935 38.0311 41.3593 38.0465 41.2399 38.056C41.1128 38.0661 40.9448 38.0666 40.6739 38.0666V39.2666ZM41.6817 37.1544C41.6548 37.424 41.6376 37.5912 41.6149 37.7166C41.5935 37.8345 41.5748 37.8671 41.5694 37.8758L42.5922 38.5035C42.7067 38.3168 42.761 38.1216 42.7956 37.9306C42.8289 37.7472 42.8507 37.5243 42.8758 37.2738L41.6817 37.1544ZM41.9256 39.1068C42.2009 38.9735 42.4322 38.7642 42.5922 38.5035L41.5694 37.8758C41.5294 37.941 41.4716 37.9933 41.4028 38.0266L41.9256 39.1068ZM37.1246 37.2741C37.1496 37.5245 37.1715 37.7473 37.2047 37.9306C37.2393 38.1216 37.2936 38.3167 37.4081 38.5033L38.4309 37.8758C38.4255 37.867 38.4068 37.8345 38.3855 37.7166C38.3627 37.5913 38.3456 37.4241 38.3186 37.1547L37.1246 37.2741ZM39.3263 38.0666C39.0555 38.0666 38.8875 38.0661 38.7604 38.056C38.641 38.0465 38.6069 38.0311 38.5976 38.0266L38.0749 39.1068C38.272 39.2022 38.4716 39.2368 38.665 39.2522C38.8508 39.267 39.0746 39.2666 39.3263 39.2666V38.0666ZM37.4081 38.5033C37.5681 38.7641 37.7995 38.9736 38.0749 39.1068L38.5976 38.0266C38.5287 37.9933 38.4709 37.941 38.4309 37.8758L37.4081 38.5033ZM35.4757 36.5911C35.8682 36.2699 36.1301 36.0565 36.3357 35.918C36.5462 35.7763 36.6086 35.7774 36.6029 35.7775L36.5729 34.5779C36.2245 34.5866 35.9238 34.7487 35.6655 34.9226C35.4023 35.0998 35.0895 35.3566 34.7158 35.6623L35.4757 36.5911ZM38.3186 37.1547C38.2706 36.6742 38.2309 36.2715 38.1701 35.96C38.1104 35.6544 38.0125 35.3272 37.7722 35.0747L36.9027 35.9017C36.8989 35.8976 36.9437 35.9409 36.9924 36.1901C37.0399 36.4333 37.0741 36.7694 37.1246 37.2741L38.3186 37.1547ZM36.6029 35.7775C36.7159 35.7747 36.8248 35.8198 36.9027 35.9017L37.7722 35.0747C37.4606 34.7471 37.0249 34.5666 36.5729 34.5779L36.6029 35.7775ZM32.5099 36.4432C32.6878 36.6211 32.8458 36.7797 32.9877 36.9006C33.1353 37.0264 33.3009 37.1431 33.5077 37.2151L33.9019 36.0817C33.8922 36.0783 33.8572 36.065 33.766 35.9873C33.669 35.9046 33.5499 35.7861 33.3584 35.5946L32.5099 36.4432ZM34.7158 35.6623C34.5062 35.8338 34.3759 35.9399 34.2711 36.0125C34.1727 36.0807 34.1365 36.0905 34.1265 36.0929L34.406 37.2599C34.6189 37.2089 34.7953 37.1092 34.9547 36.9987C35.1079 36.8925 35.2809 36.7504 35.4757 36.5911L34.7158 35.6623ZM33.5077 37.2151C33.7967 37.3156 34.1084 37.3311 34.406 37.2599L34.1265 36.0929C34.0521 36.1107 33.9742 36.1068 33.9019 36.0817L33.5077 37.2151ZM31.409 32.5244C31.2496 32.7192 31.1075 32.8921 31.0013 33.0453C30.8908 33.2048 30.7912 33.3811 30.7402 33.5941L31.9072 33.8736C31.9096 33.8636 31.9194 33.8274 31.9876 33.7289C32.0602 33.6242 32.1662 33.4939 32.3377 33.2843L31.409 32.5244ZM32.4054 34.6416C32.2139 34.4501 32.0954 34.331 32.0128 34.234C31.9351 34.1429 31.9218 34.1078 31.9184 34.0981L30.785 34.4923C30.8569 34.6991 30.9736 34.8647 31.0995 35.0124C31.2203 35.1542 31.3789 35.3122 31.5569 35.4902L32.4054 34.6416ZM30.7402 33.5941C30.6689 33.8916 30.6845 34.2034 30.785 34.4923L31.9184 34.0981C31.8933 34.0259 31.8894 33.9479 31.9072 33.8736L30.7402 33.5941ZM30.726 30.8755C31.2307 30.926 31.5667 30.9602 31.81 31.0077C32.0591 31.0564 32.1024 31.1012 32.0983 31.0973L32.9253 30.2278C32.6728 29.9876 32.3456 29.8897 32.04 29.83C31.7286 29.7691 31.3258 29.7295 30.8454 29.6814L30.726 30.8755ZM32.3377 33.2843C32.6435 32.9106 32.9002 32.5978 33.0774 32.3345C33.2513 32.0763 33.4134 31.7756 33.4221 31.4272L32.2225 31.3972C32.2226 31.3915 32.2237 31.4539 32.082 31.6644C31.9436 31.87 31.7301 32.1319 31.409 32.5244L32.3377 33.2843ZM32.0983 31.0973C32.1802 31.1752 32.2253 31.2842 32.2225 31.3972L33.4221 31.4272C33.4334 30.9752 33.253 30.5395 32.9253 30.2278L32.0983 31.0973ZM28.7335 28.6738C28.7335 28.9255 28.7331 29.1493 28.7479 29.3351C28.7633 29.5285 28.7979 29.7281 28.8932 29.9251L29.9734 29.4025C29.969 29.3932 29.9536 29.359 29.9441 29.2396C29.9339 29.1126 29.9335 28.9446 29.9335 28.6738H28.7335ZM30.8454 29.6814C30.5759 29.6545 30.4088 29.6373 30.2834 29.6146C30.1656 29.5933 30.1331 29.5746 30.1243 29.5692L29.4968 30.592C29.6834 30.7065 29.8785 30.7608 30.0694 30.7954C30.2528 30.8286 30.4756 30.8505 30.726 30.8755L30.8454 29.6814ZM28.8932 29.9251C29.0265 30.2006 29.236 30.432 29.4968 30.592L30.1243 29.5692C30.0591 29.5292 30.0067 29.4713 29.9734 29.4025L28.8932 29.9251ZM30.7261 25.1243C30.4757 25.1494 30.2528 25.1712 30.0694 25.2045C29.8785 25.2391 29.6833 25.2933 29.4966 25.4079L30.1243 26.4307C30.133 26.4253 30.1655 26.4066 30.2834 26.3852C30.4088 26.3625 30.576 26.3453 30.8455 26.3184L30.7261 25.1243ZM29.9335 27.3262C29.9335 27.0553 29.9339 26.8872 29.9441 26.7602C29.9536 26.6408 29.969 26.6066 29.9734 26.5973L28.8933 26.0745C28.7979 26.2716 28.7633 26.4713 28.7479 26.6647C28.7331 26.8506 28.7335 27.0745 28.7335 27.3262H29.9335ZM29.4966 25.4079C29.2359 25.5679 29.0266 25.7992 28.8933 26.0745L29.9734 26.5973C30.0068 26.5285 30.0591 26.4706 30.1243 26.4307L29.4966 25.4079ZM31.4092 23.4751C31.7304 23.8678 31.9439 24.1297 32.0824 24.3354C32.2241 24.546 32.223 24.6083 32.2229 24.6027L33.4225 24.5729C33.4139 24.2243 33.2517 23.9236 33.0778 23.6653C32.9006 23.402 32.6437 23.0891 32.3379 22.7152L31.4092 23.4751ZM30.8455 26.3184C31.3261 26.2703 31.7289 26.2307 32.0404 26.1698C32.3461 26.1101 32.6733 26.0121 32.9259 25.7718L32.0987 24.9024C32.1028 24.8986 32.0595 24.9434 31.8104 24.9921C31.5671 25.0396 31.2309 25.0739 30.7261 25.1243L30.8455 26.3184ZM32.2229 24.6027C32.2257 24.7157 32.1806 24.8245 32.0987 24.9024L32.9259 25.7718C33.2534 25.4602 33.4338 25.0247 33.4225 24.5729L32.2229 24.6027ZM31.5571 20.5091C31.3791 20.6871 31.2204 20.8451 31.0995 20.987C30.9736 21.1347 30.8569 21.3004 30.785 21.5072L31.9184 21.9013C31.9218 21.8916 31.9351 21.8565 32.0128 21.7653C32.0955 21.6683 32.214 21.5492 32.4056 21.3576L31.5571 20.5091ZM32.3379 22.7152C32.1663 22.5056 32.0603 22.3752 31.9876 22.2704C31.9194 22.172 31.9096 22.1358 31.9072 22.1258L30.7402 22.4051C30.7912 22.6181 30.8908 22.7945 31.0014 22.954C31.1076 23.1073 31.2497 23.2803 31.4092 23.4751L32.3379 22.7152ZM30.785 21.5072C30.6845 21.7961 30.669 22.1077 30.7402 22.4051L31.9072 22.1258C31.8894 22.0514 31.8933 21.9735 31.9184 21.9013L30.785 21.5072ZM35.4758 19.4084C35.281 19.249 35.108 19.1069 34.9548 19.0007C34.7953 18.8901 34.6189 18.7905 34.406 18.7395L34.1265 19.9065C34.1365 19.9089 34.1727 19.9187 34.2712 19.9869C34.3759 20.0595 34.5063 20.1656 34.7159 20.3371L35.4758 19.4084ZM33.3585 20.4047C33.55 20.2132 33.6691 20.0948 33.7661 20.0121C33.8572 19.9344 33.8923 19.9211 33.902 19.9177L33.5078 18.7843C33.301 18.8562 33.1354 18.9729 32.9877 19.0988C32.8458 19.2197 32.6879 19.3783 32.5099 19.5562L33.3585 20.4047ZM34.406 18.7395C34.1085 18.6682 33.7967 18.6838 33.5078 18.7843L33.902 19.9177C33.9742 19.8926 34.0521 19.8887 34.1265 19.9065L34.406 18.7395ZM37.1246 18.7256C37.0741 19.2302 37.0399 19.5661 36.9924 19.8093C36.9438 20.0584 36.899 20.1017 36.9028 20.0976L37.7725 20.9245C38.0126 20.672 38.1105 20.3448 38.1702 20.0393C38.231 19.728 38.2706 19.3253 38.3186 18.845L37.1246 18.7256ZM34.7159 20.3371C35.0896 20.6428 35.4023 20.8995 35.6655 21.0767C35.9237 21.2506 36.2243 21.4127 36.5727 21.4215L36.6029 20.2218C36.6085 20.222 36.5462 20.223 36.3357 20.0813C36.1301 19.9429 35.8683 19.7295 35.4758 19.4084L34.7159 20.3371ZM36.9028 20.0976C36.8249 20.1795 36.716 20.2247 36.6029 20.2218L36.5727 21.4215C37.0249 21.4328 37.4608 21.2523 37.7725 20.9245L36.9028 20.0976ZM40.6741 17.9333C40.9449 17.9333 41.1129 17.9337 41.2399 17.9438C41.3593 17.9534 41.3935 17.9687 41.4027 17.9732L41.9254 16.893C41.7283 16.7976 41.5287 16.7631 41.3353 16.7476C41.1495 16.7328 40.9257 16.7333 40.6741 16.7333V17.9333ZM42.8757 18.7258C42.8507 18.4754 42.8289 18.2526 42.7956 18.0692C42.761 17.8783 42.7068 17.6831 42.5923 17.4965L41.5695 18.1241C41.5748 18.1328 41.5935 18.1653 41.6149 18.2832C41.6376 18.4086 41.6547 18.5757 41.6817 18.8452L42.8757 18.7258ZM41.4027 17.9732C41.4716 18.0065 41.5294 18.0589 41.5695 18.1241L42.5923 17.4965C42.4323 17.2357 42.2008 17.0263 41.9254 16.893L41.4027 17.9732ZM39.3261 16.7333C39.0746 16.7333 38.8508 16.7328 38.665 16.7476C38.4717 16.7631 38.2721 16.7976 38.0751 16.8929L38.5976 17.9732C38.6069 17.9687 38.6411 17.9533 38.7605 17.9438C38.8874 17.9337 39.0554 17.9333 39.3261 17.9333V16.7333ZM38.3186 18.845C38.3456 18.5756 38.3627 18.4085 38.3855 18.2832C38.4068 18.1654 38.4255 18.1329 38.4309 18.1241L37.408 17.4967C37.2935 17.6832 37.2393 17.8784 37.2047 18.0692C37.1715 18.2526 37.1496 18.4753 37.1246 18.7256L38.3186 18.845ZM38.0751 16.8929C37.7995 17.0262 37.568 17.2357 37.408 17.4967L38.4309 18.1241C38.4709 18.0589 38.5287 18.0065 38.5976 17.9732L38.0751 16.8929Z" fill="white"/>
<circle cx="40" cy="28" r="4" fill="#AA81F3"/>
<path d="M69.2784 34V22.3636H73.4261C74.3314 22.3636 75.0814 22.5284 75.6761 22.858C76.2708 23.1875 76.7159 23.6383 77.0114 24.2102C77.3068 24.7784 77.4545 25.4186 77.4545 26.1307C77.4545 26.8466 77.3049 27.4905 77.0057 28.0625C76.7102 28.6307 76.2633 29.0814 75.6648 29.4148C75.0701 29.7443 74.322 29.9091 73.4205 29.9091H70.5682V28.4205H73.2614C73.8333 28.4205 74.2973 28.322 74.6534 28.125C75.0095 27.9242 75.2708 27.6515 75.4375 27.3068C75.6042 26.9621 75.6875 26.5701 75.6875 26.1307C75.6875 25.6913 75.6042 25.3011 75.4375 24.9602C75.2708 24.6193 75.0076 24.3523 74.6477 24.1591C74.2917 23.9659 73.822 23.8693 73.2386 23.8693H71.0341V34H69.2784ZM81.6621 34.1932C81.109 34.1932 80.609 34.0909 80.1621 33.8864C79.7151 33.678 79.3609 33.3769 79.0996 32.983C78.842 32.589 78.7132 32.1061 78.7132 31.5341C78.7132 31.0417 78.8079 30.6364 78.9973 30.3182C79.1867 30 79.4424 29.7481 79.7643 29.5625C80.0863 29.3769 80.4462 29.2367 80.8439 29.142C81.2416 29.0473 81.6469 28.9754 82.0598 28.9261C82.5825 28.8655 83.0068 28.8163 83.3325 28.7784C83.6583 28.7367 83.895 28.6705 84.0428 28.5795C84.1905 28.4886 84.2643 28.3409 84.2643 28.1364V28.0966C84.2643 27.6004 84.1242 27.2159 83.8439 26.9432C83.5674 26.6705 83.1545 26.5341 82.6053 26.5341C82.0333 26.5341 81.5825 26.661 81.253 26.9148C80.9272 27.1648 80.7018 27.4432 80.5768 27.75L78.9803 27.3864C79.1696 26.8561 79.4462 26.428 79.8098 26.1023C80.1772 25.7727 80.5996 25.5341 81.0768 25.3864C81.5541 25.2348 82.056 25.1591 82.5825 25.1591C82.931 25.1591 83.3003 25.2008 83.6905 25.2841C84.0844 25.3636 84.4518 25.5114 84.7928 25.7273C85.1374 25.9432 85.4196 26.2519 85.6393 26.6534C85.859 27.0511 85.9689 27.5682 85.9689 28.2045V34H84.3098V32.8068H84.2416C84.1318 33.0265 83.967 33.2424 83.7473 33.4545C83.5276 33.6667 83.2454 33.8428 82.9007 33.983C82.556 34.1231 82.1431 34.1932 81.6621 34.1932ZM82.0314 32.8295C82.5011 32.8295 82.9026 32.7367 83.2359 32.5511C83.5731 32.3655 83.8287 32.1231 84.003 31.8239C84.181 31.5208 84.27 31.197 84.27 30.8523V29.7273C84.2094 29.7879 84.092 29.8447 83.9178 29.8977C83.7473 29.947 83.5522 29.9905 83.3325 30.0284C83.1128 30.0625 82.8988 30.0947 82.6905 30.125C82.4821 30.1515 82.3079 30.1742 82.1678 30.1932C81.8382 30.2348 81.5371 30.3049 81.2643 30.4034C80.9954 30.5019 80.7795 30.6439 80.6166 30.8295C80.4575 31.0114 80.378 31.2538 80.378 31.5568C80.378 31.9773 80.5333 32.2955 80.8439 32.5114C81.1545 32.7235 81.5503 32.8295 82.0314 32.8295ZM94.5954 27.4034L93.0557 27.6761C92.9913 27.4792 92.889 27.2917 92.7489 27.1136C92.6125 26.9356 92.4269 26.7898 92.192 26.6761C91.9572 26.5625 91.6636 26.5057 91.3114 26.5057C90.8303 26.5057 90.4288 26.6136 90.1068 26.8295C89.7848 27.0417 89.6239 27.3163 89.6239 27.6534C89.6239 27.9451 89.7318 28.1799 89.9477 28.358C90.1636 28.536 90.5121 28.6818 90.9932 28.7955L92.3795 29.1136C93.1826 29.2992 93.7811 29.5852 94.175 29.9716C94.5689 30.358 94.7659 30.8598 94.7659 31.4773C94.7659 32 94.6144 32.4659 94.3114 32.875C94.0121 33.2803 93.5936 33.5985 93.0557 33.8295C92.5216 34.0606 91.9023 34.1761 91.1977 34.1761C90.2204 34.1761 89.4231 33.9678 88.8057 33.5511C88.1882 33.1307 87.8095 32.5341 87.6693 31.7614L89.3114 31.5114C89.4136 31.9394 89.6239 32.2633 89.942 32.483C90.2602 32.6989 90.675 32.8068 91.1864 32.8068C91.7432 32.8068 92.1882 32.6913 92.5216 32.4602C92.8549 32.2254 93.0216 31.9394 93.0216 31.6023C93.0216 31.3295 92.9193 31.1004 92.7148 30.9148C92.514 30.7292 92.2053 30.589 91.7886 30.4943L90.3114 30.1705C89.497 29.9848 88.8947 29.6894 88.5045 29.2841C88.1182 28.8788 87.925 28.3655 87.925 27.7443C87.925 27.2292 88.0689 26.7784 88.3568 26.392C88.6447 26.0057 89.0424 25.7045 89.55 25.4886C90.0576 25.2689 90.639 25.1591 91.2943 25.1591C92.2375 25.1591 92.9799 25.3636 93.5216 25.7727C94.0632 26.178 94.4212 26.7216 94.5954 27.4034ZM102.998 27.4034L101.458 27.6761C101.393 27.4792 101.291 27.2917 101.151 27.1136C101.015 26.9356 100.829 26.7898 100.594 26.6761C100.359 26.5625 100.066 26.5057 99.7135 26.5057C99.2324 26.5057 98.8309 26.6136 98.5089 26.8295C98.187 27.0417 98.026 27.3163 98.026 27.6534C98.026 27.9451 98.1339 28.1799 98.3498 28.358C98.5658 28.536 98.9142 28.6818 99.3953 28.7955L100.782 29.1136C101.585 29.2992 102.183 29.5852 102.577 29.9716C102.971 30.358 103.168 30.8598 103.168 31.4773C103.168 32 103.017 32.4659 102.713 32.875C102.414 33.2803 101.996 33.5985 101.458 33.8295C100.924 34.0606 100.304 34.1761 99.5998 34.1761C98.6226 34.1761 97.8252 33.9678 97.2078 33.5511C96.5904 33.1307 96.2116 32.5341 96.0714 31.7614L97.7135 31.5114C97.8158 31.9394 98.026 32.2633 98.3442 32.483C98.6623 32.6989 99.0771 32.8068 99.5885 32.8068C100.145 32.8068 100.59 32.6913 100.924 32.4602C101.257 32.2254 101.424 31.9394 101.424 31.6023C101.424 31.3295 101.321 31.1004 101.117 30.9148C100.916 30.7292 100.607 30.589 100.191 30.4943L98.7135 30.1705C97.8991 29.9848 97.2968 29.6894 96.9067 29.2841C96.5203 28.8788 96.3271 28.3655 96.3271 27.7443C96.3271 27.2292 96.4711 26.7784 96.7589 26.392C97.0468 26.0057 97.4445 25.7045 97.9521 25.4886C98.4597 25.2689 99.0411 25.1591 99.6964 25.1591C100.64 25.1591 101.382 25.3636 101.924 25.7727C102.465 26.178 102.823 26.7216 102.998 27.4034ZM106.752 34L104.184 25.2727H105.939L107.65 31.6818H107.735L109.451 25.2727H111.207L112.911 31.6534H112.996L114.695 25.2727H116.451L113.888 34H112.155L110.383 27.6989H110.252L108.479 34H106.752ZM121.298 34.1761C120.479 34.1761 119.765 33.9886 119.156 33.6136C118.546 33.2386 118.072 32.714 117.735 32.0398C117.398 31.3655 117.229 30.5777 117.229 29.6761C117.229 28.7708 117.398 27.9792 117.735 27.3011C118.072 26.6231 118.546 26.0966 119.156 25.7216C119.765 25.3466 120.479 25.1591 121.298 25.1591C122.116 25.1591 122.83 25.3466 123.44 25.7216C124.049 26.0966 124.523 26.6231 124.86 27.3011C125.197 27.9792 125.366 28.7708 125.366 29.6761C125.366 30.5777 125.197 31.3655 124.86 32.0398C124.523 32.714 124.049 33.2386 123.44 33.6136C122.83 33.9886 122.116 34.1761 121.298 34.1761ZM121.303 32.75C121.834 32.75 122.273 32.6098 122.621 32.3295C122.97 32.0492 123.227 31.6761 123.394 31.2102C123.565 30.7443 123.65 30.2311 123.65 29.6705C123.65 29.1136 123.565 28.6023 123.394 28.1364C123.227 27.6667 122.97 27.2898 122.621 27.0057C122.273 26.7216 121.834 26.5795 121.303 26.5795C120.769 26.5795 120.326 26.7216 119.974 27.0057C119.625 27.2898 119.366 27.6667 119.195 28.1364C119.029 28.6023 118.945 29.1136 118.945 29.6705C118.945 30.2311 119.029 30.7443 119.195 31.2102C119.366 31.6761 119.625 32.0492 119.974 32.3295C120.326 32.6098 120.769 32.75 121.303 32.75ZM127.086 34V25.2727H128.728V26.6591H128.819C128.978 26.1894 129.258 25.8201 129.66 25.5511C130.065 25.2784 130.524 25.142 131.035 25.142C131.141 25.142 131.266 25.1458 131.41 25.1534C131.558 25.161 131.673 25.1705 131.757 25.1818V26.8068C131.688 26.7879 131.567 26.767 131.393 26.7443C131.219 26.7178 131.044 26.7045 130.87 26.7045C130.469 26.7045 130.111 26.7898 129.796 26.9602C129.486 27.1269 129.239 27.3598 129.058 27.6591C128.876 27.9545 128.785 28.2917 128.785 28.6705V34H127.086ZM136.005 34.1705C135.301 34.1705 134.672 33.9905 134.119 33.6307C133.57 33.267 133.138 32.75 132.823 32.0795C132.513 31.4053 132.357 30.5966 132.357 29.6534C132.357 28.7102 132.515 27.9034 132.829 27.233C133.147 26.5625 133.583 26.0492 134.136 25.6932C134.689 25.3371 135.316 25.1591 136.017 25.1591C136.558 25.1591 136.994 25.25 137.323 25.4318C137.657 25.6098 137.914 25.8182 138.096 26.0568C138.282 26.2955 138.426 26.5057 138.528 26.6875H138.63V22.3636H140.329V34H138.67V32.642H138.528C138.426 32.8277 138.278 33.0398 138.085 33.2784C137.895 33.517 137.634 33.7254 137.301 33.9034C136.967 34.0814 136.536 34.1705 136.005 34.1705ZM136.38 32.7216C136.869 32.7216 137.282 32.5928 137.619 32.3352C137.96 32.0739 138.217 31.7121 138.392 31.25C138.57 30.7879 138.659 30.25 138.659 29.6364C138.659 29.0303 138.572 28.5 138.397 28.0455C138.223 27.5909 137.967 27.2367 137.63 26.983C137.293 26.7292 136.876 26.6023 136.38 26.6023C135.869 26.6023 135.443 26.7348 135.102 27C134.761 27.2652 134.503 27.6269 134.329 28.0852C134.159 28.5436 134.073 29.0606 134.073 29.6364C134.073 30.2197 134.161 30.7443 134.335 31.2102C134.509 31.6761 134.767 32.0455 135.107 32.3182C135.452 32.5871 135.876 32.7216 136.38 32.7216Z" fill="white"/>
</svg>
