<svg width="268" height="56" viewBox="0 0 268 56" fill="none" xmlns="http://www.w3.org/2000/svg">
<rect width="268" height="56" rx="6" fill="#AA81F3"/>
<rect width="268" height="56" rx="6" fill="#AA81F3"/>
<path fill-rule="evenodd" clip-rule="evenodd" d="M42.2785 18.7855C42.2265 18.2657 42.2005 18.0057 42.0806 17.8104C41.9806 17.6474 41.836 17.5165 41.6638 17.4332C41.4575 17.3333 41.1963 17.3333 40.6738 17.3333H39.3259C38.8036 17.3333 38.5424 17.3333 38.3361 17.4331C38.1639 17.5164 38.0192 17.6474 37.9192 17.8105C37.7993 18.0058 37.7734 18.2657 37.7214 18.7854C37.6229 19.7702 37.5737 20.2627 37.3374 20.5111C37.1426 20.716 36.8702 20.8288 36.5876 20.8217C36.2448 20.8131 35.8618 20.4997 35.0956 19.8728C34.6912 19.5419 34.489 19.3765 34.266 19.3231C34.0801 19.2785 33.8852 19.2883 33.7046 19.3511C33.4881 19.4264 33.3034 19.6111 32.934 19.9806L31.9811 20.9334C31.6115 21.303 31.4267 21.4878 31.3514 21.7043C31.2887 21.8849 31.279 22.0796 31.3235 22.2655C31.3768 22.4885 31.5423 22.6908 31.8733 23.0953C32.5004 23.8617 32.8139 24.245 32.8225 24.5879C32.8295 24.8703 32.7167 25.1425 32.5121 25.3372C32.2636 25.5736 31.7709 25.6229 30.7856 25.7214C30.2656 25.7734 30.0056 25.7994 29.8102 25.9194C29.6473 26.0193 29.5164 26.1639 29.4331 26.336C29.3333 26.5424 29.3333 26.8037 29.3333 27.3262L29.3333 28.6739C29.3333 29.1963 29.3333 29.4576 29.4331 29.6639C29.5164 29.836 29.6473 29.9807 29.8103 30.0807C30.0057 30.2006 30.2656 30.2266 30.7854 30.2786C31.7705 30.3771 32.2631 30.4263 32.5116 30.6627C32.7163 30.8574 32.8291 31.1297 32.8221 31.4122C32.8135 31.7551 32.5 32.1382 31.8731 32.9044C31.5423 33.3088 31.3768 33.511 31.3234 33.7339C31.2789 33.9199 31.2886 34.1147 31.3514 34.2953C31.4267 34.5118 31.6115 34.6965 31.9809 35.066L32.9339 36.019C33.3033 36.3884 33.4881 36.5731 33.7046 36.6484C33.8852 36.7113 34.08 36.721 34.266 36.6764C34.4889 36.6231 34.6911 36.4576 35.0955 36.1268C35.8617 35.4998 36.2449 35.1864 36.5877 35.1778C36.8702 35.1707 37.1425 35.2835 37.3372 35.4883C37.5736 35.7367 37.6229 36.2293 37.7214 37.2145C37.7734 37.7343 37.7993 37.9943 37.9192 38.1896C38.0192 38.3526 38.1639 38.4835 38.336 38.5668C38.5423 38.6667 38.8036 38.6667 39.326 38.6667H40.6737C41.1963 38.6667 41.4576 38.6667 41.6639 38.5668C41.836 38.4835 41.9806 38.3526 42.0806 38.1897C42.2005 37.9943 42.2265 37.7343 42.2785 37.2142C42.377 36.229 42.4263 35.7363 42.6626 35.4879C42.8574 35.2831 43.1297 35.1703 43.4122 35.1774C43.755 35.186 44.1381 35.4994 44.9044 36.1263C45.3087 36.4571 45.5109 36.6226 45.7338 36.676C45.9198 36.7205 46.1146 36.7108 46.2953 36.6479C46.5117 36.5726 46.6965 36.3879 47.0659 36.0185L48.019 35.0654C48.3883 34.696 48.573 34.5114 48.6483 34.295C48.7112 34.1143 48.7209 33.9193 48.6763 33.7333C48.6229 33.5104 48.4576 33.3083 48.1268 32.9041C47.5001 32.1381 47.1868 31.7551 47.1781 31.4124C47.171 31.1298 47.2838 30.8573 47.4888 30.6625C47.7372 30.4263 48.2296 30.377 49.2145 30.2785C49.7342 30.2266 49.9941 30.2006 50.1895 30.0807C50.3525 29.9807 50.4835 29.836 50.5668 29.6638C50.6666 29.4575 50.6666 29.1963 50.6666 28.674V27.3261C50.6666 26.8037 50.6666 26.5424 50.5667 26.3361C50.4834 26.164 50.3525 26.0193 50.1896 25.9193C49.9942 25.7994 49.7342 25.7734 49.2144 25.7214C48.2292 25.6229 47.7367 25.5737 47.4882 25.3373C47.2834 25.1426 47.1706 24.8703 47.1777 24.5878C47.1863 24.2449 47.4997 23.8618 48.1267 23.0956C48.4575 22.6912 48.6229 22.489 48.6763 22.2661C48.7209 22.0802 48.7111 21.8853 48.6483 21.7047C48.573 21.4882 48.3883 21.3035 48.0189 20.934L47.0658 19.981C46.6964 19.6116 46.5117 19.4269 46.2952 19.3516C46.1146 19.2887 45.9197 19.279 45.7337 19.3236C45.5108 19.377 45.3087 19.5424 44.9043 19.8732C44.1381 20.5001 43.755 20.8136 43.4122 20.8221C43.1297 20.8292 42.8573 20.7164 42.6626 20.5117C42.4262 20.2632 42.377 19.7706 42.2785 18.7855Z" fill="white"/>
<path d="M43.4122 20.8221L43.4272 21.422L43.4122 20.8221ZM42.6626 20.5117L42.2278 20.9252L42.6626 20.5117ZM47.0658 19.981L47.4901 19.5567L47.0658 19.981ZM46.2952 19.3516L46.4923 18.7849L46.2952 19.3516ZM45.7337 19.3236L45.594 18.7401L45.7337 19.3236ZM48.6763 22.2661L49.2598 22.4059L48.6763 22.2661ZM48.0189 20.934L47.5946 21.3583L48.0189 20.934ZM48.6483 21.7047L49.215 21.5076L48.6483 21.7047ZM47.4882 25.3373L47.9017 24.9026L47.4882 25.3373ZM47.1777 24.5878L46.5779 24.5727L47.1777 24.5878ZM50.5667 26.3361L51.1068 26.0747L50.5667 26.3361ZM50.1896 25.9193L50.5033 25.4079L50.1896 25.9193ZM50.1895 30.0807L50.5032 30.5922L50.1895 30.0807ZM50.5668 29.6638L51.1069 29.9251L50.5668 29.6638ZM47.1781 31.4124L46.5783 31.4276L47.1781 31.4124ZM47.4888 30.6625L47.9022 31.0973L47.4888 30.6625ZM48.019 35.0654L48.4433 35.4896L48.019 35.0654ZM48.6483 34.295L48.0816 34.0978L48.6483 34.295ZM48.6763 33.7333L49.2598 33.5934L48.6763 33.7333ZM45.7338 36.676L45.8736 36.0925L45.7338 36.676ZM47.0659 36.0185L46.6416 35.5942L47.0659 36.0185ZM46.2953 36.6479L46.0981 36.0813L46.2953 36.6479ZM42.6626 35.4879L42.2279 35.0744L42.6626 35.4879ZM43.4122 35.1774L43.3972 35.7772L43.4122 35.1774ZM41.6639 38.5668L41.4025 38.0267L41.6639 38.5668ZM42.0806 38.1897L42.5919 38.5036L42.0806 38.1897ZM37.9192 38.1896L38.4306 37.8759L37.9192 38.1896ZM38.336 38.5668L38.0747 39.1069L38.336 38.5668ZM36.5877 35.1778L36.5727 34.578L36.5877 35.1778ZM37.3372 35.4883L37.772 35.0747L37.3372 35.4883ZM32.9339 36.019L32.5096 36.4432L32.9339 36.019ZM33.7046 36.6484L33.5075 37.2151L33.7046 36.6484ZM34.266 36.6764L34.1262 36.0929L34.266 36.6764ZM31.3234 33.7339L30.7399 33.5941L31.3234 33.7339ZM31.9809 35.066L32.4052 34.6417L31.9809 35.066ZM31.3514 34.2953L30.7847 34.4924L31.3514 34.2953ZM32.5116 30.6627L32.0981 31.0974L32.5116 30.6627ZM32.8221 31.4122L32.2222 31.3972L32.8221 31.4122ZM29.3333 28.6739H28.7333H29.3333ZM29.4331 29.6639L29.9732 29.4026L29.4331 29.6639ZM29.8103 30.0807L29.4965 30.5921L29.8103 30.0807ZM29.8102 25.9194L30.124 26.4307L29.8102 25.9194ZM29.3333 27.3262H29.9333H29.3333ZM29.4331 26.336L29.9732 26.5974L29.4331 26.336ZM32.8225 24.5879L33.4223 24.5729L32.8225 24.5879ZM32.5121 25.3372L32.0985 24.9025L32.5121 25.3372ZM31.9811 20.9334L32.4053 21.3577L31.9811 20.9334ZM31.3514 21.7043L30.7847 21.5073L31.3514 21.7043ZM31.3235 22.2655L31.907 22.1258L31.3235 22.2655ZM34.266 19.3231L34.4058 18.7396L34.266 19.3231ZM32.934 19.9806L32.5097 19.5563L32.934 19.9806ZM33.7046 19.3511L33.5075 18.7844L33.7046 19.3511ZM37.3374 20.5111L36.9026 20.0977L37.3374 20.5111ZM36.5876 20.8217L36.5724 21.4215L36.5876 20.8217ZM41.6638 17.4332L41.9252 16.8931L41.6638 17.4332ZM42.2785 18.7855L41.6815 18.8452L42.2785 18.7855ZM42.0806 17.8104L41.5692 18.1241L42.0806 17.8104ZM38.3361 17.4331L38.5974 17.9732L38.3361 17.4331ZM37.9192 17.8105L38.4306 18.1242L37.9192 17.8105ZM39.3259 17.9333H40.6738V16.7333H39.3259V17.9333ZM32.4053 21.3577L33.3582 20.4048L32.5097 19.5563L31.5568 20.5092L32.4053 21.3577ZM29.9333 28.6739L29.9333 27.3262H28.7333L28.7333 28.6739H29.9333ZM33.3582 35.5947L32.4052 34.6417L31.5566 35.4902L32.5096 36.4432L33.3582 35.5947ZM40.6737 38.0667H39.326V39.2667H40.6737V38.0667ZM47.5948 34.6411L46.6416 35.5942L47.4901 36.4428L48.4433 35.4896L47.5948 34.6411ZM50.0666 27.3261V28.674H51.2666V27.3261H50.0666ZM46.6416 20.4053L47.5946 21.3583L48.4431 20.5098L47.4901 19.5567L46.6416 20.4053ZM44.5244 19.4088C44.1318 19.73 43.87 19.9434 43.6644 20.0818C43.4539 20.2236 43.3915 20.2225 43.3972 20.2223L43.4272 21.422C43.7756 21.4132 44.0763 21.2511 44.3345 21.0773C44.5978 20.9001 44.9106 20.6433 45.2843 20.3376L44.5244 19.4088ZM41.6815 18.8452C41.7295 19.3257 41.7691 19.7284 41.83 20.0398C41.8897 20.3454 41.9876 20.6726 42.2278 20.9252L43.0973 20.0981C43.1012 20.1022 43.0564 20.0589 43.0077 19.8098C42.9602 19.5666 42.926 19.2305 42.8755 18.7258L41.6815 18.8452ZM43.3972 20.2223C43.2842 20.2252 43.1752 20.18 43.0973 20.0981L42.2278 20.9252C42.5395 21.2528 42.9752 21.4333 43.4272 21.422L43.3972 20.2223ZM47.4901 19.5567C47.3122 19.3788 47.1542 19.2202 47.0123 19.0993C46.8647 18.9735 46.6991 18.8568 46.4923 18.7849L46.0981 19.9183C46.1078 19.9216 46.1428 19.935 46.234 20.0127C46.331 20.0953 46.4501 20.2138 46.6416 20.4053L47.4901 19.5567ZM45.2843 20.3376C45.4939 20.1661 45.6241 20.0601 45.7289 19.9875C45.8273 19.9192 45.8635 19.9095 45.8735 19.9071L45.594 18.7401C45.3811 18.7911 45.2047 18.8907 45.0453 19.0012C44.8921 19.1074 44.7191 19.2495 44.5244 19.4088L45.2843 20.3376ZM46.4923 18.7849C46.2033 18.6844 45.8916 18.6688 45.594 18.7401L45.8735 19.9071C45.9479 19.8893 46.0258 19.8931 46.0981 19.9183L46.4923 18.7849ZM48.591 23.4755C48.7504 23.2808 48.8925 23.1078 48.9987 22.9546C49.1092 22.7951 49.2088 22.6188 49.2598 22.4059L48.0928 22.1264C48.0904 22.1364 48.0806 22.1726 48.0124 22.271C47.9398 22.3757 47.8338 22.506 47.6623 22.7156L48.591 23.4755ZM47.5946 21.3583C47.7861 21.5498 47.9046 21.6689 47.9872 21.7659C48.0649 21.8571 48.0782 21.8921 48.0816 21.9018L49.215 21.5076C49.1431 21.3008 49.0264 21.1352 48.9005 20.9875C48.7797 20.8457 48.6211 20.6877 48.4431 20.5098L47.5946 21.3583ZM49.2598 22.4059C49.3311 22.1083 49.3155 21.7966 49.215 21.5076L48.0816 21.9018C48.1067 21.974 48.1106 22.052 48.0928 22.1264L49.2598 22.4059ZM49.2741 25.1244C48.7694 25.074 48.4333 25.0397 48.1901 24.9922C47.9409 24.9435 47.8976 24.8987 47.9017 24.9026L47.0747 25.7721C47.3272 26.0123 47.6544 26.1103 47.96 26.1699C48.2714 26.2308 48.6742 26.2704 49.1547 26.3185L49.2741 25.1244ZM47.6623 22.7156C47.3565 23.0893 47.0998 23.4022 46.9226 23.6654C46.7487 23.9237 46.5866 24.2243 46.5779 24.5727L47.7775 24.6028C47.7774 24.6084 47.7763 24.5461 47.918 24.3355C48.0564 24.1299 48.2699 23.8681 48.591 23.4755L47.6623 22.7156ZM47.9017 24.9026C47.8198 24.8247 47.7747 24.7158 47.7775 24.6028L46.5779 24.5727C46.5666 25.0248 46.7471 25.4604 47.0747 25.7721L47.9017 24.9026ZM51.2666 27.3261C51.2666 27.0745 51.267 26.8506 51.2522 26.6648C51.2368 26.4714 51.2022 26.2718 51.1068 26.0747L50.0266 26.5974C50.0311 26.6067 50.0465 26.6409 50.056 26.7603C50.0661 26.8873 50.0666 27.0553 50.0666 27.3261H51.2666ZM49.1547 26.3185C49.4241 26.3454 49.5913 26.3626 49.7166 26.3853C49.8345 26.4067 49.867 26.4253 49.8758 26.4307L50.5033 25.4079C50.3167 25.2934 50.1216 25.2391 49.9306 25.2045C49.7472 25.1713 49.5245 25.1495 49.2741 25.1244L49.1547 26.3185ZM51.1068 26.0747C50.9736 25.7993 50.7641 25.5679 50.5033 25.4079L49.8758 26.4307C49.941 26.4707 49.9933 26.5286 50.0266 26.5974L51.1068 26.0747ZM49.2742 30.8756C49.5245 30.8505 49.7473 30.8287 49.9306 30.7955C50.1215 30.7609 50.3166 30.7066 50.5032 30.5922L49.8757 29.5693C49.867 29.5747 49.8345 29.5934 49.7166 29.6147C49.5913 29.6374 49.4242 29.6546 49.1548 29.6815L49.2742 30.8756ZM50.0666 28.674C50.0666 28.9448 50.0661 29.1127 50.056 29.2397C50.0465 29.3591 50.0311 29.3933 50.0267 29.4025L51.1069 29.9251C51.2022 29.7281 51.2368 29.5285 51.2522 29.3351C51.267 29.1494 51.2666 28.9256 51.2666 28.674H50.0666ZM50.5032 30.5922C50.7641 30.4321 50.9736 30.2006 51.1069 29.9251L50.0267 29.4025C49.9933 29.4714 49.941 29.5293 49.8757 29.5693L50.5032 30.5922ZM48.5912 32.5241C48.2701 32.1317 48.0568 31.87 47.9184 31.6644C47.7767 31.454 47.7778 31.3917 47.7779 31.3973L46.5783 31.4276C46.5871 31.7759 46.7492 32.0764 46.923 32.3346C47.1001 32.5977 47.3568 32.9105 47.6625 33.284L48.5912 32.5241ZM49.1548 29.6815C48.6744 29.7296 48.2718 29.7692 47.9605 29.83C47.655 29.8896 47.3278 29.9876 47.0753 30.2276L47.9022 31.0973C47.8981 31.1012 47.9414 31.0564 48.1905 31.0077C48.4336 30.9603 48.7696 30.926 49.2742 30.8756L49.1548 29.6815ZM47.7779 31.3973C47.7751 31.2842 47.8202 31.1752 47.9022 31.0973L47.0753 30.2276C46.7475 30.5394 46.5669 30.9753 46.5783 31.4276L47.7779 31.3973ZM48.4433 35.4896C48.6212 35.3117 48.7797 35.1538 48.9006 35.012C49.0264 34.8644 49.143 34.6989 49.215 34.4922L48.0816 34.0978C48.0783 34.1075 48.0649 34.1425 47.9873 34.2336C47.9046 34.3306 47.7862 34.4497 47.5948 34.6411L48.4433 35.4896ZM47.6625 33.284C47.8339 33.4936 47.9399 33.6238 48.0125 33.7285C48.0807 33.8269 48.0905 33.8631 48.0928 33.8731L49.2598 33.5934C49.2088 33.3806 49.1092 33.2043 48.9987 33.0449C48.8925 32.8918 48.7505 32.7188 48.5912 32.5241L47.6625 33.284ZM49.215 34.4922C49.3156 34.2031 49.3312 33.8911 49.2598 33.5934L48.0928 33.8731C48.1107 33.9475 48.1068 34.0255 48.0816 34.0978L49.215 34.4922ZM44.5244 36.5907C44.7192 36.75 44.8921 36.8921 45.0453 36.9983C45.2048 37.1088 45.3811 37.2085 45.594 37.2594L45.8736 36.0925C45.8635 36.0901 45.8274 36.0803 45.7289 36.0121C45.6242 35.9395 45.4939 35.8334 45.2843 35.6619L44.5244 36.5907ZM46.6416 35.5942C46.4501 35.7857 46.331 35.9042 46.234 35.9869C46.1429 36.0645 46.1078 36.0779 46.0981 36.0813L46.4924 37.2146C46.6992 37.1427 46.8647 37.026 47.0124 36.9002C47.1542 36.7793 47.3122 36.6207 47.4901 36.4428L46.6416 35.5942ZM45.594 37.2594C45.8916 37.3307 46.2034 37.3152 46.4924 37.2146L46.0981 36.0813C46.0259 36.1064 45.9479 36.1103 45.8736 36.0925L45.594 37.2594ZM42.8755 37.2739C42.926 36.7692 42.9602 36.433 43.0078 36.1898C43.0564 35.9406 43.1013 35.8973 43.0974 35.9014L42.2279 35.0744C41.9877 35.3269 41.8897 35.6542 41.83 35.9597C41.7692 36.2712 41.7295 36.674 41.6815 37.1545L42.8755 37.2739ZM45.2843 35.6619C44.9106 35.3562 44.5978 35.0994 44.3346 34.9222C44.0763 34.7484 43.7757 34.5863 43.4272 34.5776L43.3972 35.7772C43.3916 35.777 43.4539 35.776 43.6645 35.9177C43.87 36.0561 44.1319 36.2695 44.5244 36.5907L45.2843 35.6619ZM43.0974 35.9014C43.1753 35.8195 43.2842 35.7744 43.3972 35.7772L43.4272 34.5776C42.9752 34.5662 42.5395 34.7467 42.2279 35.0744L43.0974 35.9014ZM40.6737 39.2667C40.9254 39.2667 41.1493 39.2671 41.3351 39.2523C41.5286 39.2368 41.7282 39.2022 41.9253 39.1068L41.4025 38.0267C41.3933 38.0312 41.3591 38.0465 41.2396 38.0561C41.1126 38.0662 40.9445 38.0667 40.6737 38.0667V39.2667ZM41.6815 37.1545C41.6545 37.4241 41.6374 37.5913 41.6146 37.7167C41.5932 37.8346 41.5746 37.8671 41.5692 37.8759L42.5919 38.5036C42.7065 38.3169 42.7608 38.1217 42.7954 37.9307C42.8286 37.7473 42.8505 37.5244 42.8755 37.2739L41.6815 37.1545ZM41.9253 39.1068C42.2006 38.9736 42.432 38.7642 42.5919 38.5036L41.5692 37.8759C41.5292 37.9411 41.4714 37.9934 41.4025 38.0267L41.9253 39.1068ZM37.1243 37.2742C37.1494 37.5246 37.1712 37.7473 37.2045 37.9307C37.2391 38.1216 37.2933 38.3168 37.4078 38.5034L38.4306 37.8759C38.4253 37.8671 38.4066 37.8346 38.3852 37.7167C38.3625 37.5913 38.3453 37.4242 38.3184 37.1547L37.1243 37.2742ZM39.326 38.0667C39.0552 38.0667 38.8872 38.0662 38.7602 38.0561C38.6408 38.0466 38.6066 38.0312 38.5973 38.0267L38.0747 39.1069C38.2717 39.2023 38.4713 39.2369 38.6648 39.2523C38.8505 39.2671 39.0744 39.2667 39.326 39.2667V38.0667ZM37.4078 38.5034C37.5678 38.7642 37.7993 38.9736 38.0747 39.1069L38.5973 38.0267C38.5285 37.9934 38.4706 37.941 38.4306 37.8759L37.4078 38.5034ZM35.4754 36.5912C35.868 36.27 36.1298 36.0565 36.3354 35.9181C36.546 35.7764 36.6083 35.7775 36.6027 35.7776L36.5727 34.578C36.2242 34.5867 35.9236 34.7488 35.6653 34.9227C35.4021 35.0999 35.0892 35.3566 34.7155 35.6624L35.4754 36.5912ZM38.3184 37.1547C38.2703 36.6743 38.2307 36.2715 38.1699 35.9601C38.1102 35.6545 38.0122 35.3273 37.772 35.0747L36.9025 35.9018C36.8986 35.8977 36.9435 35.941 36.9921 36.1901C37.0396 36.4334 37.0739 36.7695 37.1243 37.2742L38.3184 37.1547ZM36.6027 35.7776C36.7157 35.7748 36.8246 35.8199 36.9025 35.9018L37.772 35.0747C37.4604 34.7471 37.0247 34.5667 36.5727 34.578L36.6027 35.7776ZM32.5096 36.4432C32.6876 36.6212 32.8456 36.7798 32.9874 36.9007C33.1351 37.0265 33.3007 37.1432 33.5075 37.2151L33.9017 36.0817C33.892 36.0784 33.8569 36.065 33.7658 35.9873C33.6688 35.9047 33.5497 35.7862 33.3582 35.5947L32.5096 36.4432ZM34.7155 35.6624C34.5059 35.8339 34.3756 35.9399 34.2709 36.0125C34.1724 36.0808 34.1362 36.0905 34.1262 36.0929L34.4057 37.2599C34.6186 37.209 34.795 37.1093 34.9545 36.9988C35.1077 36.8926 35.2806 36.7505 35.4754 36.5912L34.7155 35.6624ZM33.5075 37.2151C33.7964 37.3157 34.1082 37.3312 34.4057 37.2599L34.1262 36.0929C34.0519 36.1108 33.9739 36.1069 33.9017 36.0817L33.5075 37.2151ZM31.4087 32.5245C31.2494 32.7192 31.1073 32.8922 31.0011 33.0454C30.8906 33.2049 30.7909 33.3812 30.7399 33.5941L31.9069 33.8736C31.9093 33.8636 31.9191 33.8274 31.9873 33.729C32.0599 33.6243 32.166 33.494 32.3375 33.2844L31.4087 32.5245ZM32.4052 34.6417C32.2137 34.4502 32.0952 34.3311 32.0125 34.2341C31.9348 34.143 31.9215 34.1079 31.9181 34.0982L30.7847 34.4924C30.8567 34.6992 30.9734 34.8648 31.0992 35.0125C31.2201 35.1543 31.3787 35.3123 31.5566 35.4902L32.4052 34.6417ZM30.7399 33.5941C30.6687 33.8917 30.6842 34.2034 30.7847 34.4924L31.9181 34.0982C31.893 34.026 31.8891 33.948 31.9069 33.8736L30.7399 33.5941ZM30.7257 30.8756C31.2304 30.926 31.5665 30.9603 31.8097 31.0078C32.0588 31.0564 32.1021 31.1013 32.0981 31.0974L32.9251 30.2279C32.6725 29.9877 32.3453 29.8897 32.0398 29.83C31.7283 29.7692 31.3256 29.7296 30.8451 29.6815L30.7257 30.8756ZM32.3375 33.2844C32.6432 32.9107 32.9 32.5978 33.0772 32.3346C33.2511 32.0763 33.4132 31.7757 33.4219 31.4273L32.2222 31.3972C32.2224 31.3916 32.2235 31.4539 32.0817 31.6645C31.9433 31.8701 31.7299 32.1319 31.4087 32.5245L32.3375 33.2844ZM32.0981 31.0974C32.18 31.1753 32.2251 31.2842 32.2222 31.3972L33.4219 31.4273C33.4332 30.9752 33.2527 30.5395 32.9251 30.2279L32.0981 31.0974ZM28.7333 28.6739C28.7333 28.9255 28.7328 29.1494 28.7476 29.3352C28.7631 29.5286 28.7976 29.7282 28.893 29.9252L29.9732 29.4026C29.9687 29.3933 29.9534 29.3591 29.9438 29.2397C29.9337 29.1127 29.9333 28.9447 29.9333 28.6739H28.7333ZM30.8451 29.6815C30.5757 29.6546 30.4086 29.6374 30.2832 29.6147C30.1653 29.5933 30.1328 29.5747 30.1241 29.5693L29.4965 30.5921C29.6831 30.7066 29.8783 30.7609 30.0692 30.7955C30.2526 30.8287 30.4754 30.8505 30.7257 30.8756L30.8451 29.6815ZM28.893 29.9252C29.0263 30.2007 29.2357 30.4321 29.4965 30.5921L30.1241 29.5693C30.0589 29.5293 30.0065 29.4714 29.9732 29.4026L28.893 29.9252ZM30.7259 25.1244C30.4754 25.1495 30.2526 25.1713 30.0692 25.2045C29.8782 25.2392 29.683 25.2934 29.4964 25.408L30.124 26.4307C30.1328 26.4253 30.1653 26.4067 30.2832 26.3853C30.4086 26.3626 30.5758 26.3454 30.8453 26.3185L30.7259 25.1244ZM29.9333 27.3262C29.9333 27.0554 29.9337 26.8873 29.9438 26.7603C29.9534 26.6409 29.9687 26.6067 29.9732 26.5974L28.8931 26.0746C28.7977 26.2717 28.7631 26.4714 28.7476 26.6648C28.7328 26.8506 28.7333 27.0745 28.7333 27.3262H29.9333ZM29.4964 25.408C29.2357 25.568 29.0263 25.7993 28.8931 26.0746L29.9732 26.5974C30.0065 26.5286 30.0589 26.4707 30.124 26.4307L29.4964 25.408ZM31.4089 23.4752C31.7302 23.8679 31.9437 24.1298 32.0821 24.3355C32.2239 24.5461 32.2228 24.6084 32.2227 24.6028L33.4223 24.5729C33.4136 24.2244 33.2515 23.9237 33.0776 23.6653C32.9003 23.402 32.6435 23.0891 32.3377 22.7153L31.4089 23.4752ZM30.8453 26.3185C31.3258 26.2704 31.7287 26.2307 32.0402 26.1699C32.3458 26.1102 32.6731 26.0122 32.9257 25.7719L32.0985 24.9025C32.1026 24.8986 32.0593 24.9435 31.8101 24.9922C31.5668 25.0397 31.2307 25.0739 30.7259 25.1244L30.8453 26.3185ZM32.2227 24.6028C32.2255 24.7157 32.1804 24.8246 32.0985 24.9025L32.9257 25.7719C33.2531 25.4603 33.4335 25.0248 33.4223 24.5729L32.2227 24.6028ZM31.5568 20.5092C31.3788 20.6872 31.2202 20.8452 31.0992 20.9871C30.9733 21.1348 30.8566 21.3005 30.7847 21.5073L31.9182 21.9014C31.9215 21.8917 31.9349 21.8566 32.0126 21.7654C32.0953 21.6684 32.2138 21.5492 32.4053 21.3577L31.5568 20.5092ZM32.3377 22.7153C32.1661 22.5056 32.06 22.3753 31.9874 22.2705C31.9191 22.172 31.9094 22.1358 31.907 22.1258L30.7399 22.4051C30.7909 22.6181 30.8906 22.7946 31.0011 22.9541C31.1073 23.1073 31.2495 23.2804 31.4089 23.4752L32.3377 22.7153ZM30.7847 21.5073C30.6843 21.7962 30.6688 22.1077 30.7399 22.4051L31.907 22.1258C31.8892 22.0515 31.8931 21.9736 31.9182 21.9014L30.7847 21.5073ZM35.4755 19.4084C35.2807 19.2491 35.1078 19.1069 34.9546 19.0008C34.7951 18.8902 34.6187 18.7906 34.4058 18.7396L34.1263 19.9066C34.1363 19.909 34.1725 19.9187 34.2709 19.987C34.3757 20.0596 34.506 20.1657 34.7157 20.3372L35.4755 19.4084ZM33.3582 20.4048C33.5497 20.2133 33.6688 20.0948 33.7658 20.0122C33.857 19.9345 33.892 19.9212 33.9017 19.9178L33.5075 18.7844C33.3007 18.8563 33.1351 18.973 32.9875 19.0988C32.8456 19.2197 32.6876 19.3783 32.5097 19.5563L33.3582 20.4048ZM34.4058 18.7396C34.1082 18.6683 33.7965 18.6839 33.5075 18.7844L33.9017 19.9178C33.974 19.8927 34.0519 19.8888 34.1263 19.9066L34.4058 18.7396ZM37.1244 18.7257C37.0739 19.2302 37.0397 19.5662 36.9922 19.8094C36.9435 20.0584 36.8987 20.1017 36.9026 20.0977L37.7722 20.9246C38.0123 20.672 38.1103 20.3449 38.1699 20.0394C38.2307 19.7281 38.2704 19.3254 38.3184 18.8451L37.1244 18.7257ZM34.7157 20.3372C35.0893 20.6429 35.4021 20.8996 35.6653 21.0768C35.9235 21.2507 36.2241 21.4128 36.5724 21.4215L36.6027 20.2219C36.6083 20.2221 36.546 20.2231 36.3354 20.0814C36.1299 19.943 35.868 19.7296 35.4755 19.4084L34.7157 20.3372ZM36.9026 20.0977C36.8247 20.1796 36.7157 20.2248 36.6027 20.2219L36.5724 21.4215C37.0246 21.4329 37.4605 21.2524 37.7722 20.9246L36.9026 20.0977ZM40.6738 17.9333C40.9446 17.9333 41.1126 17.9338 41.2396 17.9439C41.359 17.9534 41.3932 17.9688 41.4025 17.9733L41.9252 16.8931C41.7281 16.7977 41.5285 16.7631 41.3351 16.7477C41.1493 16.7329 40.9255 16.7333 40.6738 16.7333V17.9333ZM42.8755 18.7258C42.8505 18.4754 42.8286 18.2527 42.7954 18.0693C42.7608 17.8784 42.7065 17.6832 42.592 17.4966L41.5692 18.1241C41.5746 18.1329 41.5933 18.1654 41.6146 18.2833C41.6373 18.4087 41.6545 18.5758 41.6815 18.8452L42.8755 18.7258ZM41.4025 17.9733C41.4713 18.0066 41.5292 18.0589 41.5692 18.1241L42.592 17.4966C42.432 17.2358 42.2006 17.0263 41.9252 16.8931L41.4025 17.9733ZM39.3259 16.7333C39.0743 16.7333 38.8505 16.7329 38.6648 16.7477C38.4714 16.7631 38.2719 16.7977 38.0749 16.893L38.5974 17.9732C38.6067 17.9688 38.6408 17.9534 38.7602 17.9439C38.8872 17.9338 39.0551 17.9333 39.3259 17.9333V16.7333ZM38.3184 18.8451C38.3453 18.5757 38.3625 18.4086 38.3852 18.2833C38.4066 18.1654 38.4252 18.133 38.4306 18.1242L37.4077 17.4967C37.2933 17.6833 37.239 17.8784 37.2044 18.0693C37.1712 18.2526 37.1494 18.4754 37.1244 18.7257L38.3184 18.8451ZM38.0749 16.893C37.7993 17.0263 37.5678 17.2358 37.4077 17.4967L38.4306 18.1242C38.4706 18.059 38.5285 18.0066 38.5974 17.9732L38.0749 16.893Z" fill="white"/>
<circle cx="40" cy="28" r="4" fill="#AA81F3"/>
<path d="M69.2784 34V22.3636H73.4261C74.3314 22.3636 75.0814 22.5284 75.6761 22.858C76.2708 23.1875 76.7159 23.6383 77.0114 24.2102C77.3068 24.7784 77.4545 25.4186 77.4545 26.1307C77.4545 26.8466 77.3049 27.4905 77.0057 28.0625C76.7102 28.6307 76.2633 29.0814 75.6648 29.4148C75.0701 29.7443 74.322 29.9091 73.4205 29.9091H70.5682V28.4205H73.2614C73.8333 28.4205 74.2973 28.322 74.6534 28.125C75.0095 27.9242 75.2708 27.6515 75.4375 27.3068C75.6042 26.9621 75.6875 26.5701 75.6875 26.1307C75.6875 25.6913 75.6042 25.3011 75.4375 24.9602C75.2708 24.6193 75.0076 24.3523 74.6477 24.1591C74.2917 23.9659 73.822 23.8693 73.2386 23.8693H71.0341V34H69.2784ZM79.2004 34V25.2727H80.8425V26.6591H80.9334C81.0925 26.1894 81.3728 25.8201 81.7743 25.5511C82.1796 25.2784 82.6379 25.142 83.1493 25.142C83.2553 25.142 83.3803 25.1458 83.5243 25.1534C83.672 25.161 83.7875 25.1705 83.8709 25.1818V26.8068C83.8027 26.7879 83.6815 26.767 83.5072 26.7443C83.333 26.7178 83.1588 26.7045 82.9845 26.7045C82.583 26.7045 82.225 26.7898 81.9106 26.9602C81.6 27.1269 81.3538 27.3598 81.172 27.6591C80.9902 27.9545 80.8993 28.2917 80.8993 28.6705V34H79.2004ZM88.5287 34.1761C87.7105 34.1761 86.9965 33.9886 86.3866 33.6136C85.7768 33.2386 85.3033 32.714 84.9662 32.0398C84.6291 31.3655 84.4605 30.5777 84.4605 29.6761C84.4605 28.7708 84.6291 27.9792 84.9662 27.3011C85.3033 26.6231 85.7768 26.0966 86.3866 25.7216C86.9965 25.3466 87.7105 25.1591 88.5287 25.1591C89.3469 25.1591 90.0609 25.3466 90.6707 25.7216C91.2806 26.0966 91.7541 26.6231 92.0912 27.3011C92.4283 27.9792 92.5969 28.7708 92.5969 29.6761C92.5969 30.5777 92.4283 31.3655 92.0912 32.0398C91.7541 32.714 91.2806 33.2386 90.6707 33.6136C90.0609 33.9886 89.3469 34.1761 88.5287 34.1761ZM88.5344 32.75C89.0647 32.75 89.5041 32.6098 89.8525 32.3295C90.201 32.0492 90.4586 31.6761 90.6253 31.2102C90.7957 30.7443 90.881 30.2311 90.881 29.6705C90.881 29.1136 90.7957 28.6023 90.6253 28.1364C90.4586 27.6667 90.201 27.2898 89.8525 27.0057C89.5041 26.7216 89.0647 26.5795 88.5344 26.5795C88.0003 26.5795 87.5571 26.7216 87.2048 27.0057C86.8563 27.2898 86.5969 27.6667 86.4264 28.1364C86.2597 28.6023 86.1764 29.1136 86.1764 29.6705C86.1764 30.2311 86.2597 30.7443 86.4264 31.2102C86.5969 31.6761 86.8563 32.0492 87.2048 32.3295C87.5571 32.6098 88.0003 32.75 88.5344 32.75ZM98.4706 25.2727V26.6364H93.5388V25.2727H98.4706ZM94.891 34V24.2614C94.891 23.7159 95.0104 23.2633 95.249 22.9034C95.4876 22.5398 95.8039 22.2689 96.1979 22.0909C96.5918 21.9091 97.0198 21.8182 97.4819 21.8182C97.8229 21.8182 98.1145 21.8466 98.3569 21.9034C98.5994 21.9564 98.7793 22.0057 98.8967 22.0511L98.499 23.4261C98.4194 23.4034 98.3172 23.3769 98.1922 23.3466C98.0672 23.3125 97.9157 23.2955 97.7376 23.2955C97.3247 23.2955 97.0293 23.3977 96.8513 23.6023C96.677 23.8068 96.5899 24.1023 96.5899 24.4886V34H94.891ZM100.047 34V25.2727H101.746V34H100.047ZM100.905 23.9261C100.61 23.9261 100.356 23.8277 100.144 23.6307C99.9357 23.4299 99.8315 23.1913 99.8315 22.9148C99.8315 22.6345 99.9357 22.3958 100.144 22.1989C100.356 21.9981 100.61 21.8977 100.905 21.8977C101.201 21.8977 101.453 21.9981 101.661 22.1989C101.873 22.3958 101.979 22.6345 101.979 22.9148C101.979 23.1913 101.873 23.4299 101.661 23.6307C101.453 23.8277 101.201 23.9261 100.905 23.9261ZM105.555 22.3636V34H103.856V22.3636H105.555ZM111.426 34.1761C110.566 34.1761 109.825 33.9924 109.204 33.625C108.587 33.2538 108.109 32.733 107.772 32.0625C107.439 31.3883 107.272 30.5985 107.272 29.6932C107.272 28.7992 107.439 28.0114 107.772 27.3295C108.109 26.6477 108.579 26.1155 109.181 25.733C109.787 25.3504 110.496 25.1591 111.306 25.1591C111.799 25.1591 112.276 25.2405 112.738 25.4034C113.2 25.5663 113.615 25.822 113.982 26.1705C114.35 26.5189 114.64 26.9716 114.852 27.5284C115.064 28.0814 115.17 28.7538 115.17 29.5455V30.1477H108.232V28.875H113.505C113.505 28.428 113.414 28.0322 113.232 27.6875C113.051 27.339 112.795 27.0644 112.465 26.8636C112.14 26.6629 111.757 26.5625 111.318 26.5625C110.84 26.5625 110.424 26.6799 110.068 26.9148C109.715 27.1458 109.443 27.4489 109.249 27.8239C109.06 28.1951 108.965 28.5985 108.965 29.0341V30.0284C108.965 30.6117 109.068 31.108 109.272 31.517C109.48 31.9261 109.77 32.2386 110.141 32.4545C110.513 32.6667 110.946 32.7727 111.443 32.7727C111.765 32.7727 112.058 32.7273 112.323 32.6364C112.588 32.5417 112.818 32.4015 113.011 32.2159C113.204 32.0303 113.352 31.8011 113.454 31.5284L115.062 31.8182C114.933 32.2917 114.702 32.7064 114.369 33.0625C114.039 33.4148 113.624 33.6894 113.124 33.8864C112.628 34.0795 112.062 34.1761 111.426 34.1761ZM127.42 25.4205C127.36 24.8826 127.11 24.4659 126.67 24.1705C126.231 23.8712 125.678 23.7216 125.011 23.7216C124.534 23.7216 124.121 23.7973 123.772 23.9489C123.424 24.0966 123.153 24.3011 122.96 24.5625C122.771 24.8201 122.676 25.1136 122.676 25.4432C122.676 25.7197 122.74 25.9583 122.869 26.1591C123.002 26.3598 123.174 26.5284 123.386 26.6648C123.602 26.7973 123.833 26.9091 124.079 27C124.325 27.0871 124.562 27.1591 124.789 27.2159L125.926 27.5114C126.297 27.6023 126.678 27.7254 127.068 27.8807C127.458 28.036 127.82 28.2405 128.153 28.4943C128.486 28.7481 128.755 29.0625 128.96 29.4375C129.168 29.8125 129.272 30.2614 129.272 30.7841C129.272 31.4432 129.102 32.0284 128.761 32.5398C128.424 33.0511 127.933 33.4545 127.289 33.75C126.649 34.0455 125.875 34.1932 124.966 34.1932C124.094 34.1932 123.341 34.0549 122.704 33.7784C122.068 33.5019 121.57 33.1098 121.21 32.6023C120.85 32.0909 120.651 31.4848 120.613 30.7841H122.375C122.409 31.2045 122.545 31.5549 122.784 31.8352C123.026 32.1117 123.335 32.3182 123.71 32.4545C124.089 32.5871 124.503 32.6534 124.954 32.6534C125.45 32.6534 125.892 32.5758 126.278 32.4205C126.668 32.2614 126.975 32.0417 127.199 31.7614C127.422 31.4773 127.534 31.1458 127.534 30.767C127.534 30.4223 127.435 30.1402 127.238 29.9205C127.045 29.7008 126.782 29.5189 126.449 29.375C126.119 29.2311 125.746 29.1042 125.329 28.9943L123.954 28.6193C123.022 28.3655 122.284 27.9924 121.738 27.5C121.197 27.0076 120.926 26.3561 120.926 25.5455C120.926 24.875 121.108 24.2898 121.471 23.7898C121.835 23.2898 122.327 22.9015 122.949 22.625C123.57 22.3447 124.271 22.2045 125.051 22.2045C125.839 22.2045 126.534 22.3428 127.136 22.6193C127.742 22.8958 128.219 23.2765 128.568 23.7614C128.916 24.2424 129.098 24.7955 129.113 25.4205H127.42ZM134.819 34.1761C133.96 34.1761 133.219 33.9924 132.598 33.625C131.98 33.2538 131.503 32.733 131.166 32.0625C130.833 31.3883 130.666 30.5985 130.666 29.6932C130.666 28.7992 130.833 28.0114 131.166 27.3295C131.503 26.6477 131.973 26.1155 132.575 25.733C133.181 25.3504 133.889 25.1591 134.7 25.1591C135.193 25.1591 135.67 25.2405 136.132 25.4034C136.594 25.5663 137.009 25.822 137.376 26.1705C137.744 26.5189 138.033 26.9716 138.246 27.5284C138.458 28.0814 138.564 28.7538 138.564 29.5455V30.1477H131.626V28.875H136.899C136.899 28.428 136.808 28.0322 136.626 27.6875C136.444 27.339 136.189 27.0644 135.859 26.8636C135.533 26.6629 135.151 26.5625 134.711 26.5625C134.234 26.5625 133.818 26.6799 133.461 26.9148C133.109 27.1458 132.836 27.4489 132.643 27.8239C132.454 28.1951 132.359 28.5985 132.359 29.0341V30.0284C132.359 30.6117 132.461 31.108 132.666 31.517C132.874 31.9261 133.164 32.2386 133.535 32.4545C133.907 32.6667 134.34 32.7727 134.836 32.7727C135.158 32.7727 135.452 32.7273 135.717 32.6364C135.982 32.5417 136.211 32.4015 136.405 32.2159C136.598 32.0303 136.746 31.8011 136.848 31.5284L138.456 31.8182C138.327 32.2917 138.096 32.7064 137.763 33.0625C137.433 33.4148 137.018 33.6894 136.518 33.8864C136.022 34.0795 135.456 34.1761 134.819 34.1761ZM144.347 25.2727V26.6364H139.579V25.2727H144.347ZM140.858 23.1818H142.557V31.4375C142.557 31.767 142.606 32.0152 142.704 32.1818C142.803 32.3447 142.93 32.4564 143.085 32.517C143.244 32.5739 143.417 32.6023 143.602 32.6023C143.739 32.6023 143.858 32.5928 143.96 32.5739C144.062 32.5549 144.142 32.5398 144.199 32.5284L144.506 33.9318C144.407 33.9697 144.267 34.0076 144.085 34.0455C143.903 34.0871 143.676 34.1098 143.403 34.1136C142.956 34.1212 142.54 34.0417 142.153 33.875C141.767 33.7083 141.454 33.4508 141.216 33.1023C140.977 32.7538 140.858 32.3163 140.858 31.7898V23.1818ZM150.124 25.2727V26.6364H145.357V25.2727H150.124ZM146.635 23.1818H148.334V31.4375C148.334 31.767 148.383 32.0152 148.482 32.1818C148.58 32.3447 148.707 32.4564 148.862 32.517C149.021 32.5739 149.194 32.6023 149.379 32.6023C149.516 32.6023 149.635 32.5928 149.737 32.5739C149.84 32.5549 149.919 32.5398 149.976 32.5284L150.283 33.9318C150.184 33.9697 150.044 34.0076 149.862 34.0455C149.68 34.0871 149.453 34.1098 149.18 34.1136C148.734 34.1212 148.317 34.0417 147.93 33.875C147.544 33.7083 147.232 33.4508 146.993 33.1023C146.754 32.7538 146.635 32.3163 146.635 31.7898V23.1818ZM151.827 34V25.2727H153.526V34H151.827ZM152.685 23.9261C152.389 23.9261 152.136 23.8277 151.924 23.6307C151.715 23.4299 151.611 23.1913 151.611 22.9148C151.611 22.6345 151.715 22.3958 151.924 22.1989C152.136 21.9981 152.389 21.8977 152.685 21.8977C152.98 21.8977 153.232 21.9981 153.441 22.1989C153.653 22.3958 153.759 22.6345 153.759 22.9148C153.759 23.1913 153.653 23.4299 153.441 23.6307C153.232 23.8277 152.98 23.9261 152.685 23.9261ZM157.334 28.8182V34H155.635V25.2727H157.266V26.6932H157.374C157.575 26.2311 157.889 25.8598 158.317 25.5795C158.749 25.2992 159.292 25.1591 159.948 25.1591C160.542 25.1591 161.063 25.2841 161.51 25.5341C161.957 25.7803 162.304 26.1477 162.55 26.6364C162.796 27.125 162.919 27.7292 162.919 28.4489V34H161.221V28.6534C161.221 28.0208 161.056 27.5265 160.726 27.1705C160.397 26.8106 159.944 26.6307 159.368 26.6307C158.974 26.6307 158.624 26.7159 158.317 26.8864C158.014 27.0568 157.774 27.3068 157.596 27.6364C157.421 27.9621 157.334 28.3561 157.334 28.8182ZM168.681 37.4545C167.988 37.4545 167.391 37.3636 166.891 37.1818C166.395 37 165.99 36.7595 165.675 36.4602C165.361 36.161 165.126 35.8333 164.971 35.4773L166.431 34.875C166.533 35.0417 166.67 35.2178 166.84 35.4034C167.014 35.5928 167.249 35.7538 167.545 35.8864C167.844 36.0189 168.228 36.0852 168.698 36.0852C169.342 36.0852 169.874 35.928 170.295 35.6136C170.715 35.303 170.925 34.8068 170.925 34.125V32.4091H170.817C170.715 32.5947 170.567 32.8011 170.374 33.0284C170.185 33.2557 169.923 33.4527 169.59 33.6193C169.257 33.786 168.823 33.8693 168.289 33.8693C167.599 33.8693 166.978 33.7083 166.425 33.3864C165.876 33.0606 165.44 32.5814 165.118 31.9489C164.8 31.3125 164.641 30.5303 164.641 29.6023C164.641 28.6742 164.798 27.8788 165.113 27.2159C165.431 26.553 165.866 26.0455 166.42 25.6932C166.973 25.3371 167.599 25.1591 168.3 25.1591C168.842 25.1591 169.279 25.25 169.613 25.4318C169.946 25.6098 170.206 25.8182 170.391 26.0568C170.581 26.2955 170.726 26.5057 170.829 26.6875H170.954V25.2727H172.618V34.1932C172.618 34.9432 172.444 35.5587 172.096 36.0398C171.747 36.5208 171.276 36.8769 170.681 37.108C170.09 37.339 169.423 37.4545 168.681 37.4545ZM168.664 32.4602C169.152 32.4602 169.565 32.3466 169.902 32.1193C170.243 31.8883 170.501 31.5587 170.675 31.1307C170.853 30.6989 170.942 30.1818 170.942 29.5795C170.942 28.9924 170.855 28.4754 170.681 28.0284C170.507 27.5814 170.251 27.233 169.914 26.983C169.577 26.7292 169.16 26.6023 168.664 26.6023C168.152 26.6023 167.726 26.7348 167.385 27C167.045 27.2614 166.787 27.6174 166.613 28.0682C166.442 28.5189 166.357 29.0227 166.357 29.5795C166.357 30.1515 166.444 30.6534 166.618 31.0852C166.793 31.517 167.05 31.8542 167.391 32.0966C167.736 32.339 168.16 32.4602 168.664 32.4602ZM181.261 27.4034L179.721 27.6761C179.656 27.4792 179.554 27.2917 179.414 27.1136C179.278 26.9356 179.092 26.7898 178.857 26.6761C178.622 26.5625 178.329 26.5057 177.976 26.5057C177.495 26.5057 177.094 26.6136 176.772 26.8295C176.45 27.0417 176.289 27.3163 176.289 27.6534C176.289 27.9451 176.397 28.1799 176.613 28.358C176.829 28.536 177.177 28.6818 177.658 28.7955L179.045 29.1136C179.848 29.2992 180.446 29.5852 180.84 29.9716C181.234 30.358 181.431 30.8598 181.431 31.4773C181.431 32 181.28 32.4659 180.976 32.875C180.677 33.2803 180.259 33.5985 179.721 33.8295C179.187 34.0606 178.567 34.1761 177.863 34.1761C176.886 34.1761 176.088 33.9678 175.471 33.5511C174.853 33.1307 174.475 32.5341 174.334 31.7614L175.976 31.5114C176.079 31.9394 176.289 32.2633 176.607 32.483C176.925 32.6989 177.34 32.8068 177.851 32.8068C178.408 32.8068 178.853 32.6913 179.187 32.4602C179.52 32.2254 179.687 31.9394 179.687 31.6023C179.687 31.3295 179.584 31.1004 179.38 30.9148C179.179 30.7292 178.87 30.589 178.454 30.4943L176.976 30.1705C176.162 29.9848 175.56 29.6894 175.17 29.2841C174.783 28.8788 174.59 28.3655 174.59 27.7443C174.59 27.2292 174.734 26.7784 175.022 26.392C175.31 26.0057 175.708 25.7045 176.215 25.4886C176.723 25.2689 177.304 25.1591 177.959 25.1591C178.903 25.1591 179.645 25.3636 180.187 25.7727C180.728 26.178 181.086 26.7216 181.261 27.4034Z" fill="white"/>
</svg>
