<svg width="268" height="56" viewBox="0 0 268 56" fill="none" xmlns="http://www.w3.org/2000/svg">
<path d="M42.2785 18.7855H41.7785V18.8105L41.781 18.8353L42.2785 18.7855ZM42.2785 18.7855H42.7785V18.7606L42.776 18.7358L42.2785 18.7855ZM42.6626 20.5117L42.3003 20.8562V20.8562L42.6626 20.5117ZM43.4122 20.8221L43.3997 20.3223L43.4122 20.8221ZM44.9043 19.8732L44.5877 19.4862L44.9043 19.8732ZM45.7337 19.3236L45.8502 19.8098L45.8502 19.8098L45.7337 19.3236ZM46.2952 19.3516L46.4595 18.8793L46.4595 18.8793L46.2952 19.3516ZM47.0658 19.981L46.7123 20.3346V20.3346L47.0658 19.981ZM48.0189 20.934L48.3724 20.5805V20.5805L48.0189 20.934ZM48.6483 21.7047L48.1761 21.8689L48.1761 21.869L48.6483 21.7047ZM48.6763 22.2661L48.1901 22.1497V22.1497L48.6763 22.2661ZM48.1267 23.0956L47.7397 22.779V22.779L48.1267 23.0956ZM47.1777 24.5878L46.6779 24.5753L47.1777 24.5878ZM47.4882 25.3373L47.8328 24.975L47.4882 25.3373ZM49.2144 25.7214L49.1646 26.219L49.2144 25.7214ZM50.1896 25.9193L50.451 25.4931L50.1896 25.9193ZM50.5667 26.3361L50.1167 26.5539L50.5667 26.3361ZM50.5668 29.6638L51.0169 29.8816V29.8816L50.5668 29.6638ZM50.1895 30.0808L49.928 29.6545L49.928 29.6545L50.1895 30.0808ZM49.2145 30.2785L49.1647 29.781L49.2145 30.2785ZM47.4888 30.6625L47.8333 31.0248L47.8333 31.0248L47.4888 30.6625ZM47.1781 31.4124L46.6783 31.425V31.425L47.1781 31.4124ZM48.1268 32.9041L48.5173 32.5917L48.5138 32.5875L48.1268 32.9041ZM48.1268 32.9041L47.7364 33.2165L47.7399 33.2207L48.1268 32.9041ZM48.6763 33.7333L49.1626 33.6167L48.6763 33.7333ZM48.6483 34.295L49.1205 34.4593L49.1205 34.4593L48.6483 34.295ZM48.0191 35.0653L48.3726 35.4189V35.4189L48.0191 35.0653ZM48.019 35.0654L48.3726 35.4189L48.019 35.0654ZM47.0659 36.0185L46.7123 35.665V35.665L47.0659 36.0185ZM46.2953 36.6479L46.131 36.1757H46.131L46.2953 36.6479ZM45.7338 36.676L45.6173 37.1622H45.6173L45.7338 36.676ZM44.9044 36.1263L44.5877 36.5133L44.9044 36.1263ZM43.4122 35.1774L43.3997 35.6772H43.3997L43.4122 35.1774ZM42.6626 35.4879L42.3003 35.1433L42.3003 35.1433L42.6626 35.4879ZM42.2785 37.2142L42.776 37.264L42.2785 37.2142ZM42.0806 38.1897L42.5067 38.4513L42.0806 38.1897ZM41.6639 38.5668L41.4461 38.1167L41.4461 38.1167L41.6639 38.5668ZM38.336 38.5668L38.1182 39.0169H38.1182L38.336 38.5668ZM37.9192 38.1896L37.493 38.4511L37.4931 38.4511L37.9192 38.1896ZM37.7214 37.2145L38.2189 37.1647L37.7214 37.2145ZM37.3372 35.4883L36.975 35.8329L36.975 35.8329L37.3372 35.4883ZM36.5877 35.1778L36.5752 34.678H36.5752L36.5877 35.1778ZM35.0955 36.1268L35.4121 36.5138L35.0955 36.1268ZM34.266 36.6764L34.1495 36.1902H34.1495L34.266 36.6764ZM33.7046 36.6484L33.8688 36.1762H33.8688L33.7046 36.6484ZM32.9339 36.019L33.2875 35.6654H33.2875L32.9339 36.019ZM31.9809 35.066L31.6273 35.4195H31.6273L31.9809 35.066ZM31.3514 34.2953L31.8237 34.1311L31.3514 34.2953ZM31.3234 33.7339L30.8372 33.6174L30.8372 33.6174L31.3234 33.7339ZM31.8731 32.9044L32.2601 33.221L32.2668 33.2129L32.2731 33.2044L31.8731 32.9044ZM31.8731 32.9044L31.4861 32.5878L31.4794 32.596L31.4731 32.6044L31.8731 32.9044ZM32.8221 31.4123L32.3222 31.3997L32.8221 31.4123ZM32.5116 30.6627L32.167 31.0249L32.167 31.0249L32.5116 30.6627ZM30.7855 30.2786L30.8352 29.781L30.8104 29.7786H30.7855V30.2786ZM30.7854 30.2786L30.7357 30.7761L30.7605 30.7786H30.7854V30.2786ZM29.8103 30.0807L30.0718 29.6545L30.0718 29.6545L29.8103 30.0807ZM29.4331 29.6639L28.983 29.8817L28.983 29.8817L29.4331 29.6639ZM29.4331 26.336L28.9831 26.1182L28.9831 26.1182L29.4331 26.336ZM29.8102 25.9194L29.5487 25.4932L29.5487 25.4932L29.8102 25.9194ZM30.7856 25.7214L30.7358 25.2239H30.7358L30.7856 25.7214ZM32.5121 25.3372L32.8567 25.6994L32.8567 25.6994L32.5121 25.3372ZM32.8225 24.5879L33.3223 24.5754V24.5754L32.8225 24.5879ZM31.8733 23.0953L32.2603 22.7787L31.8733 23.0953ZM31.3235 22.2655L31.8097 22.1491H31.8097L31.3235 22.2655ZM31.3514 21.7043L31.8237 21.8685L31.3514 21.7043ZM31.9811 20.9334L31.6275 20.5799V20.5799L31.9811 20.9334ZM32.934 19.9806L33.2875 20.3341L33.2875 20.3341L32.934 19.9806ZM33.7046 19.3511L33.5404 18.8788L33.5404 18.8788L33.7046 19.3511ZM34.266 19.3231L34.3825 18.8368L34.266 19.3231ZM35.0956 19.8728L34.779 20.2598L35.0956 19.8728ZM36.5876 20.8217L36.575 21.3216L36.5876 20.8217ZM37.3374 20.5111L36.9751 20.1666L36.9751 20.1666L37.3374 20.5111ZM37.7214 18.7854L38.2189 18.8352L38.2214 18.8103V18.7854H37.7214ZM37.7214 18.7854L37.2239 18.7356L37.2214 18.7604V18.7854H37.7214ZM37.9192 17.8105L37.493 17.549L37.493 17.549L37.9192 17.8105ZM38.3361 17.4331L38.5538 17.8832V17.8832L38.3361 17.4331ZM41.6638 17.4332L41.8816 16.9831V16.9831L41.6638 17.4332ZM42.0806 17.8104L42.5068 17.5489V17.5489L42.0806 17.8104ZM42.7785 18.7855V18.7855H41.7785V18.7855H42.7785ZM43.0249 20.1671C43.0084 20.1497 42.9591 20.0828 42.9096 19.829C42.8609 19.5801 42.8263 19.2384 42.776 18.7358L41.781 18.8353C41.8292 19.3177 41.8684 19.7149 41.9281 20.0207C41.9869 20.3215 42.0804 20.6251 42.3003 20.8562L43.0249 20.1671ZM43.3997 20.3223C43.2584 20.3258 43.1222 20.2694 43.0249 20.1671L42.3003 20.8562C42.5924 21.1634 43.0009 21.3326 43.4247 21.322L43.3997 20.3223ZM44.5877 19.4862C44.1967 19.8061 43.9306 20.0231 43.7203 20.1648C43.5057 20.3092 43.4235 20.3217 43.3997 20.3223L43.4247 21.322C43.7436 21.314 44.0244 21.1655 44.2787 20.9943C44.5371 20.8204 44.8457 20.5672 45.2209 20.2602L44.5877 19.4862ZM45.6173 18.8373C45.4213 18.8843 45.2566 18.9764 45.1022 19.0834C44.9531 19.1868 44.7837 19.3259 44.5877 19.4862L45.2209 20.2602C45.4293 20.0897 45.5631 19.9807 45.6719 19.9053C45.7754 19.8335 45.8233 19.8163 45.8502 19.8098L45.6173 18.8373ZM46.4595 18.8793C46.1885 18.7851 45.8963 18.7705 45.6173 18.8373L45.8502 19.8098C45.9432 19.7875 46.0406 19.7924 46.1309 19.8238L46.4595 18.8793ZM47.4194 19.6275C47.2403 19.4484 47.0856 19.2931 46.9475 19.1754C46.8045 19.0536 46.6498 18.9455 46.4595 18.8793L46.1309 19.8238C46.1571 19.8329 46.203 19.8549 46.2989 19.9366C46.3996 20.0224 46.5219 20.1442 46.7123 20.3346L47.4194 19.6275ZM48.3724 20.5805L47.4194 19.6275L46.7123 20.3346L47.6653 21.2876L48.3724 20.5805ZM49.1206 21.5404C49.0543 21.3501 48.9463 21.1954 48.8244 21.0524C48.7067 20.9143 48.5515 20.7596 48.3724 20.5805L47.6653 21.2876C47.8557 21.478 47.9775 21.6003 48.0633 21.701C48.145 21.7969 48.167 21.8428 48.1761 21.8689L49.1206 21.5404ZM49.1626 22.3826C49.2294 22.1036 49.2148 21.8114 49.1206 21.5404L48.1761 21.869C48.2075 21.9593 48.2123 22.0567 48.1901 22.1497L49.1626 22.3826ZM48.5136 23.4122C48.674 23.2162 48.8131 23.0468 48.9165 22.8976C49.0235 22.7433 49.1156 22.5786 49.1626 22.3826L48.1901 22.1497C48.1836 22.1766 48.1664 22.2244 48.0946 22.328C48.0192 22.4367 47.9102 22.5706 47.7397 22.779L48.5136 23.4122ZM47.6776 24.6003C47.6782 24.5764 47.6907 24.4942 47.8351 24.2797C47.9767 24.0693 48.1938 23.8032 48.5136 23.4122L47.7397 22.779C47.4327 23.1542 47.1795 23.4628 47.0055 23.7212C46.8343 23.9755 46.6858 24.2563 46.6779 24.5753L47.6776 24.6003ZM47.8328 24.975C47.7304 24.8777 47.674 24.7415 47.6776 24.6003L46.6779 24.5753C46.6673 24.999 46.8365 25.4075 47.1436 25.6996L47.8328 24.975ZM49.2641 25.2239C48.7614 25.1737 48.4198 25.139 48.1709 25.0903C47.9171 25.0408 47.8501 24.9915 47.8328 24.975L47.1436 25.6996C47.3748 25.9195 47.6783 26.013 47.9792 26.0718C48.2849 26.1315 48.6821 26.1707 49.1646 26.219L49.2641 25.2239ZM50.451 25.4931C50.2793 25.3877 50.0976 25.3364 49.9128 25.3029C49.7343 25.2706 49.5161 25.2491 49.2641 25.2239L49.1646 26.219C49.4325 26.2458 49.6043 26.2633 49.7345 26.2869C49.8584 26.3094 49.9045 26.331 49.9281 26.3455L50.451 25.4931ZM51.0168 26.1183C50.8919 25.8601 50.6955 25.6431 50.451 25.4931L49.9281 26.3455C50.0096 26.3955 50.075 26.4678 50.1167 26.5539L51.0168 26.1183ZM51.1666 27.3261C51.1666 27.0729 51.167 26.8537 51.1525 26.6728C51.1376 26.4855 51.1046 26.2997 51.0168 26.1183L50.1167 26.5539C50.1287 26.5788 50.1457 26.6268 50.1557 26.7523C50.1662 26.8843 50.1666 27.0569 50.1666 27.3261H51.1666ZM51.1666 28.674V27.3261H50.1666V28.674H51.1666ZM51.0169 29.8816C51.1046 29.7002 51.1376 29.5144 51.1525 29.3272C51.167 29.1463 51.1666 28.9272 51.1666 28.674H50.1666C50.1666 28.9432 50.1662 29.1158 50.1557 29.2477C50.1457 29.3732 50.1287 29.4212 50.1167 29.4461L51.0169 29.8816ZM50.4509 30.507C50.6955 30.3569 50.8919 30.1399 51.0169 29.8816L50.1167 29.4461C50.075 29.5322 50.0096 29.6045 49.928 29.6545L50.4509 30.507ZM49.2642 30.7761C49.5162 30.7509 49.7343 30.7294 49.9128 30.6971C50.0976 30.6636 50.2791 30.6123 50.4509 30.507L49.928 29.6545C49.9044 29.669 49.8584 29.6906 49.7345 29.7131C49.6043 29.7367 49.4325 29.7542 49.1647 29.781L49.2642 30.7761ZM47.8333 31.0248C47.8506 31.0084 47.9175 30.9592 48.1713 30.9096C48.4202 30.861 48.7617 30.8263 49.2642 30.7761L49.1647 29.781C48.6824 29.8293 48.2853 29.8684 47.9796 29.9281C47.6788 29.9869 47.3754 30.0804 47.1442 30.3001L47.8333 31.0248ZM47.678 31.3998C47.6744 31.2585 47.7308 31.1223 47.8333 31.0248L47.1442 30.3001C46.8369 30.5924 46.6676 31.0011 46.6783 31.425L47.678 31.3998ZM48.5138 32.5875C48.194 32.1966 47.9771 31.9306 47.8355 31.7203C47.6911 31.5058 47.6786 31.4237 47.678 31.3998L46.6783 31.425C46.6863 31.7439 46.8348 32.0245 47.0059 32.2788C47.1799 32.5371 47.4329 32.8456 47.7398 33.2207L48.5138 32.5875ZM48.5173 32.5917L48.5173 32.5917L47.7364 33.2164L47.7364 33.2164L48.5173 32.5917ZM49.1626 33.6167C49.1156 33.4208 49.0235 33.2562 48.9165 33.1018C48.8132 32.9528 48.6741 32.7834 48.5138 32.5875L47.7399 33.2207C47.9103 33.429 48.0193 33.5628 48.0946 33.6715C48.1664 33.775 48.1836 33.8229 48.1901 33.8498L49.1626 33.6167ZM49.1205 34.4593C49.2149 34.1883 49.2294 33.8958 49.1626 33.6167L48.1901 33.8498C48.2124 33.9428 48.2075 34.0403 48.1761 34.1307L49.1205 34.4593ZM48.3726 35.4189C48.5516 35.2399 48.7068 35.0852 48.8245 34.9471C48.9463 34.8042 49.0543 34.6496 49.1205 34.4593L48.1761 34.1306C48.167 34.1568 48.1451 34.2027 48.0634 34.2985C47.9776 34.3992 47.8558 34.5215 47.6655 34.7118L48.3726 35.4189ZM48.3726 35.4189L48.3726 35.4189L47.6655 34.7118L47.6655 34.7118L48.3726 35.4189ZM47.4194 36.3721L48.3726 35.4189L47.6655 34.7118L46.7123 35.665L47.4194 36.3721ZM46.4595 37.1202C46.6499 37.054 46.8046 36.9459 46.9475 36.8241C47.0856 36.7064 47.2404 36.5511 47.4194 36.3721L46.7123 35.665C46.522 35.8553 46.3996 35.9771 46.2989 36.063C46.203 36.1447 46.1571 36.1666 46.131 36.1757L46.4595 37.1202ZM45.6173 37.1622C45.8963 37.229 46.1886 37.2144 46.4595 37.1202L46.131 36.1757C46.0407 36.2071 45.9432 36.212 45.8503 36.1897L45.6173 37.1622ZM44.5877 36.5133C44.7837 36.6737 44.9531 36.8127 45.1023 36.9161C45.2567 37.0231 45.4213 37.1153 45.6173 37.1622L45.8503 36.1897C45.8233 36.1833 45.7755 36.166 45.672 36.0942C45.5632 36.0189 45.4293 35.9098 45.221 35.7393L44.5877 36.5133ZM43.3997 35.6772C43.4236 35.6778 43.5058 35.6903 43.7203 35.8348C43.9307 35.9764 44.1968 36.1934 44.5877 36.5133L45.221 35.7393C44.8457 35.4323 44.5372 35.1792 44.2787 35.0052C44.0244 34.834 43.7437 34.6855 43.4247 34.6775L43.3997 35.6772ZM43.0249 35.8325C43.1223 35.7301 43.2585 35.6737 43.3997 35.6772L43.4247 34.6775C43.001 34.6669 42.5925 34.8361 42.3003 35.1433L43.0249 35.8325ZM42.776 37.264C42.8263 36.7612 42.861 36.4196 42.9096 36.1706C42.9592 35.9167 43.0085 35.8498 43.0249 35.8325L42.3003 35.1433C42.0805 35.3745 41.9869 35.678 41.9282 35.9789C41.8684 36.2847 41.8292 36.6819 41.781 37.1645L42.776 37.264ZM42.5067 38.4513C42.6122 38.2794 42.6635 38.0978 42.697 37.9129C42.7294 37.7343 42.7508 37.516 42.776 37.264L41.781 37.1645C41.7542 37.4324 41.7366 37.6043 41.713 37.7345C41.6905 37.8586 41.6689 37.9046 41.6544 37.9282L42.5067 38.4513ZM41.8818 39.0168C42.1398 38.8919 42.3567 38.6956 42.5067 38.4513L41.6544 37.9282C41.6044 38.0097 41.5321 38.0751 41.4461 38.1167L41.8818 39.0168ZM40.6737 39.1667C40.927 39.1667 41.1462 39.167 41.3272 39.1526C41.5144 39.1376 41.7003 39.1047 41.8818 39.0168L41.4461 38.1167C41.4212 38.1288 41.3732 38.1457 41.2476 38.1558C41.1156 38.1663 40.9429 38.1667 40.6737 38.1667V39.1667ZM39.326 39.1667H40.6737V38.1667H39.326V39.1667ZM38.1182 39.0169C38.2997 39.1047 38.4855 39.1377 38.6727 39.1526C38.8536 39.167 39.0728 39.1667 39.326 39.1667V38.1667C39.0568 38.1667 38.8842 38.1663 38.7522 38.1558C38.6267 38.1458 38.5787 38.1288 38.5538 38.1167L38.1182 39.0169ZM37.4931 38.4511C37.6431 38.6956 37.86 38.892 38.1182 39.0169L38.5538 38.1167C38.4677 38.0751 38.3954 38.0096 38.3454 37.9282L37.4931 38.4511ZM37.2238 37.2642C37.249 37.5162 37.2705 37.7343 37.3029 37.9129C37.3363 38.0977 37.3876 38.2793 37.493 38.4511L38.3454 37.9282C38.3309 37.9046 38.3093 37.8585 38.2868 37.7346C38.2632 37.6043 38.2457 37.4326 38.2189 37.1647L37.2238 37.2642ZM36.975 35.8329C36.9914 35.8502 37.0407 35.9172 37.0903 36.171C37.1389 36.4199 37.1736 36.7615 37.2238 37.2642L38.2189 37.1647C38.1706 36.6822 38.1314 36.285 38.0717 35.9793C38.013 35.6784 37.9194 35.3748 37.6995 35.1437L36.975 35.8329ZM36.6002 35.6776C36.7414 35.6741 36.8776 35.7305 36.975 35.8329L37.6995 35.1437C37.4074 34.8365 36.9989 34.6674 36.5752 34.678L36.6002 35.6776ZM35.4121 36.5138C35.8031 36.1939 36.0692 35.9768 36.2796 35.8352C36.4941 35.6908 36.5763 35.6782 36.6002 35.6776L36.5752 34.678C36.2562 34.6859 35.9755 34.8344 35.7211 35.0056C35.4627 35.1796 35.1541 35.4328 34.7788 35.7398L35.4121 36.5138ZM34.3824 37.1627C34.5784 37.1158 34.7431 37.0236 34.8975 36.9166C35.0467 36.8132 35.2161 36.6741 35.4121 36.5138L34.7788 35.7398C34.5705 35.9103 34.4366 36.0193 34.3278 36.0947C34.2243 36.1665 34.1764 36.1837 34.1495 36.1902L34.3824 37.1627ZM33.5403 37.1207C33.8112 37.2149 34.1035 37.2295 34.3824 37.1627L34.1495 36.1902C34.0566 36.2125 33.9591 36.2076 33.8688 36.1762L33.5403 37.1207ZM32.5803 36.3725C32.7594 36.5516 32.9142 36.7069 33.0523 36.8246C33.1952 36.9464 33.35 37.0545 33.5403 37.1207L33.8688 36.1762C33.8427 36.1671 33.7968 36.1452 33.7009 36.0635C33.6002 35.9776 33.4778 35.8558 33.2875 35.6654L32.5803 36.3725ZM31.6273 35.4195L32.5803 36.3725L33.2875 35.6654L32.3345 34.7124L31.6273 35.4195ZM30.8792 34.4596C30.9454 34.6499 31.0535 34.8046 31.1753 34.9476C31.293 35.0857 31.4483 35.2405 31.6273 35.4195L32.3345 34.7124C32.1441 34.5221 32.0223 34.3997 31.9364 34.299C31.8547 34.2031 31.8328 34.1572 31.8237 34.1311L30.8792 34.4596ZM30.8372 33.6174C30.7704 33.8964 30.785 34.1887 30.8792 34.4596L31.8237 34.1311C31.7923 34.0408 31.7874 33.9433 31.8097 33.8503L30.8372 33.6174ZM31.4861 32.5878C31.3258 32.7838 31.1867 32.9532 31.0833 33.1024C30.9763 33.2567 30.8841 33.4214 30.8372 33.6174L31.8097 33.8503C31.8161 33.8234 31.8334 33.7756 31.9052 33.672C31.9806 33.5633 32.0896 33.4294 32.2601 33.221L31.4861 32.5878ZM31.4731 32.6044L31.4731 32.6044L32.2731 33.2044L32.2731 33.2044L31.4731 32.6044ZM32.3222 31.3997C32.3216 31.4236 32.3091 31.5058 32.1647 31.7203C32.0231 31.9307 31.806 32.1968 31.4861 32.5878L32.2601 33.221C32.5671 32.8458 32.8203 32.5372 32.9942 32.2788C33.1654 32.0245 33.3139 31.7437 33.3219 31.4248L32.3222 31.3997ZM32.167 31.0249C32.2694 31.1223 32.3258 31.2585 32.3222 31.3997L33.3219 31.4248C33.3325 31.001 33.1633 30.5925 32.8562 30.3004L32.167 31.0249ZM30.7357 30.7761C31.2384 30.8263 31.58 30.861 31.8289 30.9096C32.0827 30.9592 32.1497 31.0085 32.167 31.0249L32.8562 30.3004C32.625 30.0805 32.3215 29.987 32.0206 29.9282C31.7149 29.8685 31.3177 29.8293 30.8352 29.781L30.7357 30.7761ZM30.7854 30.7786H30.7855V29.7786H30.7854V30.7786ZM29.5488 30.5069C29.7206 30.6123 29.9022 30.6636 30.087 30.6971C30.2656 30.7294 30.4837 30.7509 30.7357 30.7761L30.8352 29.781C30.5673 29.7542 30.3956 29.7367 30.2654 29.7131C30.1414 29.6906 30.0954 29.669 30.0718 29.6545L29.5488 30.5069ZM28.983 29.8817C29.1079 30.1399 29.3043 30.3569 29.5488 30.5069L30.0718 29.6545C29.9903 29.6045 29.9248 29.5322 29.8832 29.4461L28.983 29.8817ZM28.8333 28.6739C28.8333 28.9271 28.8329 29.1463 28.8473 29.3272C28.8623 29.5144 28.8952 29.7002 28.983 29.8817L29.8832 29.4461C29.8711 29.4212 29.8542 29.3732 29.8441 29.2477C29.8336 29.1158 29.8333 28.9431 29.8333 28.6739H28.8333ZM28.8333 27.3262V28.6739H29.8333V27.3262H28.8333ZM28.9831 26.1182C28.8953 26.2996 28.8623 26.4855 28.8473 26.6728C28.8329 26.8537 28.8333 27.0729 28.8333 27.3262H29.8333C29.8333 27.057 29.8336 26.8843 29.8442 26.7523C29.8542 26.6267 29.8711 26.5787 29.8832 26.5538L28.9831 26.1182ZM29.5487 25.4932C29.3043 25.6432 29.108 25.8601 28.9831 26.1182L29.8832 26.5538C29.9248 26.4678 29.9903 26.3955 30.0717 26.3455L29.5487 25.4932ZM30.7358 25.2239C30.4838 25.2491 30.2656 25.2706 30.087 25.3029C29.9021 25.3364 29.7205 25.3878 29.5487 25.4932L30.0717 26.3455C30.0953 26.331 30.1414 26.3094 30.2654 26.2869C30.3956 26.2633 30.5674 26.2457 30.8353 26.219L30.7358 25.2239ZM32.1674 24.975C32.1501 24.9914 32.0831 25.0407 31.8293 25.0903C31.5803 25.1389 31.2386 25.1736 30.7358 25.2239L30.8353 26.219C31.3179 26.1707 31.7152 26.1315 32.021 26.0718C32.3219 26.013 32.6256 25.9194 32.8567 25.6994L32.1674 24.975ZM32.3226 24.6003C32.3261 24.7415 32.2698 24.8776 32.1674 24.975L32.8567 25.6994C33.1637 25.4073 33.3328 24.999 33.3223 24.5754L32.3226 24.6003ZM31.4863 23.4119C31.8063 23.803 32.0234 24.0692 32.1651 24.2796C32.3095 24.4942 32.322 24.5764 32.3226 24.6003L33.3223 24.5754C33.3144 24.2564 33.1658 23.9756 32.9946 23.7212C32.8206 23.4627 32.5674 23.154 32.2603 22.7787L31.4863 23.4119ZM30.8372 22.3819C30.8841 22.578 30.9763 22.7427 31.0833 22.8971C31.1867 23.0463 31.3259 23.2158 31.4863 23.4119L32.2603 22.7787C32.0897 22.5702 31.9806 22.4363 31.9052 22.3275C31.8334 22.2239 31.8162 22.176 31.8097 22.1491L30.8372 22.3819ZM30.8792 21.5402C30.785 21.811 30.7705 22.1031 30.8372 22.3819L31.8097 22.1491C31.7875 22.0562 31.7923 21.9588 31.8237 21.8685L30.8792 21.5402ZM31.6275 20.5799C31.4484 20.759 31.2931 20.9138 31.1753 21.052C31.0535 21.195 30.9454 21.3497 30.8792 21.5402L31.8237 21.8685C31.8328 21.8424 31.8547 21.7965 31.9365 21.7006C32.0223 21.5998 32.1442 21.4774 32.3346 21.287L31.6275 20.5799ZM32.5804 19.627L31.6275 20.5799L32.3346 21.287L33.2875 20.3341L32.5804 19.627ZM33.5404 18.8788C33.35 18.945 33.1953 19.0531 33.0523 19.175C32.9142 19.2927 32.7595 19.4479 32.5804 19.627L33.2875 20.3341C33.4779 20.1437 33.6002 20.0219 33.7009 19.9361C33.7968 19.8544 33.8427 19.8324 33.8689 19.8233L33.5404 18.8788ZM34.3825 18.8368C34.1035 18.77 33.8113 18.7846 33.5404 18.8788L33.8689 19.8233C33.9592 19.7919 34.0566 19.7871 34.1496 19.8093L34.3825 18.8368ZM35.4122 19.4858C35.2162 19.3254 35.0467 19.1863 34.8976 19.0829C34.7432 18.9759 34.5785 18.8838 34.3825 18.8368L34.1496 19.8093C34.1765 19.8158 34.2244 19.833 34.3279 19.9048C34.4367 19.9802 34.5706 20.0893 34.779 20.2598L35.4122 19.4858ZM36.6001 20.3219C36.5763 20.3213 36.4941 20.3088 36.2796 20.1643C36.0692 20.0227 35.8031 19.8057 35.4122 19.4858L34.779 20.2598C35.1542 20.5668 35.4627 20.8199 35.7211 20.9939C35.9754 21.165 36.2561 21.3135 36.575 21.3216L36.6001 20.3219ZM36.9751 20.1666C36.8777 20.269 36.7415 20.3254 36.6001 20.3219L36.575 21.3216C36.9989 21.3322 37.4075 21.163 37.6998 20.8557L36.9751 20.1666ZM37.2239 18.7357C37.1736 19.2382 37.1389 19.5797 37.0903 19.8286C37.0408 20.0823 36.9915 20.1493 36.9751 20.1666L37.6998 20.8557C37.9195 20.6245 38.013 20.321 38.0718 20.0203C38.1315 19.7146 38.1707 19.3175 38.2189 18.8352L37.2239 18.7357ZM37.2214 18.7854V18.7854H38.2214V18.7854H37.2214ZM37.2214 18.7854V18.7854H38.2214V18.7854H37.2214ZM37.493 17.549C37.3876 17.7208 37.3363 17.9023 37.3028 18.0871C37.2705 18.2656 37.2491 18.4837 37.2239 18.7356L38.2189 18.8351C38.2457 18.5673 38.2632 18.3956 38.2868 18.2654C38.3093 18.1415 38.3309 18.0955 38.3454 18.0719L37.493 17.549ZM38.1184 16.983C37.8601 17.108 37.643 17.3044 37.493 17.549L38.3454 18.0719C38.3954 17.9904 38.4677 17.9249 38.5538 17.8832L38.1184 16.983ZM39.3259 16.8333C39.0727 16.8333 38.8536 16.833 38.6727 16.8474C38.4855 16.8623 38.2998 16.8953 38.1184 16.983L38.5538 17.8832C38.5788 17.8712 38.6267 17.8542 38.7523 17.8442C38.8841 17.8337 39.0567 17.8333 39.3259 17.8333V16.8333ZM40.6738 16.8333H39.3259V17.8333H40.6738V16.8333ZM41.8816 16.9831C41.7002 16.8953 41.5144 16.8623 41.3271 16.8474C41.1462 16.833 40.9271 16.8333 40.6738 16.8333V17.8333C40.943 17.8333 41.1157 17.8337 41.2476 17.8442C41.3732 17.8542 41.4211 17.8712 41.446 17.8833L41.8816 16.9831ZM42.5068 17.5489C42.3568 17.3044 42.1398 17.108 41.8816 16.9831L41.446 17.8833C41.5321 17.9249 41.6044 17.9904 41.6544 18.0719L42.5068 17.5489ZM42.776 18.7358C42.7508 18.4838 42.7294 18.2657 42.697 18.0871C42.6635 17.9023 42.6122 17.7207 42.5068 17.5489L41.6544 18.0719C41.6689 18.0954 41.6906 18.1415 41.713 18.2654C41.7366 18.3957 41.7542 18.5674 41.781 18.8353L42.776 18.7358ZM43.7666 28C43.7666 30.0803 42.0802 31.7667 39.9999 31.7667V32.7667C42.6325 32.7667 44.7666 30.6326 44.7666 28H43.7666ZM39.9999 24.2333C42.0802 24.2333 43.7666 25.9197 43.7666 28H44.7666C44.7666 25.3674 42.6325 23.2333 39.9999 23.2333V24.2333ZM36.2333 28C36.2333 25.9197 37.9196 24.2333 39.9999 24.2333V23.2333C37.3674 23.2333 35.2333 25.3674 35.2333 28H36.2333ZM39.9999 31.7667C37.9196 31.7667 36.2333 30.0803 36.2333 28H35.2333C35.2333 30.6326 37.3674 32.7667 39.9999 32.7667V31.7667Z" fill="#9E9E9E"/>
<path d="M69.2784 34V22.3636H73.4261C74.3314 22.3636 75.0814 22.5284 75.6761 22.858C76.2708 23.1875 76.7159 23.6383 77.0114 24.2102C77.3068 24.7784 77.4545 25.4186 77.4545 26.1307C77.4545 26.8466 77.3049 27.4905 77.0057 28.0625C76.7102 28.6307 76.2633 29.0814 75.6648 29.4148C75.0701 29.7443 74.322 29.9091 73.4205 29.9091H70.5682V28.4205H73.2614C73.8333 28.4205 74.2973 28.322 74.6534 28.125C75.0095 27.9242 75.2708 27.6515 75.4375 27.3068C75.6042 26.9621 75.6875 26.5701 75.6875 26.1307C75.6875 25.6913 75.6042 25.3011 75.4375 24.9602C75.2708 24.6193 75.0076 24.3523 74.6477 24.1591C74.2917 23.9659 73.822 23.8693 73.2386 23.8693H71.0341V34H69.2784ZM79.2004 34V25.2727H80.8425V26.6591H80.9334C81.0925 26.1894 81.3728 25.8201 81.7743 25.5511C82.1796 25.2784 82.6379 25.142 83.1493 25.142C83.2553 25.142 83.3803 25.1458 83.5243 25.1534C83.672 25.161 83.7875 25.1705 83.8709 25.1818V26.8068C83.8027 26.7879 83.6815 26.767 83.5072 26.7443C83.333 26.7178 83.1588 26.7045 82.9845 26.7045C82.583 26.7045 82.225 26.7898 81.9106 26.9602C81.6 27.1269 81.3538 27.3598 81.172 27.6591C80.9902 27.9545 80.8993 28.2917 80.8993 28.6705V34H79.2004ZM88.5287 34.1761C87.7105 34.1761 86.9965 33.9886 86.3866 33.6136C85.7768 33.2386 85.3033 32.714 84.9662 32.0398C84.6291 31.3655 84.4605 30.5777 84.4605 29.6761C84.4605 28.7708 84.6291 27.9792 84.9662 27.3011C85.3033 26.6231 85.7768 26.0966 86.3866 25.7216C86.9965 25.3466 87.7105 25.1591 88.5287 25.1591C89.3469 25.1591 90.0609 25.3466 90.6707 25.7216C91.2806 26.0966 91.7541 26.6231 92.0912 27.3011C92.4283 27.9792 92.5969 28.7708 92.5969 29.6761C92.5969 30.5777 92.4283 31.3655 92.0912 32.0398C91.7541 32.714 91.2806 33.2386 90.6707 33.6136C90.0609 33.9886 89.3469 34.1761 88.5287 34.1761ZM88.5344 32.75C89.0647 32.75 89.5041 32.6098 89.8525 32.3295C90.201 32.0492 90.4586 31.6761 90.6253 31.2102C90.7957 30.7443 90.881 30.2311 90.881 29.6705C90.881 29.1136 90.7957 28.6023 90.6253 28.1364C90.4586 27.6667 90.201 27.2898 89.8525 27.0057C89.5041 26.7216 89.0647 26.5795 88.5344 26.5795C88.0003 26.5795 87.5571 26.7216 87.2048 27.0057C86.8563 27.2898 86.5969 27.6667 86.4264 28.1364C86.2597 28.6023 86.1764 29.1136 86.1764 29.6705C86.1764 30.2311 86.2597 30.7443 86.4264 31.2102C86.5969 31.6761 86.8563 32.0492 87.2048 32.3295C87.5571 32.6098 88.0003 32.75 88.5344 32.75ZM98.4706 25.2727V26.6364H93.5388V25.2727H98.4706ZM94.891 34V24.2614C94.891 23.7159 95.0104 23.2633 95.249 22.9034C95.4876 22.5398 95.8039 22.2689 96.1979 22.0909C96.5918 21.9091 97.0198 21.8182 97.4819 21.8182C97.8229 21.8182 98.1145 21.8466 98.3569 21.9034C98.5994 21.9564 98.7793 22.0057 98.8967 22.0511L98.499 23.4261C98.4194 23.4034 98.3172 23.3769 98.1922 23.3466C98.0672 23.3125 97.9157 23.2955 97.7376 23.2955C97.3247 23.2955 97.0293 23.3977 96.8513 23.6023C96.677 23.8068 96.5899 24.1023 96.5899 24.4886V34H94.891ZM100.047 34V25.2727H101.746V34H100.047ZM100.905 23.9261C100.61 23.9261 100.356 23.8277 100.144 23.6307C99.9357 23.4299 99.8315 23.1913 99.8315 22.9148C99.8315 22.6345 99.9357 22.3958 100.144 22.1989C100.356 21.9981 100.61 21.8977 100.905 21.8977C101.201 21.8977 101.453 21.9981 101.661 22.1989C101.873 22.3958 101.979 22.6345 101.979 22.9148C101.979 23.1913 101.873 23.4299 101.661 23.6307C101.453 23.8277 101.201 23.9261 100.905 23.9261ZM105.555 22.3636V34H103.856V22.3636H105.555ZM111.426 34.1761C110.566 34.1761 109.825 33.9924 109.204 33.625C108.587 33.2538 108.109 32.733 107.772 32.0625C107.439 31.3883 107.272 30.5985 107.272 29.6932C107.272 28.7992 107.439 28.0114 107.772 27.3295C108.109 26.6477 108.579 26.1155 109.181 25.733C109.787 25.3504 110.496 25.1591 111.306 25.1591C111.799 25.1591 112.276 25.2405 112.738 25.4034C113.2 25.5663 113.615 25.822 113.982 26.1705C114.35 26.5189 114.64 26.9716 114.852 27.5284C115.064 28.0814 115.17 28.7538 115.17 29.5455V30.1477H108.232V28.875H113.505C113.505 28.428 113.414 28.0322 113.232 27.6875C113.051 27.339 112.795 27.0644 112.465 26.8636C112.14 26.6629 111.757 26.5625 111.318 26.5625C110.84 26.5625 110.424 26.6799 110.068 26.9148C109.715 27.1458 109.443 27.4489 109.249 27.8239C109.06 28.1951 108.965 28.5985 108.965 29.0341V30.0284C108.965 30.6117 109.068 31.108 109.272 31.517C109.48 31.9261 109.77 32.2386 110.141 32.4545C110.513 32.6667 110.946 32.7727 111.443 32.7727C111.765 32.7727 112.058 32.7273 112.323 32.6364C112.588 32.5417 112.818 32.4015 113.011 32.2159C113.204 32.0303 113.352 31.8011 113.454 31.5284L115.062 31.8182C114.933 32.2917 114.702 32.7064 114.369 33.0625C114.039 33.4148 113.624 33.6894 113.124 33.8864C112.628 34.0795 112.062 34.1761 111.426 34.1761ZM127.42 25.4205C127.36 24.8826 127.11 24.4659 126.67 24.1705C126.231 23.8712 125.678 23.7216 125.011 23.7216C124.534 23.7216 124.121 23.7973 123.772 23.9489C123.424 24.0966 123.153 24.3011 122.96 24.5625C122.771 24.8201 122.676 25.1136 122.676 25.4432C122.676 25.7197 122.74 25.9583 122.869 26.1591C123.002 26.3598 123.174 26.5284 123.386 26.6648C123.602 26.7973 123.833 26.9091 124.079 27C124.325 27.0871 124.562 27.1591 124.789 27.2159L125.926 27.5114C126.297 27.6023 126.678 27.7254 127.068 27.8807C127.458 28.036 127.82 28.2405 128.153 28.4943C128.486 28.7481 128.755 29.0625 128.96 29.4375C129.168 29.8125 129.272 30.2614 129.272 30.7841C129.272 31.4432 129.102 32.0284 128.761 32.5398C128.424 33.0511 127.933 33.4545 127.289 33.75C126.649 34.0455 125.875 34.1932 124.966 34.1932C124.094 34.1932 123.341 34.0549 122.704 33.7784C122.068 33.5019 121.57 33.1098 121.21 32.6023C120.85 32.0909 120.651 31.4848 120.613 30.7841H122.375C122.409 31.2045 122.545 31.5549 122.784 31.8352C123.026 32.1117 123.335 32.3182 123.71 32.4545C124.089 32.5871 124.503 32.6534 124.954 32.6534C125.45 32.6534 125.892 32.5758 126.278 32.4205C126.668 32.2614 126.975 32.0417 127.199 31.7614C127.422 31.4773 127.534 31.1458 127.534 30.767C127.534 30.4223 127.435 30.1402 127.238 29.9205C127.045 29.7008 126.782 29.5189 126.449 29.375C126.119 29.2311 125.746 29.1042 125.329 28.9943L123.954 28.6193C123.022 28.3655 122.284 27.9924 121.738 27.5C121.197 27.0076 120.926 26.3561 120.926 25.5455C120.926 24.875 121.108 24.2898 121.471 23.7898C121.835 23.2898 122.327 22.9015 122.949 22.625C123.57 22.3447 124.271 22.2045 125.051 22.2045C125.839 22.2045 126.534 22.3428 127.136 22.6193C127.742 22.8958 128.219 23.2765 128.568 23.7614C128.916 24.2424 129.098 24.7955 129.113 25.4205H127.42ZM134.819 34.1761C133.96 34.1761 133.219 33.9924 132.598 33.625C131.98 33.2538 131.503 32.733 131.166 32.0625C130.833 31.3883 130.666 30.5985 130.666 29.6932C130.666 28.7992 130.833 28.0114 131.166 27.3295C131.503 26.6477 131.973 26.1155 132.575 25.733C133.181 25.3504 133.889 25.1591 134.7 25.1591C135.193 25.1591 135.67 25.2405 136.132 25.4034C136.594 25.5663 137.009 25.822 137.376 26.1705C137.744 26.5189 138.033 26.9716 138.246 27.5284C138.458 28.0814 138.564 28.7538 138.564 29.5455V30.1477H131.626V28.875H136.899C136.899 28.428 136.808 28.0322 136.626 27.6875C136.444 27.339 136.189 27.0644 135.859 26.8636C135.533 26.6629 135.151 26.5625 134.711 26.5625C134.234 26.5625 133.818 26.6799 133.461 26.9148C133.109 27.1458 132.836 27.4489 132.643 27.8239C132.454 28.1951 132.359 28.5985 132.359 29.0341V30.0284C132.359 30.6117 132.461 31.108 132.666 31.517C132.874 31.9261 133.164 32.2386 133.535 32.4545C133.907 32.6667 134.34 32.7727 134.836 32.7727C135.158 32.7727 135.452 32.7273 135.717 32.6364C135.982 32.5417 136.211 32.4015 136.405 32.2159C136.598 32.0303 136.746 31.8011 136.848 31.5284L138.456 31.8182C138.327 32.2917 138.096 32.7064 137.763 33.0625C137.433 33.4148 137.018 33.6894 136.518 33.8864C136.022 34.0795 135.456 34.1761 134.819 34.1761ZM144.347 25.2727V26.6364H139.579V25.2727H144.347ZM140.858 23.1818H142.557V31.4375C142.557 31.767 142.606 32.0152 142.704 32.1818C142.803 32.3447 142.93 32.4564 143.085 32.517C143.244 32.5739 143.417 32.6023 143.602 32.6023C143.739 32.6023 143.858 32.5928 143.96 32.5739C144.062 32.5549 144.142 32.5398 144.199 32.5284L144.506 33.9318C144.407 33.9697 144.267 34.0076 144.085 34.0455C143.903 34.0871 143.676 34.1098 143.403 34.1136C142.956 34.1212 142.54 34.0417 142.153 33.875C141.767 33.7083 141.454 33.4508 141.216 33.1023C140.977 32.7538 140.858 32.3163 140.858 31.7898V23.1818ZM150.124 25.2727V26.6364H145.357V25.2727H150.124ZM146.635 23.1818H148.334V31.4375C148.334 31.767 148.383 32.0152 148.482 32.1818C148.58 32.3447 148.707 32.4564 148.862 32.517C149.021 32.5739 149.194 32.6023 149.379 32.6023C149.516 32.6023 149.635 32.5928 149.737 32.5739C149.84 32.5549 149.919 32.5398 149.976 32.5284L150.283 33.9318C150.184 33.9697 150.044 34.0076 149.862 34.0455C149.68 34.0871 149.453 34.1098 149.18 34.1136C148.734 34.1212 148.317 34.0417 147.93 33.875C147.544 33.7083 147.232 33.4508 146.993 33.1023C146.754 32.7538 146.635 32.3163 146.635 31.7898V23.1818ZM151.827 34V25.2727H153.526V34H151.827ZM152.685 23.9261C152.389 23.9261 152.136 23.8277 151.924 23.6307C151.715 23.4299 151.611 23.1913 151.611 22.9148C151.611 22.6345 151.715 22.3958 151.924 22.1989C152.136 21.9981 152.389 21.8977 152.685 21.8977C152.98 21.8977 153.232 21.9981 153.441 22.1989C153.653 22.3958 153.759 22.6345 153.759 22.9148C153.759 23.1913 153.653 23.4299 153.441 23.6307C153.232 23.8277 152.98 23.9261 152.685 23.9261ZM157.334 28.8182V34H155.635V25.2727H157.266V26.6932H157.374C157.575 26.2311 157.889 25.8598 158.317 25.5795C158.749 25.2992 159.292 25.1591 159.948 25.1591C160.542 25.1591 161.063 25.2841 161.51 25.5341C161.957 25.7803 162.304 26.1477 162.55 26.6364C162.796 27.125 162.919 27.7292 162.919 28.4489V34H161.221V28.6534C161.221 28.0208 161.056 27.5265 160.726 27.1705C160.397 26.8106 159.944 26.6307 159.368 26.6307C158.974 26.6307 158.624 26.7159 158.317 26.8864C158.014 27.0568 157.774 27.3068 157.596 27.6364C157.421 27.9621 157.334 28.3561 157.334 28.8182ZM168.681 37.4545C167.988 37.4545 167.391 37.3636 166.891 37.1818C166.395 37 165.99 36.7595 165.675 36.4602C165.361 36.161 165.126 35.8333 164.971 35.4773L166.431 34.875C166.533 35.0417 166.67 35.2178 166.84 35.4034C167.014 35.5928 167.249 35.7538 167.545 35.8864C167.844 36.0189 168.228 36.0852 168.698 36.0852C169.342 36.0852 169.874 35.928 170.295 35.6136C170.715 35.303 170.925 34.8068 170.925 34.125V32.4091H170.817C170.715 32.5947 170.567 32.8011 170.374 33.0284C170.185 33.2557 169.923 33.4527 169.59 33.6193C169.257 33.786 168.823 33.8693 168.289 33.8693C167.599 33.8693 166.978 33.7083 166.425 33.3864C165.876 33.0606 165.44 32.5814 165.118 31.9489C164.8 31.3125 164.641 30.5303 164.641 29.6023C164.641 28.6742 164.798 27.8788 165.113 27.2159C165.431 26.553 165.866 26.0455 166.42 25.6932C166.973 25.3371 167.599 25.1591 168.3 25.1591C168.842 25.1591 169.279 25.25 169.613 25.4318C169.946 25.6098 170.206 25.8182 170.391 26.0568C170.581 26.2955 170.726 26.5057 170.829 26.6875H170.954V25.2727H172.618V34.1932C172.618 34.9432 172.444 35.5587 172.096 36.0398C171.747 36.5208 171.276 36.8769 170.681 37.108C170.09 37.339 169.423 37.4545 168.681 37.4545ZM168.664 32.4602C169.152 32.4602 169.565 32.3466 169.902 32.1193C170.243 31.8883 170.501 31.5587 170.675 31.1307C170.853 30.6989 170.942 30.1818 170.942 29.5795C170.942 28.9924 170.855 28.4754 170.681 28.0284C170.507 27.5814 170.251 27.233 169.914 26.983C169.577 26.7292 169.16 26.6023 168.664 26.6023C168.152 26.6023 167.726 26.7348 167.385 27C167.045 27.2614 166.787 27.6174 166.613 28.0682C166.442 28.5189 166.357 29.0227 166.357 29.5795C166.357 30.1515 166.444 30.6534 166.618 31.0852C166.793 31.517 167.05 31.8542 167.391 32.0966C167.736 32.339 168.16 32.4602 168.664 32.4602ZM181.261 27.4034L179.721 27.6761C179.656 27.4792 179.554 27.2917 179.414 27.1136C179.278 26.9356 179.092 26.7898 178.857 26.6761C178.622 26.5625 178.329 26.5057 177.976 26.5057C177.495 26.5057 177.094 26.6136 176.772 26.8295C176.45 27.0417 176.289 27.3163 176.289 27.6534C176.289 27.9451 176.397 28.1799 176.613 28.358C176.829 28.536 177.177 28.6818 177.658 28.7955L179.045 29.1136C179.848 29.2992 180.446 29.5852 180.84 29.9716C181.234 30.358 181.431 30.8598 181.431 31.4773C181.431 32 181.28 32.4659 180.976 32.875C180.677 33.2803 180.259 33.5985 179.721 33.8295C179.187 34.0606 178.567 34.1761 177.863 34.1761C176.886 34.1761 176.088 33.9678 175.471 33.5511C174.853 33.1307 174.475 32.5341 174.334 31.7614L175.976 31.5114C176.079 31.9394 176.289 32.2633 176.607 32.483C176.925 32.6989 177.34 32.8068 177.851 32.8068C178.408 32.8068 178.853 32.6913 179.187 32.4602C179.52 32.2254 179.687 31.9394 179.687 31.6023C179.687 31.3295 179.584 31.1004 179.38 30.9148C179.179 30.7292 178.87 30.589 178.454 30.4943L176.976 30.1705C176.162 29.9848 175.56 29.6894 175.17 29.2841C174.783 28.8788 174.59 28.3655 174.59 27.7443C174.59 27.2292 174.734 26.7784 175.022 26.392C175.31 26.0057 175.708 25.7045 176.215 25.4886C176.723 25.2689 177.304 25.1591 177.959 25.1591C178.903 25.1591 179.645 25.3636 180.187 25.7727C180.728 26.178 181.086 26.7216 181.261 27.4034Z" fill="#9E9E9E"/>
</svg>
