<svg width="268" height="56" viewBox="0 0 268 56" fill="none" xmlns="http://www.w3.org/2000/svg">
<rect x="29.3334" y="17.3333" width="8" height="9.33333" rx="1" stroke="#9E9E9E" stroke-width="1.3" stroke-linejoin="round"/>
<rect x="29.3334" y="32" width="8" height="6.66667" rx="1" stroke="#9E9E9E" stroke-width="1.3" stroke-linejoin="round"/>
<rect x="42.6667" y="17.3333" width="8" height="6.66667" rx="1" stroke="#9E9E9E" stroke-width="1.3" stroke-linejoin="round"/>
<rect x="42.6667" y="29.3333" width="8" height="9.33333" rx="1" stroke="#9E9E9E" stroke-width="1.3" stroke-linejoin="round"/>
<path d="M69.2784 34V22.3636H73.4261C74.3314 22.3636 75.0814 22.5284 75.6761 22.858C76.2708 23.1875 76.7159 23.6383 77.0114 24.2102C77.3068 24.7784 77.4545 25.4186 77.4545 26.1307C77.4545 26.8466 77.3049 27.4905 77.0057 28.0625C76.7102 28.6307 76.2633 29.0814 75.6648 29.4148C75.0701 29.7443 74.322 29.9091 73.4205 29.9091H70.5682V28.4205H73.2614C73.8333 28.4205 74.2973 28.322 74.6534 28.125C75.0095 27.9242 75.2708 27.6515 75.4375 27.3068C75.6042 26.9621 75.6875 26.5701 75.6875 26.1307C75.6875 25.6913 75.6042 25.3011 75.4375 24.9602C75.2708 24.6193 75.0076 24.3523 74.6477 24.1591C74.2917 23.9659 73.822 23.8693 73.2386 23.8693H71.0341V34H69.2784ZM79.2004 34V25.2727H80.8425V26.6591H80.9334C81.0925 26.1894 81.3728 25.8201 81.7743 25.5511C82.1796 25.2784 82.6379 25.142 83.1493 25.142C83.2553 25.142 83.3803 25.1458 83.5243 25.1534C83.672 25.161 83.7875 25.1705 83.8709 25.1818V26.8068C83.8027 26.7879 83.6815 26.767 83.5072 26.7443C83.333 26.7178 83.1588 26.7045 82.9845 26.7045C82.583 26.7045 82.225 26.7898 81.9106 26.9602C81.6 27.1269 81.3538 27.3598 81.172 27.6591C80.9902 27.9545 80.8993 28.2917 80.8993 28.6705V34H79.2004ZM88.5287 34.1761C87.7105 34.1761 86.9965 33.9886 86.3866 33.6136C85.7768 33.2386 85.3033 32.714 84.9662 32.0398C84.6291 31.3655 84.4605 30.5777 84.4605 29.6761C84.4605 28.7708 84.6291 27.9792 84.9662 27.3011C85.3033 26.6231 85.7768 26.0966 86.3866 25.7216C86.9965 25.3466 87.7105 25.1591 88.5287 25.1591C89.3469 25.1591 90.0609 25.3466 90.6707 25.7216C91.2806 26.0966 91.7541 26.6231 92.0912 27.3011C92.4283 27.9792 92.5969 28.7708 92.5969 29.6761C92.5969 30.5777 92.4283 31.3655 92.0912 32.0398C91.7541 32.714 91.2806 33.2386 90.6707 33.6136C90.0609 33.9886 89.3469 34.1761 88.5287 34.1761ZM88.5344 32.75C89.0647 32.75 89.5041 32.6098 89.8525 32.3295C90.201 32.0492 90.4586 31.6761 90.6253 31.2102C90.7957 30.7443 90.881 30.2311 90.881 29.6705C90.881 29.1136 90.7957 28.6023 90.6253 28.1364C90.4586 27.6667 90.201 27.2898 89.8525 27.0057C89.5041 26.7216 89.0647 26.5795 88.5344 26.5795C88.0003 26.5795 87.5571 26.7216 87.2048 27.0057C86.8563 27.2898 86.5969 27.6667 86.4264 28.1364C86.2597 28.6023 86.1764 29.1136 86.1764 29.6705C86.1764 30.2311 86.2597 30.7443 86.4264 31.2102C86.5969 31.6761 86.8563 32.0492 87.2048 32.3295C87.5571 32.6098 88.0003 32.75 88.5344 32.75ZM97.9763 37.4545C97.2831 37.4545 96.6865 37.3636 96.1865 37.1818C95.6903 37 95.285 36.7595 94.9706 36.4602C94.6562 36.161 94.4213 35.8333 94.266 35.4773L95.7263 34.875C95.8285 35.0417 95.9649 35.2178 96.1354 35.4034C96.3096 35.5928 96.5444 35.7538 96.8399 35.8864C97.1391 36.0189 97.5236 36.0852 97.9933 36.0852C98.6372 36.0852 99.1694 35.928 99.5899 35.6136C100.01 35.303 100.221 34.8068 100.221 34.125V32.4091H100.113C100.01 32.5947 99.8626 32.8011 99.6694 33.0284C99.48 33.2557 99.2187 33.4527 98.8854 33.6193C98.552 33.786 98.1183 33.8693 97.5842 33.8693C96.8948 33.8693 96.2736 33.7083 95.7206 33.3864C95.1713 33.0606 94.7357 32.5814 94.4138 31.9489C94.0956 31.3125 93.9365 30.5303 93.9365 29.6023C93.9365 28.6742 94.0937 27.8788 94.4081 27.2159C94.7263 26.553 95.1619 26.0455 95.7149 25.6932C96.2679 25.3371 96.8948 25.1591 97.5956 25.1591C98.1372 25.1591 98.5747 25.25 98.9081 25.4318C99.2414 25.6098 99.5009 25.8182 99.6865 26.0568C99.8759 26.2955 100.022 26.5057 100.124 26.6875H100.249V25.2727H101.914V34.1932C101.914 34.9432 101.74 35.5587 101.391 36.0398C101.043 36.5208 100.571 36.8769 99.9763 37.108C99.3854 37.339 98.7187 37.4545 97.9763 37.4545ZM97.9592 32.4602C98.4479 32.4602 98.8607 32.3466 99.1979 32.1193C99.5388 31.8883 99.7963 31.5587 99.9706 31.1307C100.149 30.6989 100.238 30.1818 100.238 29.5795C100.238 28.9924 100.151 28.4754 99.9763 28.0284C99.802 27.5814 99.5463 27.233 99.2092 26.983C98.8721 26.7292 98.4554 26.6023 97.9592 26.6023C97.4479 26.6023 97.0217 26.7348 96.6808 27C96.3399 27.2614 96.0823 27.6174 95.9081 28.0682C95.7376 28.5189 95.6524 29.0227 95.6524 29.5795C95.6524 30.1515 95.7395 30.6534 95.9138 31.0852C96.088 31.517 96.3456 31.8542 96.6865 32.0966C97.0312 32.339 97.4554 32.4602 97.9592 32.4602ZM104.016 34V25.2727H105.658V26.6591H105.749C105.908 26.1894 106.189 25.8201 106.59 25.5511C106.995 25.2784 107.454 25.142 107.965 25.142C108.071 25.142 108.196 25.1458 108.34 25.1534C108.488 25.161 108.603 25.1705 108.687 25.1818V26.8068C108.618 26.7879 108.497 26.767 108.323 26.7443C108.149 26.7178 107.975 26.7045 107.8 26.7045C107.399 26.7045 107.041 26.7898 106.726 26.9602C106.416 27.1269 106.17 27.3598 105.988 27.6591C105.806 27.9545 105.715 28.2917 105.715 28.6705V34H104.016ZM112.442 34.1932C111.889 34.1932 111.389 34.0909 110.942 33.8864C110.495 33.678 110.141 33.3769 109.88 32.983C109.622 32.589 109.494 32.1061 109.494 31.5341C109.494 31.0417 109.588 30.6364 109.778 30.3182C109.967 30 110.223 29.7481 110.545 29.5625C110.867 29.3769 111.227 29.2367 111.624 29.142C112.022 29.0473 112.427 28.9754 112.84 28.9261C113.363 28.8655 113.787 28.8163 114.113 28.7784C114.439 28.7367 114.675 28.6705 114.823 28.5795C114.971 28.4886 115.045 28.3409 115.045 28.1364V28.0966C115.045 27.6004 114.905 27.2159 114.624 26.9432C114.348 26.6705 113.935 26.5341 113.386 26.5341C112.814 26.5341 112.363 26.661 112.033 26.9148C111.708 27.1648 111.482 27.4432 111.357 27.75L109.761 27.3864C109.95 26.8561 110.227 26.428 110.59 26.1023C110.958 25.7727 111.38 25.5341 111.857 25.3864C112.334 25.2348 112.836 25.1591 113.363 25.1591C113.711 25.1591 114.081 25.2008 114.471 25.2841C114.865 25.3636 115.232 25.5114 115.573 25.7273C115.918 25.9432 116.2 26.2519 116.42 26.6534C116.639 27.0511 116.749 27.5682 116.749 28.2045V34H115.09V32.8068H115.022C114.912 33.0265 114.747 33.2424 114.528 33.4545C114.308 33.6667 114.026 33.8428 113.681 33.983C113.336 34.1231 112.924 34.1932 112.442 34.1932ZM112.812 32.8295C113.281 32.8295 113.683 32.7367 114.016 32.5511C114.353 32.3655 114.609 32.1231 114.783 31.8239C114.961 31.5208 115.05 31.197 115.05 30.8523V29.7273C114.99 29.7879 114.872 29.8447 114.698 29.8977C114.528 29.947 114.333 29.9905 114.113 30.0284C113.893 30.0625 113.679 30.0947 113.471 30.125C113.263 30.1515 113.088 30.1742 112.948 30.1932C112.619 30.2348 112.317 30.3049 112.045 30.4034C111.776 30.5019 111.56 30.6439 111.397 30.8295C111.238 31.0114 111.158 31.2538 111.158 31.5568C111.158 31.9773 111.314 32.2955 111.624 32.5114C111.935 32.7235 112.331 32.8295 112.812 32.8295ZM118.836 34V25.2727H120.467V26.6932H120.575C120.757 26.2121 121.054 25.8371 121.467 25.5682C121.88 25.2955 122.374 25.1591 122.95 25.1591C123.533 25.1591 124.022 25.2955 124.416 25.5682C124.813 25.8409 125.107 26.2159 125.296 26.6932H125.387C125.596 26.2273 125.927 25.8561 126.382 25.5795C126.836 25.2992 127.378 25.1591 128.007 25.1591C128.798 25.1591 129.444 25.4072 129.944 25.9034C130.448 26.3996 130.7 27.1477 130.7 28.1477V34H129.001V28.3068C129.001 27.7159 128.84 27.2879 128.518 27.0227C128.196 26.7576 127.811 26.625 127.364 26.625C126.811 26.625 126.382 26.7955 126.075 27.1364C125.768 27.4735 125.614 27.9072 125.614 28.4375V34H123.921V28.1989C123.921 27.7254 123.774 27.3447 123.478 27.0568C123.183 26.7689 122.798 26.625 122.325 26.625C122.003 26.625 121.705 26.7102 121.433 26.8807C121.164 27.0473 120.946 27.2803 120.779 27.5795C120.616 27.8788 120.535 28.2254 120.535 28.6193V34H118.836Z" fill="#9E9E9E"/>
</svg>
