<svg width="81" height="45" viewBox="0 0 81 45" fill="none" xmlns="http://www.w3.org/2000/svg">
<path fill-rule="evenodd" clip-rule="evenodd" d="M23.4233 27.476C25.8954 27.476 27.8993 25.472 27.8993 23C27.8993 20.528 25.8954 18.524 23.4233 18.524C20.9514 18.524 18.9474 20.528 18.9474 23C18.9474 25.472 20.9514 27.476 23.4233 27.476ZM23.4233 25.7975C24.9684 25.7975 26.2208 24.545 26.2208 23C26.2208 21.455 24.9684 20.2025 23.4233 20.2025C21.8783 20.2025 20.6259 21.455 20.6259 23C20.6259 24.545 21.8783 25.7975 23.4233 25.7975Z" fill="#A298AB"/>
<path fill-rule="evenodd" clip-rule="evenodd" d="M26.9125 11.6588L27.3624 14.9589C27.7285 15.1386 28.0806 15.3426 28.4165 15.5687L31.5007 14.3079C32.0187 14.0961 32.6134 14.2996 32.8933 14.7842L35.2735 18.9068C35.5532 19.3915 35.4321 20.0082 34.9897 20.3509L32.3551 22.3919C32.3686 22.5929 32.3754 22.7957 32.3754 23C32.3754 23.2043 32.3686 23.4071 32.3551 23.6081L34.9897 25.649C35.4321 25.9917 35.5532 26.6085 35.2735 27.0932L32.8933 31.2158C32.6134 31.7004 32.0187 31.9039 31.5007 31.6922L28.4165 30.4313C28.0806 30.6574 27.7285 30.8614 27.3624 31.041L26.9125 34.3412C26.8368 34.8956 26.3632 35.309 25.8036 35.309H21.0432C20.4836 35.309 20.0101 34.8956 19.9345 34.3412L19.4845 31.041C19.1184 30.8614 18.7663 30.6574 18.4304 30.4313L15.3462 31.6922C14.8282 31.9039 14.2335 31.7004 13.9537 31.2158L11.5735 27.0932C11.2937 26.6085 11.4149 25.9917 11.8572 25.649L14.4918 23.6081C14.4783 23.4071 14.4715 23.2043 14.4715 23C14.4715 22.7957 14.4783 22.5929 14.4918 22.3919L11.8572 20.3509C11.4149 20.0082 11.2937 19.3915 11.5735 18.9068L13.9537 14.7842C14.2335 14.2996 14.8282 14.0961 15.3462 14.3079L18.4304 15.5687C18.7663 15.3426 19.1184 15.1386 19.4845 14.9589L19.9345 11.6588C20.0101 11.1044 20.4836 10.691 21.0432 10.691H25.8036C26.3632 10.691 26.8368 11.1044 26.9125 11.6588ZM25.8202 16.0718L26.623 16.4657C26.9202 16.6116 27.2061 16.7773 27.4791 16.9611L28.2224 17.4614L31.6839 16.0464L33.5756 19.3231L30.6206 21.6124L30.6803 22.5043C30.6913 22.6679 30.6969 22.8332 30.6969 23C30.6969 23.1668 30.6913 23.3321 30.6803 23.4957L30.6206 24.3876L33.5756 26.6768L31.6839 29.9537L28.2224 28.5386L27.4791 29.0389C27.2061 29.2227 26.9202 29.3884 26.623 29.5343L25.8202 29.9283L25.3153 33.6305H21.5316L21.0268 29.9283L20.224 29.5343C19.9268 29.3884 19.6408 29.2227 19.3678 29.0389L18.6246 28.5386L15.1631 29.9537L13.2713 26.6768L16.2264 24.3876L16.1665 23.4957C16.1556 23.3321 16.15 23.1668 16.15 23C16.15 22.8332 16.1556 22.6679 16.1665 22.5043L16.2264 21.6124L13.2713 19.3231L15.1631 16.0464L18.6246 17.4614L19.3678 16.9611C19.6408 16.7773 19.9268 16.6116 20.224 16.4657L21.0268 16.0718L21.5316 12.3695H25.3153L25.8202 16.0718Z" fill="#A298AB"/>
</svg>
