<svg width="49" height="47" viewBox="0 0 49 47" fill="none" xmlns="http://www.w3.org/2000/svg">
<g clip-path="url(#clip0_117_1297)">
<path d="M10.4832 35.5C9.93087 35.5 9.47778 35.0511 9.53489 34.5018C9.76286 32.309 10.7368 30.2489 12.3098 28.6759C14.1197 26.866 16.5744 25.8492 19.1339 25.8492C21.6935 25.8492 24.1482 26.866 25.9581 28.6759C27.5311 30.2489 28.505 32.309 28.733 34.5018C28.7901 35.0511 28.337 35.5 27.7847 35.5H27.372C26.8198 35.5 26.3792 35.0502 26.3031 34.5031C26.0874 32.9518 25.3723 31.5021 24.2521 30.3819C22.8946 29.0245 21.0536 28.2619 19.1339 28.2619C17.2143 28.2619 15.3732 29.0245 14.0158 30.3819C12.8956 31.5021 12.1805 32.9518 11.9648 34.5031C11.8887 35.0502 11.4481 35.5 10.8959 35.5H10.4832ZM19.1339 24.6429C15.1349 24.6429 11.8959 21.4038 11.8959 17.4048C11.8959 13.4057 15.1349 10.1667 19.1339 10.1667C23.133 10.1667 26.372 13.4057 26.372 17.4048C26.372 21.4038 23.133 24.6429 19.1339 24.6429ZM19.1339 22.2302C21.8 22.2302 23.9593 20.0708 23.9593 17.4048C23.9593 14.7388 21.8 12.5794 19.1339 12.5794C16.4679 12.5794 14.3086 14.7388 14.3086 17.4048C14.3086 20.0708 16.4679 22.2302 19.1339 22.2302ZM28.7168 27.6094C28.9435 27.1057 29.539 26.8768 30.0165 27.1545C31.3265 27.9164 32.443 28.9787 33.2707 30.2593C34.0984 31.54 34.6083 32.9944 34.7649 34.5019C34.8219 35.0512 34.3688 35.5 33.8166 35.5H33.404C32.8516 35.5 32.411 35.0501 32.335 34.503C32.1904 33.4612 31.8198 32.4593 31.2446 31.5692C30.6693 30.6791 29.9079 29.9296 29.0174 29.3698C28.5499 29.0759 28.3207 28.4895 28.5473 27.9859L28.7168 27.6094ZM27.9899 14.1542C28.1538 13.5803 28.7859 13.2725 29.2917 13.5894C30.0808 14.0838 30.7606 14.7411 31.2831 15.5219C32.0142 16.6145 32.4043 17.8997 32.4038 19.2143C32.4043 20.8698 31.7858 22.4657 30.6697 23.6884C29.8014 24.6397 28.6808 25.3117 27.4497 25.6339C26.8807 25.7828 26.372 25.3155 26.372 24.7274V24.2613C26.372 23.7638 26.7439 23.3539 27.2117 23.1844C27.7808 22.9782 28.3022 22.6509 28.7381 22.2211C29.381 21.5871 29.8037 20.7636 29.9442 19.8717C30.0847 18.9797 29.9356 18.0662 29.5187 17.2653C29.2315 16.7135 28.8276 16.2352 28.3389 15.8613C27.9541 15.5669 27.7248 15.0822 27.8579 14.6163L27.9899 14.1542Z" fill="#A298AB"/>
</g>
<defs>
<clipPath id="clip0_117_1297">
<rect width="32" height="32" fill="white" transform="translate(5.48315 7.5)"/>
</clipPath>
</defs>
</svg>
