<svg width="268" height="56" viewBox="0 0 268 56" fill="none" xmlns="http://www.w3.org/2000/svg">
<path d="M44.6834 22.6667C44.6834 25.2532 42.5866 27.35 40.0001 27.35C37.4135 27.35 35.3167 25.2532 35.3167 22.6667C35.3167 20.0801 37.4135 17.9833 40.0001 17.9833C42.5866 17.9833 44.6834 20.0801 44.6834 22.6667Z" stroke="#9E9E9E" stroke-width="1.3" stroke-linecap="round"/>
<path d="M30.8585 33.3783C31.7069 31.1009 34.0814 30 36.5117 30H43.4883C45.9186 30 48.2931 31.1009 49.1415 33.3783C49.5255 34.409 49.849 35.6354 49.9594 37.0002C50.004 37.5507 49.5523 38 49 38H31C30.4477 38 29.996 37.5507 30.0405 37.0002C30.1509 35.6354 30.4745 34.409 30.8585 33.3783Z" stroke="#9E9E9E" stroke-width="1.3" stroke-linecap="round"/>
<path d="M76.7614 22.3636H78.5227V30.017C78.5227 30.8314 78.3314 31.553 77.9489 32.1818C77.5663 32.8068 77.0284 33.2992 76.3352 33.6591C75.642 34.0152 74.8295 34.1932 73.8977 34.1932C72.9697 34.1932 72.1591 34.0152 71.4659 33.6591C70.7727 33.2992 70.2348 32.8068 69.8523 32.1818C69.4697 31.553 69.2784 30.8314 69.2784 30.017V22.3636H71.0341V29.875C71.0341 30.4015 71.1496 30.8693 71.3807 31.2784C71.6155 31.6875 71.947 32.0095 72.375 32.2443C72.803 32.4754 73.3106 32.5909 73.8977 32.5909C74.4886 32.5909 74.9981 32.4754 75.4261 32.2443C75.858 32.0095 76.1875 31.6875 76.4148 31.2784C76.6458 30.8693 76.7614 30.4015 76.7614 29.875V22.3636ZM87.3027 27.4034L85.7629 27.6761C85.6985 27.4792 85.5963 27.2917 85.4561 27.1136C85.3197 26.9356 85.1341 26.7898 84.8993 26.6761C84.6644 26.5625 84.3709 26.5057 84.0186 26.5057C83.5375 26.5057 83.136 26.6136 82.8141 26.8295C82.4921 27.0417 82.3311 27.3163 82.3311 27.6534C82.3311 27.9451 82.4391 28.1799 82.655 28.358C82.8709 28.536 83.2194 28.6818 83.7004 28.7955L85.0868 29.1136C85.8898 29.2992 86.4883 29.5852 86.8822 29.9716C87.2762 30.358 87.4731 30.8598 87.4731 31.4773C87.4731 32 87.3216 32.4659 87.0186 32.875C86.7194 33.2803 86.3008 33.5985 85.7629 33.8295C85.2288 34.0606 84.6095 34.1761 83.905 34.1761C82.9277 34.1761 82.1303 33.9678 81.5129 33.5511C80.8955 33.1307 80.5167 32.5341 80.3766 31.7614L82.0186 31.5114C82.1209 31.9394 82.3311 32.2633 82.6493 32.483C82.9675 32.6989 83.3822 32.8068 83.8936 32.8068C84.4504 32.8068 84.8955 32.6913 85.2288 32.4602C85.5622 32.2254 85.7288 31.9394 85.7288 31.6023C85.7288 31.3295 85.6266 31.1004 85.422 30.9148C85.2213 30.7292 84.9125 30.589 84.4959 30.4943L83.0186 30.1705C82.2042 29.9848 81.6019 29.6894 81.2118 29.2841C80.8254 28.8788 80.6322 28.3655 80.6322 27.7443C80.6322 27.2292 80.7762 26.7784 81.0641 26.392C81.3519 26.0057 81.7497 25.7045 82.2572 25.4886C82.7648 25.2689 83.3463 25.1591 84.0016 25.1591C84.9447 25.1591 85.6872 25.3636 86.2288 25.7727C86.7705 26.178 87.1285 26.7216 87.3027 27.4034ZM92.9264 34.1761C92.0666 34.1761 91.326 33.9924 90.7048 33.625C90.0874 33.2538 89.6101 32.733 89.273 32.0625C88.9397 31.3883 88.773 30.5985 88.773 29.6932C88.773 28.7992 88.9397 28.0114 89.273 27.3295C89.6101 26.6477 90.0798 26.1155 90.6821 25.733C91.2882 25.3504 91.9965 25.1591 92.8071 25.1591C93.2995 25.1591 93.7768 25.2405 94.2389 25.4034C94.701 25.5663 95.1158 25.822 95.4832 26.1705C95.8507 26.5189 96.1404 26.9716 96.3525 27.5284C96.5647 28.0814 96.6707 28.7538 96.6707 29.5455V30.1477H89.7332V28.875H95.006C95.006 28.428 94.915 28.0322 94.7332 27.6875C94.5514 27.339 94.2957 27.0644 93.9662 26.8636C93.6404 26.6629 93.2578 26.5625 92.8185 26.5625C92.3412 26.5625 91.9245 26.6799 91.5685 26.9148C91.2162 27.1458 90.9435 27.4489 90.7503 27.8239C90.5609 28.1951 90.4662 28.5985 90.4662 29.0341V30.0284C90.4662 30.6117 90.5685 31.108 90.773 31.517C90.9813 31.9261 91.2711 32.2386 91.6423 32.4545C92.0135 32.6667 92.4472 32.7727 92.9435 32.7727C93.2654 32.7727 93.559 32.7273 93.8241 32.6364C94.0893 32.5417 94.3185 32.4015 94.5116 32.2159C94.7048 32.0303 94.8525 31.8011 94.9548 31.5284L96.5628 31.8182C96.434 32.2917 96.2029 32.7064 95.8696 33.0625C95.54 33.4148 95.1253 33.6894 94.6253 33.8864C94.1291 34.0795 93.5628 34.1761 92.9264 34.1761ZM98.3797 34V25.2727H100.022V26.6591H100.113C100.272 26.1894 100.552 25.8201 100.954 25.5511C101.359 25.2784 101.817 25.142 102.329 25.142C102.435 25.142 102.56 25.1458 102.704 25.1534C102.851 25.161 102.967 25.1705 103.05 25.1818V26.8068C102.982 26.7879 102.861 26.767 102.686 26.7443C102.512 26.7178 102.338 26.7045 102.164 26.7045C101.762 26.7045 101.404 26.7898 101.09 26.9602C100.779 27.1269 100.533 27.3598 100.351 27.6591C100.169 27.9545 100.079 28.2917 100.079 28.6705V34H98.3797ZM108.539 22.3636H110.67L114.374 31.4091H114.511L118.215 22.3636H120.346V34H118.675V25.5795H118.567L115.136 33.983H113.749L110.317 25.5739H110.209V34H108.539V22.3636ZM125.126 34.1932C124.573 34.1932 124.073 34.0909 123.626 33.8864C123.179 33.678 122.825 33.3769 122.563 32.983C122.306 32.589 122.177 32.1061 122.177 31.5341C122.177 31.0417 122.272 30.6364 122.461 30.3182C122.65 30 122.906 29.7481 123.228 29.5625C123.55 29.3769 123.91 29.2367 124.308 29.142C124.705 29.0473 125.111 28.9754 125.524 28.9261C126.046 28.8655 126.471 28.8163 126.796 28.7784C127.122 28.7367 127.359 28.6705 127.507 28.5795C127.654 28.4886 127.728 28.3409 127.728 28.1364V28.0966C127.728 27.6004 127.588 27.2159 127.308 26.9432C127.031 26.6705 126.618 26.5341 126.069 26.5341C125.497 26.5341 125.046 26.661 124.717 26.9148C124.391 27.1648 124.166 27.4432 124.041 27.75L122.444 27.3864C122.633 26.8561 122.91 26.428 123.274 26.1023C123.641 25.7727 124.063 25.5341 124.541 25.3864C125.018 25.2348 125.52 25.1591 126.046 25.1591C126.395 25.1591 126.764 25.2008 127.154 25.2841C127.548 25.3636 127.916 25.5114 128.257 25.7273C128.601 25.9432 128.883 26.2519 129.103 26.6534C129.323 27.0511 129.433 27.5682 129.433 28.2045V34H127.774V32.8068H127.705C127.596 33.0265 127.431 33.2424 127.211 33.4545C126.991 33.6667 126.709 33.8428 126.364 33.983C126.02 34.1231 125.607 34.1932 125.126 34.1932ZM125.495 32.8295C125.965 32.8295 126.366 32.7367 126.7 32.5511C127.037 32.3655 127.292 32.1231 127.467 31.8239C127.645 31.5208 127.734 31.197 127.734 30.8523V29.7273C127.673 29.7879 127.556 29.8447 127.382 29.8977C127.211 29.947 127.016 29.9905 126.796 30.0284C126.577 30.0625 126.363 30.0947 126.154 30.125C125.946 30.1515 125.772 30.1742 125.632 30.1932C125.302 30.2348 125.001 30.3049 124.728 30.4034C124.459 30.5019 124.243 30.6439 124.08 30.8295C123.921 31.0114 123.842 31.2538 123.842 31.5568C123.842 31.9773 123.997 32.2955 124.308 32.5114C124.618 32.7235 125.014 32.8295 125.495 32.8295ZM133.218 28.8182V34H131.519V25.2727H133.15V26.6932H133.258C133.459 26.2311 133.773 25.8598 134.201 25.5795C134.633 25.2992 135.177 25.1591 135.832 25.1591C136.427 25.1591 136.947 25.2841 137.394 25.5341C137.841 25.7803 138.188 26.1477 138.434 26.6364C138.68 27.125 138.804 27.7292 138.804 28.4489V34H137.105V28.6534C137.105 28.0208 136.94 27.5265 136.61 27.1705C136.281 26.8106 135.828 26.6307 135.252 26.6307C134.858 26.6307 134.508 26.7159 134.201 26.8864C133.898 27.0568 133.658 27.3068 133.48 27.6364C133.305 27.9621 133.218 28.3561 133.218 28.8182ZM143.446 34.1932C142.893 34.1932 142.393 34.0909 141.946 33.8864C141.499 33.678 141.145 33.3769 140.883 32.983C140.626 32.589 140.497 32.1061 140.497 31.5341C140.497 31.0417 140.592 30.6364 140.781 30.3182C140.97 30 141.226 29.7481 141.548 29.5625C141.87 29.3769 142.23 29.2367 142.628 29.142C143.025 29.0473 143.431 28.9754 143.843 28.9261C144.366 28.8655 144.79 28.8163 145.116 28.7784C145.442 28.7367 145.679 28.6705 145.826 28.5795C145.974 28.4886 146.048 28.3409 146.048 28.1364V28.0966C146.048 27.6004 145.908 27.2159 145.628 26.9432C145.351 26.6705 144.938 26.5341 144.389 26.5341C143.817 26.5341 143.366 26.661 143.037 26.9148C142.711 27.1648 142.485 27.4432 142.36 27.75L140.764 27.3864C140.953 26.8561 141.23 26.428 141.593 26.1023C141.961 25.7727 142.383 25.5341 142.86 25.3864C143.338 25.2348 143.84 25.1591 144.366 25.1591C144.715 25.1591 145.084 25.2008 145.474 25.2841C145.868 25.3636 146.235 25.5114 146.576 25.7273C146.921 25.9432 147.203 26.2519 147.423 26.6534C147.643 27.0511 147.753 27.5682 147.753 28.2045V34H146.093V32.8068H146.025C145.915 33.0265 145.751 33.2424 145.531 33.4545C145.311 33.6667 145.029 33.8428 144.684 33.983C144.34 34.1231 143.927 34.1932 143.446 34.1932ZM143.815 32.8295C144.285 32.8295 144.686 32.7367 145.02 32.5511C145.357 32.3655 145.612 32.1231 145.787 31.8239C145.965 31.5208 146.054 31.197 146.054 30.8523V29.7273C145.993 29.7879 145.876 29.8447 145.701 29.8977C145.531 29.947 145.336 29.9905 145.116 30.0284C144.896 30.0625 144.682 30.0947 144.474 30.125C144.266 30.1515 144.092 30.1742 143.951 30.1932C143.622 30.2348 143.321 30.3049 143.048 30.4034C142.779 30.5019 142.563 30.6439 142.4 30.8295C142.241 31.0114 142.162 31.2538 142.162 31.5568C142.162 31.9773 142.317 32.2955 142.628 32.5114C142.938 32.7235 143.334 32.8295 143.815 32.8295ZM153.498 37.4545C152.805 37.4545 152.209 37.3636 151.709 37.1818C151.212 37 150.807 36.7595 150.493 36.4602C150.178 36.161 149.943 35.8333 149.788 35.4773L151.248 34.875C151.351 35.0417 151.487 35.2178 151.657 35.4034C151.832 35.5928 152.067 35.7538 152.362 35.8864C152.661 36.0189 153.046 36.0852 153.515 36.0852C154.159 36.0852 154.692 35.928 155.112 35.6136C155.532 35.303 155.743 34.8068 155.743 34.125V32.4091H155.635C155.532 32.5947 155.385 32.8011 155.192 33.0284C155.002 33.2557 154.741 33.4527 154.407 33.6193C154.074 33.786 153.64 33.8693 153.106 33.8693C152.417 33.8693 151.796 33.7083 151.243 33.3864C150.693 33.0606 150.258 32.5814 149.936 31.9489C149.618 31.3125 149.459 30.5303 149.459 29.6023C149.459 28.6742 149.616 27.8788 149.93 27.2159C150.248 26.553 150.684 26.0455 151.237 25.6932C151.79 25.3371 152.417 25.1591 153.118 25.1591C153.659 25.1591 154.097 25.25 154.43 25.4318C154.764 25.6098 155.023 25.8182 155.209 26.0568C155.398 26.2955 155.544 26.5057 155.646 26.6875H155.771V25.2727H157.436V34.1932C157.436 34.9432 157.262 35.5587 156.913 36.0398C156.565 36.5208 156.093 36.8769 155.498 37.108C154.907 37.339 154.241 37.4545 153.498 37.4545ZM153.481 32.4602C153.97 32.4602 154.383 32.3466 154.72 32.1193C155.061 31.8883 155.318 31.5587 155.493 31.1307C155.671 30.6989 155.76 30.1818 155.76 29.5795C155.76 28.9924 155.673 28.4754 155.498 28.0284C155.324 27.5814 155.068 27.233 154.731 26.983C154.394 26.7292 153.978 26.6023 153.481 26.6023C152.97 26.6023 152.544 26.7348 152.203 27C151.862 27.2614 151.604 27.6174 151.43 28.0682C151.26 28.5189 151.175 29.0227 151.175 29.5795C151.175 30.1515 151.262 30.6534 151.436 31.0852C151.61 31.517 151.868 31.8542 152.209 32.0966C152.553 32.339 152.978 32.4602 153.481 32.4602ZM163.3 34.1761C162.44 34.1761 161.699 33.9924 161.078 33.625C160.461 33.2538 159.983 32.733 159.646 32.0625C159.313 31.3883 159.146 30.5985 159.146 29.6932C159.146 28.7992 159.313 28.0114 159.646 27.3295C159.983 26.6477 160.453 26.1155 161.055 25.733C161.661 25.3504 162.37 25.1591 163.18 25.1591C163.673 25.1591 164.15 25.2405 164.612 25.4034C165.074 25.5663 165.489 25.822 165.856 26.1705C166.224 26.5189 166.514 26.9716 166.726 27.5284C166.938 28.0814 167.044 28.7538 167.044 29.5455V30.1477H160.106V28.875H165.379C165.379 28.428 165.288 28.0322 165.106 27.6875C164.925 27.339 164.669 27.0644 164.339 26.8636C164.014 26.6629 163.631 26.5625 163.192 26.5625C162.714 26.5625 162.298 26.6799 161.942 26.9148C161.589 27.1458 161.317 27.4489 161.124 27.8239C160.934 28.1951 160.839 28.5985 160.839 29.0341V30.0284C160.839 30.6117 160.942 31.108 161.146 31.517C161.355 31.9261 161.644 32.2386 162.016 32.4545C162.387 32.6667 162.82 32.7727 163.317 32.7727C163.639 32.7727 163.932 32.7273 164.197 32.6364C164.463 32.5417 164.692 32.4015 164.885 32.2159C165.078 32.0303 165.226 31.8011 165.328 31.5284L166.936 31.8182C166.807 32.2917 166.576 32.7064 166.243 33.0625C165.913 33.4148 165.499 33.6894 164.999 33.8864C164.502 34.0795 163.936 34.1761 163.3 34.1761ZM168.753 34V25.2727H170.384V26.6932H170.492C170.673 26.2121 170.971 25.8371 171.384 25.5682C171.796 25.2955 172.291 25.1591 172.867 25.1591C173.45 25.1591 173.939 25.2955 174.332 25.5682C174.73 25.8409 175.024 26.2159 175.213 26.6932H175.304C175.512 26.2273 175.844 25.8561 176.298 25.5795C176.753 25.2992 177.295 25.1591 177.923 25.1591C178.715 25.1591 179.361 25.4072 179.861 25.9034C180.365 26.3996 180.617 27.1477 180.617 28.1477V34H178.918V28.3068C178.918 27.7159 178.757 27.2879 178.435 27.0227C178.113 26.7576 177.728 26.625 177.281 26.625C176.728 26.625 176.298 26.7955 175.992 27.1364C175.685 27.4735 175.531 27.9072 175.531 28.4375V34H173.838V28.1989C173.838 27.7254 173.69 27.3447 173.395 27.0568C173.1 26.7689 172.715 26.625 172.242 26.625C171.92 26.625 171.622 26.7102 171.35 26.8807C171.081 27.0473 170.863 27.2803 170.696 27.5795C170.533 27.8788 170.452 28.2254 170.452 28.6193V34H168.753ZM186.479 34.1761C185.619 34.1761 184.879 33.9924 184.257 33.625C183.64 33.2538 183.163 32.733 182.826 32.0625C182.492 31.3883 182.326 30.5985 182.326 29.6932C182.326 28.7992 182.492 28.0114 182.826 27.3295C183.163 26.6477 183.632 26.1155 184.235 25.733C184.841 25.3504 185.549 25.1591 186.36 25.1591C186.852 25.1591 187.329 25.2405 187.791 25.4034C188.254 25.5663 188.668 25.822 189.036 26.1705C189.403 26.5189 189.693 26.9716 189.905 27.5284C190.117 28.0814 190.223 28.7538 190.223 29.5455V30.1477H183.286V28.875H188.558C188.558 28.428 188.468 28.0322 188.286 27.6875C188.104 27.339 187.848 27.0644 187.519 26.8636C187.193 26.6629 186.81 26.5625 186.371 26.5625C185.894 26.5625 185.477 26.6799 185.121 26.9148C184.769 27.1458 184.496 27.4489 184.303 27.8239C184.113 28.1951 184.019 28.5985 184.019 29.0341V30.0284C184.019 30.6117 184.121 31.108 184.326 31.517C184.534 31.9261 184.824 32.2386 185.195 32.4545C185.566 32.6667 186 32.7727 186.496 32.7727C186.818 32.7727 187.111 32.7273 187.377 32.6364C187.642 32.5417 187.871 32.4015 188.064 32.2159C188.257 32.0303 188.405 31.8011 188.507 31.5284L190.115 31.8182C189.986 32.2917 189.755 32.7064 189.422 33.0625C189.093 33.4148 188.678 33.6894 188.178 33.8864C187.682 34.0795 187.115 34.1761 186.479 34.1761ZM193.631 28.8182V34H191.932V25.2727H193.563V26.6932H193.671C193.872 26.2311 194.186 25.8598 194.614 25.5795C195.046 25.2992 195.589 25.1591 196.245 25.1591C196.839 25.1591 197.36 25.2841 197.807 25.5341C198.254 25.7803 198.601 26.1477 198.847 26.6364C199.093 27.125 199.216 27.7292 199.216 28.4489V34H197.517V28.6534C197.517 28.0208 197.353 27.5265 197.023 27.1705C196.694 26.8106 196.241 26.6307 195.665 26.6307C195.271 26.6307 194.921 26.7159 194.614 26.8864C194.311 27.0568 194.07 27.3068 193.892 27.6364C193.718 27.9621 193.631 28.3561 193.631 28.8182ZM205.393 25.2727V26.6364H200.625V25.2727H205.393ZM201.904 23.1818H203.603V31.4375C203.603 31.767 203.652 32.0152 203.75 32.1818C203.849 32.3447 203.976 32.4564 204.131 32.517C204.29 32.5739 204.463 32.6023 204.648 32.6023C204.785 32.6023 204.904 32.5928 205.006 32.5739C205.108 32.5549 205.188 32.5398 205.245 32.5284L205.552 33.9318C205.453 33.9697 205.313 34.0076 205.131 34.0455C204.949 34.0871 204.722 34.1098 204.449 34.1136C204.002 34.1212 203.586 34.0417 203.199 33.875C202.813 33.7083 202.5 33.4508 202.262 33.1023C202.023 32.7538 201.904 32.3163 201.904 31.7898V23.1818Z" fill="#9E9E9E"/>
</svg>
