<svg width="24" height="26" viewBox="0 0 24 26" fill="none" xmlns="http://www.w3.org/2000/svg">
<path fill-rule="evenodd" clip-rule="evenodd" d="M11.9999 17.476C14.472 17.476 16.4759 15.472 16.4759 13C16.4759 10.528 14.472 8.52405 11.9999 8.52405C9.5279 8.52405 7.52393 10.528 7.52393 13C7.52393 15.472 9.5279 17.476 11.9999 17.476ZM11.9999 15.7975C13.5449 15.7975 14.7974 14.545 14.7974 13C14.7974 11.455 13.5449 10.2025 11.9999 10.2025C10.4549 10.2025 9.20242 11.455 9.20242 13C9.20242 14.545 10.4549 15.7975 11.9999 15.7975Z" fill="white"/>
<path fill-rule="evenodd" clip-rule="evenodd" d="M15.489 1.65885L15.9389 4.95897C16.3051 5.13866 16.6571 5.34261 16.993 5.56873L20.0772 4.3079C20.5952 4.09615 21.19 4.29959 21.4698 4.78419L23.85 8.90687C24.1298 9.39149 24.0086 10.0083 23.5663 10.351L20.9317 12.392C20.9451 12.5929 20.9519 12.7957 20.9519 13C20.9519 13.2044 20.9451 13.4071 20.9317 13.6081L23.5663 15.649C24.0086 15.9918 24.1298 16.6086 23.85 17.0932L21.4698 21.2158C21.19 21.7005 20.5952 21.9039 20.0772 21.6922L16.993 20.4313C16.6571 20.6574 16.3051 20.8614 15.9389 21.041L15.489 24.3412C15.4133 24.8957 14.9398 25.309 14.3802 25.309H9.61976C9.06019 25.309 8.58664 24.8957 8.51103 24.3412L8.06101 21.041C7.6949 20.8614 7.34285 20.6574 7.00696 20.4313L3.92274 21.6922C3.40478 21.9039 2.81002 21.7005 2.53023 21.2158L0.150003 17.0932C-0.129791 16.6086 -0.00859231 15.9918 0.43377 15.649L3.06834 13.6081C3.05486 13.4071 3.04802 13.2044 3.04802 13C3.04802 12.7957 3.05486 12.5929 3.06834 12.392L0.43377 10.351C-0.00859231 10.0083 -0.129791 9.39149 0.149992 8.90687L2.53023 4.78419C2.81001 4.29959 3.40477 4.09615 3.92274 4.3079L7.00696 5.56873C7.34285 5.34261 7.6949 5.13866 8.06101 4.95897L8.51103 1.65885C8.58664 1.1044 9.06019 0.69104 9.61976 0.69104H14.3802C14.9398 0.69104 15.4133 1.1044 15.489 1.65885ZM14.3967 6.07179L15.1995 6.46578C15.4967 6.61164 15.7826 6.7773 16.0557 6.9611L16.7989 7.46145L20.2604 6.04639L22.1522 9.32317L19.1971 11.6125L19.2569 12.5043C19.2678 12.6679 19.2734 12.8332 19.2734 13C19.2734 13.1669 19.2678 13.3321 19.2569 13.4957L19.1971 14.3876L22.1522 16.6768L20.2604 19.9537L16.7989 18.5386L16.0557 19.0389C15.7826 19.2228 15.4967 19.3884 15.1995 19.5343L14.3967 19.9283L13.8918 23.6305H10.1082L9.60329 19.9283L8.80052 19.5343C8.50334 19.3884 8.21737 19.2228 7.94433 19.0389L7.20113 18.5386L3.73966 19.9537L1.84782 16.6768L4.80289 14.3876L4.74308 13.4957C4.7321 13.3321 4.72651 13.1669 4.72651 13C4.72651 12.8332 4.7321 12.6679 4.74308 12.5043L4.80289 11.6125L1.8478 9.32317L3.73966 6.04639L7.20113 7.46145L7.94433 6.9611C8.21736 6.7773 8.50334 6.61164 8.80053 6.46578L9.60329 6.07179L10.1082 2.36954H13.8918L14.3967 6.07179Z" fill="white"/>
</svg>
